<svg width="71" height="81" viewBox="0 0 71 81" fill="none" xmlns="http://www.w3.org/2000/svg">
<path d="M33.963 49.9129C33.6215 50.386 33.2369 50.8354 32.813 51.2567C26.4792 56.6101 20.1306 61.9509 13.7673 63.9533C12.6903 64.8724 11.5121 65.7005 10.249 66.4254C8.10686 67.6224 6.41623 66.8997 6.05959 64.7185C5.99837 64.1423 5.98431 63.563 6.01747 62.9851C6.04118 49.3882 6.02407 35.7912 6.11627 22.1946C6.15217 16.8462 6.39784 11.4978 6.62703 6.15198C6.73052 4.99974 6.95979 3.85838 7.31194 2.7427C7.68537 1.34967 8.13518 0.975444 9.84759 0.857668C13.328 0.61817 16.8154 0.342898 20.303 0.302606C33.0373 0.15637 45.7732 0.109605 58.5081 0C60.1948 0.0146167 61.8627 0.303014 63.4236 0.849826C63.8017 0.958113 64.1359 1.15648 64.3865 1.42167C64.6374 1.68686 64.7945 2.00784 64.8396 2.34682C64.9601 3.01245 65.0128 3.68569 64.9974 4.35913C64.1563 23.107 63.7434 41.8575 64.3575 60.6181C64.3483 62.0987 64.2027 63.5766 63.9219 65.0375C63.7536 66.1321 62.5388 66.7768 61.1389 66.6153C59.7275 66.4471 58.4376 65.8408 57.5146 64.9121C50.4918 61.5193 41.9117 56.2785 33.963 49.9129Z" fill="#7E0DB5"/>
<path d="M26.0616 17.216C26.6122 17.3187 27.0649 17.594 27.4196 18.042C27.7742 18.49 27.9516 19.0034 27.9516 19.582C27.9516 20.1047 27.8209 20.5667 27.5596 20.968C27.3076 21.36 26.9389 21.668 26.4536 21.892C25.9682 22.116 25.3942 22.228 24.7316 22.228H20.5176V12.456H24.5496C25.2122 12.456 25.7816 12.5634 26.2576 12.778C26.7429 12.9927 27.1069 13.2914 27.3496 13.674C27.6016 14.0567 27.7276 14.4907 27.7276 14.976C27.7276 15.5454 27.5736 16.0214 27.2656 16.404C26.9669 16.7867 26.5656 17.0574 26.0616 17.216ZM22.4776 16.488H24.2696C24.7362 16.488 25.0956 16.3854 25.3476 16.18C25.5996 15.9654 25.7256 15.662 25.7256 15.27C25.7256 14.878 25.5996 14.5747 25.3476 14.36C25.0956 14.1454 24.7362 14.038 24.2696 14.038H22.4776V16.488ZM24.4516 20.632C24.9276 20.632 25.2962 20.52 25.5576 20.296C25.8282 20.072 25.9636 19.7547 25.9636 19.344C25.9636 18.924 25.8236 18.5974 25.5436 18.364C25.2636 18.1214 24.8856 18 24.4096 18H22.4776V20.632H24.4516ZM36.7237 18.182C36.7237 18.462 36.705 18.714 36.6677 18.938H30.9977C31.0443 19.498 31.2403 19.9367 31.5857 20.254C31.931 20.5714 32.3557 20.73 32.8597 20.73C33.5877 20.73 34.1057 20.4174 34.4137 19.792H36.5277C36.3037 20.5387 35.8743 21.1547 35.2397 21.64C34.605 22.116 33.8257 22.354 32.9017 22.354C32.155 22.354 31.483 22.1907 30.8857 21.864C30.2977 21.528 29.8357 21.0567 29.4997 20.45C29.173 19.8434 29.0097 19.1434 29.0097 18.35C29.0097 17.5474 29.173 16.8427 29.4997 16.236C29.8263 15.6294 30.2837 15.1627 30.8717 14.836C31.4597 14.5094 32.1363 14.346 32.9017 14.346C33.639 14.346 34.297 14.5047 34.8757 14.822C35.4637 15.1394 35.9163 15.592 36.2337 16.18C36.5603 16.7587 36.7237 17.426 36.7237 18.182ZM34.6937 17.622C34.6843 17.118 34.5023 16.7167 34.1477 16.418C33.793 16.11 33.359 15.956 32.8457 15.956C32.3603 15.956 31.9497 16.1054 31.6137 16.404C31.287 16.6934 31.0863 17.0994 31.0117 17.622H34.6937ZM41.1223 22.354C40.4876 22.354 39.9183 22.242 39.4143 22.018C38.9103 21.7847 38.5089 21.472 38.2103 21.08C37.9209 20.688 37.7623 20.254 37.7343 19.778H39.7083C39.7456 20.0767 39.8903 20.324 40.1423 20.52C40.4036 20.716 40.7256 20.814 41.1083 20.814C41.4816 20.814 41.7709 20.7394 41.9763 20.59C42.1909 20.4407 42.2983 20.2494 42.2983 20.016C42.2983 19.764 42.1676 19.5774 41.9063 19.456C41.6543 19.3254 41.2483 19.1854 40.6883 19.036C40.1096 18.896 39.6336 18.7514 39.2603 18.602C38.8963 18.4527 38.5789 18.224 38.3083 17.916C38.0469 17.608 37.9163 17.1927 37.9163 16.67C37.9163 16.2407 38.0376 15.8487 38.2803 15.494C38.5323 15.1394 38.8869 14.8594 39.3443 14.654C39.8109 14.4487 40.3569 14.346 40.9823 14.346C41.9063 14.346 42.6436 14.5794 43.1943 15.046C43.7449 15.5034 44.0483 16.124 44.1043 16.908H42.2283C42.2003 16.6 42.0696 16.3574 41.8363 16.18C41.6123 15.9934 41.3089 15.9 40.9263 15.9C40.5716 15.9 40.2963 15.9654 40.1003 16.096C39.9136 16.2267 39.8203 16.4087 39.8203 16.642C39.8203 16.9034 39.9509 17.104 40.2123 17.244C40.4736 17.3747 40.8796 17.51 41.4303 17.65C41.9903 17.79 42.4523 17.9347 42.8163 18.084C43.1803 18.2334 43.4929 18.4667 43.7543 18.784C44.0249 19.092 44.1649 19.5027 44.1743 20.016C44.1743 20.464 44.0483 20.8654 43.7963 21.22C43.5536 21.5747 43.1989 21.8547 42.7323 22.06C42.2749 22.256 41.7383 22.354 41.1223 22.354ZM48.0652 16.082V19.834C48.0652 20.0954 48.1259 20.2867 48.2472 20.408C48.3779 20.52 48.5925 20.576 48.8912 20.576H49.8012V22.228H48.5692C46.9172 22.228 46.0912 21.4254 46.0912 19.82V16.082H45.1672V14.472H46.0912V12.554H48.0652V14.472H49.8012V16.082H48.0652Z" fill="white"/>
<path d="M24.0251 28.456L20.4411 38.228H18.0611L14.4771 28.456H16.5771L19.2651 36.226L21.9391 28.456H24.0251ZM24.6962 34.322C24.6962 33.538 24.8502 32.8427 25.1582 32.236C25.4755 31.6294 25.9002 31.1627 26.4322 30.836C26.9735 30.5094 27.5755 30.346 28.2382 30.346C28.8168 30.346 29.3208 30.4627 29.7502 30.696C30.1888 30.9294 30.5388 31.2234 30.8002 31.578V30.472H32.7742V38.228H30.8002V37.094C30.5482 37.458 30.1982 37.7614 29.7502 38.004C29.3115 38.2374 28.8028 38.354 28.2242 38.354C27.5708 38.354 26.9735 38.186 26.4322 37.85C25.9002 37.514 25.4755 37.0427 25.1582 36.436C24.8502 35.82 24.6962 35.1154 24.6962 34.322ZM30.8002 34.35C30.8002 33.874 30.7068 33.468 30.5202 33.132C30.3335 32.7867 30.0815 32.5254 29.7642 32.348C29.4468 32.1614 29.1062 32.068 28.7422 32.068C28.3782 32.068 28.0422 32.1567 27.7342 32.334C27.4262 32.5114 27.1742 32.7727 26.9782 33.118C26.7915 33.454 26.6982 33.8554 26.6982 34.322C26.6982 34.7887 26.7915 35.1994 26.9782 35.554C27.1742 35.8994 27.4262 36.1654 27.7342 36.352C28.0515 36.5387 28.3875 36.632 28.7422 36.632C29.1062 36.632 29.4468 36.5434 29.7642 36.366C30.0815 36.1794 30.3335 35.918 30.5202 35.582C30.7068 35.2367 30.8002 34.826 30.8002 34.35ZM36.6485 27.868V38.228H34.6885V27.868H36.6485ZM45.9069 30.472V38.228H43.9329V37.248C43.6809 37.584 43.3496 37.85 42.9389 38.046C42.5376 38.2327 42.0989 38.326 41.6229 38.326C41.0163 38.326 40.4796 38.2 40.0129 37.948C39.5463 37.6867 39.1776 37.3087 38.9069 36.814C38.6456 36.31 38.5149 35.7127 38.5149 35.022V30.472H40.4749V34.742C40.4749 35.358 40.6289 35.834 40.9369 36.17C41.2449 36.4967 41.6649 36.66 42.1969 36.66C42.7383 36.66 43.1629 36.4967 43.4709 36.17C43.7789 35.834 43.9329 35.358 43.9329 34.742V30.472H45.9069ZM55.0508 34.182C55.0508 34.462 55.0321 34.714 54.9948 34.938H49.3248C49.3715 35.498 49.5675 35.9367 49.9128 36.254C50.2581 36.5714 50.6828 36.73 51.1868 36.73C51.9148 36.73 52.4328 36.4174 52.7408 35.792H54.8548C54.6308 36.5387 54.2015 37.1547 53.5668 37.64C52.9321 38.116 52.1528 38.354 51.2288 38.354C50.4821 38.354 49.8101 38.1907 49.2128 37.864C48.6248 37.528 48.1628 37.0567 47.8268 36.45C47.5001 35.8434 47.3368 35.1434 47.3368 34.35C47.3368 33.5474 47.5001 32.8427 47.8268 32.236C48.1535 31.6294 48.6108 31.1627 49.1988 30.836C49.7868 30.5094 50.4635 30.346 51.2288 30.346C51.9661 30.346 52.6241 30.5047 53.2028 30.822C53.7908 31.1394 54.2435 31.592 54.5608 32.18C54.8875 32.7587 55.0508 33.426 55.0508 34.182ZM53.0208 33.622C53.0115 33.118 52.8295 32.7167 52.4748 32.418C52.1201 32.11 51.6861 31.956 51.1728 31.956C50.6875 31.956 50.2768 32.1054 49.9408 32.404C49.6141 32.6934 49.4135 33.0994 49.3388 33.622H53.0208Z" fill="#FFE56A"/>
</svg>
