<?xml version="1.0" standalone="no"?>
<svg xmlns:xlink="http://www.w3.org/1999/xlink" id="wave" style="transform:rotate(0deg); transition: 0.3s" viewBox="0 0 1440 300" version="1.1" xmlns="http://www.w3.org/2000/svg"><defs><linearGradient id="sw-gradient-0" x1="0" x2="0" y1="1" y2="0"><stop stop-color="rgba(251, 241, 241, 1)" offset="0%"/><stop stop-color="rgba(251, 241, 241, 1)" offset="100%"/></linearGradient></defs><path style="transform:translate(0, 0px); opacity:1" fill="url(#sw-gradient-0)" d="M0,210L40,190C80,170,160,130,240,100C320,70,400,50,480,65C560,80,640,130,720,160C800,190,880,200,960,180C1040,160,1120,110,1200,75C1280,40,1360,20,1440,40C1520,60,1600,120,1680,135C1760,150,1840,120,1920,95C2000,70,2080,50,2160,60C2240,70,2320,110,2400,130C2480,150,2560,150,2640,130C2720,110,2800,70,2880,80C2960,90,3040,150,3120,170C3200,190,3280,170,3360,145C3440,120,3520,90,3600,110C3680,130,3760,200,3840,235C3920,270,4000,270,4080,225C4160,180,4240,90,4320,45C4400,0,4480,0,4560,25C4640,50,4720,100,4800,145C4880,190,4960,230,5040,235C5120,240,5200,210,5280,190C5360,170,5440,160,5520,140C5600,120,5680,90,5720,75L5760,60L5760,300L5720,300C5680,300,5600,300,5520,300C5440,300,5360,300,5280,300C5200,300,5120,300,5040,300C4960,300,4880,300,4800,300C4720,300,4640,300,4560,300C4480,300,4400,300,4320,300C4240,300,4160,300,4080,300C4000,300,3920,300,3840,300C3760,300,3680,300,3600,300C3520,300,3440,300,3360,300C3280,300,3200,300,3120,300C3040,300,2960,300,2880,300C2800,300,2720,300,2640,300C2560,300,2480,300,2400,300C2320,300,2240,300,2160,300C2080,300,2000,300,1920,300C1840,300,1760,300,1680,300C1600,300,1520,300,1440,300C1360,300,1280,300,1200,300C1120,300,1040,300,960,300C880,300,800,300,720,300C640,300,560,300,480,300C400,300,320,300,240,300C160,300,80,300,40,300L0,300Z"/></svg>