<svg width="348" height="381" viewBox="0 0 348 381" fill="none" xmlns="http://www.w3.org/2000/svg">
<g clip-path="url(#clip0_226_531)">
<path d="M92.3763 81.2206C92.4686 81.2206 92.6121 81.2206 92.6326 81.149C93.6576 78.5645 95.3438 76.3331 96.7327 73.9533C97.3909 72.8858 98.115 71.8602 98.9007 70.8825C99.7412 69.7924 100.489 68.5948 101.34 67.4945C102.924 65.4474 104.59 63.4923 106.342 61.5834C107.993 59.787 109.725 58.0776 111.468 56.3785C113.222 54.6691 115.092 53.0822 117.064 51.6291C118.33 50.6925 119.494 49.5819 120.826 48.7324C122.512 47.6525 123.958 46.1734 125.895 45.5081C126.541 44.4845 127.745 44.2184 128.698 43.7169C129.857 43.1027 130.825 42.0791 132.225 41.8949C132.737 41.8233 133.009 41.1733 133.562 41.0197C134.951 40.6461 136.063 39.643 137.524 39.3616C138.17 39.2387 138.723 38.6092 139.42 38.3636C141.47 37.6368 143.521 36.8282 145.571 36.1117C146.247 35.8496 146.955 35.6775 147.677 35.5999C148.456 35.5283 149.117 34.9244 149.932 34.7759C150.671 34.5908 151.423 34.4608 152.182 34.387C152.894 34.3563 153.545 33.7677 154.324 33.7114C154.611 34.0691 154.743 34.5255 154.693 34.9807C154.636 39.6379 155.487 44.2618 157.2 48.5942C157.323 48.8347 157.373 49.106 157.343 49.3745C157.312 49.6429 157.204 49.8966 157.031 50.104C154.98 50.713 152.802 50.9382 150.834 51.8799C150.548 52.0242 150.232 52.0996 149.912 52.0999C149.427 52.1214 148.96 52.2852 148.569 52.5708C147.067 53.3641 145.34 53.6711 143.859 54.5514C143.726 54.6282 143.5 54.5514 143.321 54.5514C143.14 54.5618 142.969 54.6362 142.839 54.7612C141.711 55.8462 140.164 56.1738 138.841 56.9107C137.816 57.4891 136.817 58.1493 135.766 58.6866C134.618 59.3214 133.504 60.0167 132.43 60.7696C131.686 61.2507 130.892 61.7164 130.216 62.2436C129.257 62.9959 128.288 63.7482 127.34 64.5108C125.136 66.2316 123.046 68.0933 121.082 70.0841C119.468 71.7577 117.741 73.3442 116.362 75.2532C115.394 76.5941 114.163 77.7507 113.2 79.1018C112.695 79.7092 112.233 80.3505 111.816 81.021C110.868 82.843 109.628 84.4756 108.608 86.2464C108.039 87.229 107.46 88.2372 106.968 89.2352C106.301 90.5915 105.681 91.9989 105.041 93.3705C104.4 94.7421 104.18 96.3132 103.196 97.5262C103.165 99.3277 102.022 100.791 101.72 102.531C101.417 104.272 100.694 105.832 100.459 107.583C100.172 109.707 99.1877 111.723 99.3876 113.944C99.3876 114.072 99.3056 114.205 99.2902 114.338C99.0237 116.826 98.7162 119.303 98.6598 121.81C98.5649 124.269 98.6316 126.731 98.8597 129.18C99.2184 132.404 99.2441 135.67 100.09 138.838C100.648 140.951 100.853 143.157 101.694 145.199C101.94 145.808 101.745 146.504 102.048 147.042C103.026 148.782 103.18 150.834 104.21 152.543C104.308 152.7 104.374 152.874 104.405 153.055C104.605 154.34 105.343 155.435 105.871 156.551C106.471 157.815 107.147 159.11 107.839 160.338C108.792 162.047 109.833 163.695 110.822 165.379C111.206 166.034 111.616 166.684 112.037 167.313C112.923 168.644 113.999 169.847 115.004 171.101C115.86 172.17 116.685 173.255 117.633 174.248C118.453 175.113 119.268 175.999 120.042 176.894C120.631 177.57 121.626 177.918 121.846 178.905C122.871 179.166 123.332 180.159 124.086 180.773C125.47 181.899 126.818 183.082 128.242 184.167C129.498 185.129 130.805 186.045 132.061 186.976C133.552 188.072 135.187 188.931 136.709 189.97C138.124 190.932 139.846 191.454 141.276 192.463C141.397 192.524 141.526 192.567 141.66 192.591C143.198 193.072 144.566 193.993 146.119 194.443C146.247 194.479 146.355 194.582 146.483 194.633C147.918 195.221 149.476 195.508 150.814 196.342C150.85 196.342 150.906 196.342 150.952 196.342C152.043 196.38 153.104 196.706 154.027 197.289C154.339 197.47 154.691 197.572 155.052 197.586C156.496 197.639 157.916 197.969 159.234 198.558C159.474 198.69 159.745 198.755 160.018 198.747C161.005 198.69 161.995 198.78 162.955 199.014C164.647 199.31 166.348 199.571 168.039 199.889C169.731 200.206 171.627 199.955 173.416 200.109C175.338 200.273 177.265 199.996 179.192 199.976C180.495 199.901 181.793 199.744 183.077 199.505C185.224 199.213 187.341 198.579 189.54 198.732C189.721 198.72 189.896 198.666 190.052 198.573C191.513 197.934 193.091 197.775 194.613 197.391C196.136 197.007 197.689 196.506 199.226 196.035C199.954 195.81 200.702 195.308 201.466 195.104C202.19 194.895 202.894 194.619 203.567 194.28C204.592 193.768 205.684 193.307 206.75 192.908C207.975 192.442 209.036 191.68 210.291 191.255C211.206 190.909 212.068 190.439 212.854 189.858C213.92 189.09 215.068 188.455 216.155 187.734C217.538 186.807 218.953 185.886 220.28 184.909C221.818 183.793 223.258 182.539 224.698 181.285C227.048 179.259 229.263 177.083 231.33 174.77C233.055 172.896 234.658 170.913 236.127 168.834C237.065 167.457 238.065 166.121 238.946 164.708C240.058 162.922 241.078 161.08 242.124 159.253C242.718 158.229 242.857 156.904 243.887 156.116C243.856 154.58 245.03 153.459 245.425 152.021C245.794 150.67 246.393 149.355 246.839 147.999C247.251 146.928 247.584 145.828 247.833 144.708C248.11 143.126 249.094 141.704 248.971 140.015C248.971 139.969 249.002 139.928 249.007 139.882C249.366 137.727 250.196 135.665 250.232 133.449C250.273 130.536 250.744 127.65 250.744 124.748C250.723 121.424 250.511 118.104 250.109 114.804C250.022 113.955 250.34 113.141 250.022 112.245C249.298 110.397 248.909 108.436 248.874 106.452C248.875 106.271 248.825 106.094 248.73 105.94C248.079 104.962 248.049 103.78 247.623 102.736C247.444 102.296 247.721 101.912 247.454 101.446C246.383 99.604 245.973 97.4852 245.225 95.5097C244.758 94.2661 244.118 93.0941 243.62 91.876C243.123 90.658 242.339 89.3171 241.683 88.0479C240.771 86.2924 239.73 84.6138 238.716 82.93C237.726 81.3483 236.644 79.8257 235.477 78.37C233.693 76.0772 231.802 73.8867 229.921 71.6809C229.921 71.425 229.839 71.0924 230.244 71.0617C230.649 71.031 231.064 71.0309 231.474 71.0309C236.907 71.0309 242.341 71.0309 247.777 71.0309C248.956 71.0309 250.14 70.9491 251.17 71.686C251.626 72.6277 252.405 73.3852 252.82 74.3217C253.275 75.2624 253.812 76.1614 254.424 77.0086C255.234 78.2113 255.859 79.5113 256.577 80.7498C257.115 81.5129 257.55 82.3442 257.869 83.2217C258.176 84.4295 259.232 85.3252 259.257 86.6405C260.364 88.0325 260.508 89.875 261.431 91.3489C261.738 91.8351 261.456 92.3725 261.774 92.8587C262.199 93.4882 263.967 98.9643 264.101 99.7371C264.159 99.9028 264.159 100.083 264.101 100.249C263.952 100.535 264.101 100.761 264.224 101.001C264.888 102.197 265.24 103.539 265.249 104.906C265.249 106.273 265.874 107.409 266.13 108.668C265.971 109.118 266.284 109.579 266.089 110.019C265.85 110.713 265.816 111.461 265.992 112.174C266.325 114.482 266.504 116.78 266.633 119.129C267.157 129.278 266.016 139.445 263.255 149.227C263.042 149.785 263.058 150.405 263.301 150.952C263.163 151.356 262.65 151.617 262.86 152.17C262.886 152.344 262.859 152.522 262.784 152.681C262.466 153.664 261.856 154.585 261.646 155.527C261.385 156.515 261.031 157.476 260.59 158.398C260.303 159.094 260.144 159.836 259.811 160.522C258.689 162.835 257.684 165.21 256.474 167.472C255.881 168.644 255.217 169.779 254.486 170.87C253.973 171.623 253.512 172.452 253.03 173.245C251.934 175.067 250.709 176.787 249.443 178.496C248.561 179.694 247.721 180.927 246.767 182.079C243.975 185.491 240.964 188.719 237.752 191.741C235.101 194.231 232.29 196.546 229.337 198.671C227.916 199.758 226.434 200.762 224.898 201.68C224.047 202.141 223.181 202.704 222.336 203.292C221.227 204.056 220.056 204.725 218.835 205.293C218.323 205.529 217.851 205.907 217.328 206.158C215.532 207.129 213.683 207.997 211.788 208.758C210.42 209.244 209.266 210.386 207.657 210.191C207.565 210.191 207.447 210.339 207.344 210.426C206.661 210.964 205.841 211.303 204.977 211.404C204.509 211.506 204.052 211.653 203.613 211.844C202.665 212.238 201.727 212.694 200.63 212.648C199.749 212.617 199.093 213.395 198.237 213.523C197.381 213.651 196.699 213.994 195.823 213.896C195.383 213.904 194.95 214.011 194.557 214.209C193.098 214.823 191.528 215.13 189.944 215.109C189.313 215.024 188.67 215.081 188.064 215.278C186.526 215.995 184.871 215.877 183.271 216.118C181.949 216.352 180.605 216.44 179.264 216.379C177.055 216.225 174.83 216.471 172.637 216.169C171.919 216.066 171.345 216.481 170.643 216.435C168.649 216.302 166.661 216.164 164.672 215.979C163.037 215.831 161.489 215.125 159.885 215.104C158.491 215.148 157.101 214.933 155.785 214.47C154.207 213.825 152.474 214.091 150.942 213.4C149.666 212.827 148.277 212.683 146.965 212.264C145.868 211.916 144.817 211.455 143.69 211.163C142.562 210.872 141.383 210.242 140.199 209.828C138.281 209.127 136.409 208.308 134.592 207.376C133.403 206.777 132.209 206.163 131.041 205.524C130.096 204.942 129.112 204.429 128.094 203.988C127.099 203.62 126.274 202.878 125.377 202.32C123.886 201.383 122.441 200.334 121.006 199.3C119.396 198.138 117.772 197.007 116.255 195.718C115.98 195.505 115.637 195.4 115.291 195.422C114.944 195.445 114.618 195.594 114.374 195.841C110.704 199.5 107.116 203.18 103.416 206.762C103.222 206.953 103.091 207.198 103.04 207.465C102.988 207.732 103.02 208.008 103.129 208.256C103.492 209.415 103.653 210.626 103.606 211.839C103.602 212.247 103.537 212.653 103.411 213.042C103.161 213.616 103.072 214.248 103.155 214.869C103.159 215.554 102.982 216.228 102.642 216.824C101.592 219.366 100.021 221.66 98.0294 223.559C95.7538 225.734 93.5654 227.996 91.341 230.212L28.7574 292.773C27.3921 294.152 25.8517 295.346 24.1755 296.325C23.4067 296.77 22.5354 297.026 21.7256 297.394C21.4848 297.502 21.3874 297.702 21.7256 297.876H11.7879C11.5419 297.118 10.7065 296.918 10.2042 296.791C8.72818 296.432 7.60577 295.557 6.45773 294.708C4.20777 293.039 2.68046 290.782 1.48117 288.295C1.33058 288.067 1.23256 287.808 1.19416 287.537C1.24541 286.427 0.34338 285.588 0.358756 284.492C0.233677 284.465 0.106993 284.447 -0.0205078 284.436V280.342C0.127463 280.221 0.238528 280.061 0.30012 279.88C0.361711 279.699 0.371371 279.504 0.328005 279.318C0.64817 277.965 1.06261 276.637 1.5683 275.342C2.367 273.556 3.47772 271.927 4.84842 270.531C28.2876 247.125 51.7216 223.729 75.1506 200.344C76.2672 199.154 77.5538 198.134 78.9688 197.32C79.835 196.849 80.7473 196.552 81.5878 196.102C82.4777 195.662 83.4221 195.341 84.3964 195.15C84.8809 195.026 85.387 195.012 85.8776 195.109C86.7806 195.265 87.7029 195.275 88.6093 195.139C89.139 195.019 89.6889 195.019 90.2186 195.139C91.1258 195.416 91.8177 195.027 92.4224 194.407C93.0272 193.788 93.5961 193.143 94.2111 192.539C96.8916 189.894 99.5823 187.268 102.258 184.617C102.483 184.427 102.663 184.188 102.784 183.919C102.905 183.65 102.963 183.358 102.956 183.063C102.949 182.769 102.875 182.479 102.741 182.217C102.607 181.954 102.415 181.725 102.181 181.546C101.954 181.324 101.75 181.081 101.571 180.82C100.648 179.55 99.7771 178.225 98.8238 177.002C97.6142 175.441 96.6763 173.726 95.559 172.119C94.575 170.707 93.9139 169.079 92.8735 167.687C92.7915 166.193 92.1149 164.893 91.4896 163.593C85.5553 151.148 82.4931 137.533 82.5286 123.75C82.5641 109.967 85.6964 96.3672 91.6947 83.9536C92.1542 83.1166 92.389 82.1751 92.3763 81.2206Z" fill="#FEEDEE"/>
<path d="M157.031 50.0937C157.204 49.8864 157.313 49.6327 157.343 49.3643C157.373 49.0958 157.323 48.8244 157.2 48.584C155.487 44.2516 154.636 39.6277 154.694 34.9704C154.744 34.5152 154.611 34.0588 154.325 33.7012C154.297 33.1091 154.364 32.5164 154.524 31.9458C154.716 31.1623 154.803 30.3568 154.781 29.5506C154.768 28.2275 155.067 26.9199 155.652 25.7327C155.884 25.3491 156.011 24.9115 156.021 24.4634C156.015 24.1424 156.097 23.8258 156.257 23.5473C157.061 22.1399 157.492 20.579 158.271 19.1408C159.095 17.5308 160.025 15.9768 161.054 14.4887C162.639 12.2254 164.537 10.1974 166.692 8.46496C167.891 7.53351 169.039 6.52529 170.279 5.65525C171.479 4.86363 172.721 4.13753 174 3.48015C175.225 2.79948 176.563 2.45658 177.798 1.80149C178.556 1.37539 179.404 1.13181 180.273 1.09011C181.109 1.09011 181.78 0.57832 182.503 0.209833L182.375 0H182.928C183.108 0.291719 183.231 0.291719 183.748 0H268.073C268.257 0.0460609 268.437 0.424783 268.621 0H269.446L269.303 0.204715C269.964 0.662988 270.721 0.9641 271.517 1.08499C272.343 1.11244 273.15 1.33895 273.869 1.74519C275.069 2.45658 276.606 2.43099 277.616 3.5211C279.779 4.25295 281.547 5.66037 283.346 6.98078C284.965 8.16812 286.324 9.66254 287.779 11.0444C290.152 13.3014 291.828 16.0036 293.417 18.7826C294.367 20.6532 295.19 22.5853 295.882 24.5658C296.395 25.9016 296.446 27.3704 296.907 28.7471C297.62 30.8659 297.42 33.1229 297.42 35.3338C297.42 36.4137 297.461 37.4935 297.456 38.5734C297.456 41.378 296.384 43.983 295.851 46.6904C295.769 47.1406 295.565 47.56 295.262 47.9033C295.109 48.0692 295.013 48.2785 294.985 48.5021C294.506 50.0881 293.847 51.6145 293.022 53.0519C292.392 53.9219 291.905 54.8841 291.285 55.7695C290.368 57.1671 289.34 58.4884 288.21 59.7205C286.985 60.9795 285.919 62.438 284.274 63.2415C283.684 64.3982 282.454 64.8486 281.48 65.4883C279.748 66.632 277.924 67.6316 276.027 68.4771C274.279 69.2448 272.44 69.685 270.702 70.4117C270.193 70.6135 269.644 70.6941 269.098 70.6471C268.6 70.5738 268.091 70.6505 267.637 70.8672C267.021 71.164 266.348 71.3262 265.664 71.3431C263.574 71.57 261.472 71.6589 259.37 71.6093C256.628 71.6093 253.886 71.6502 251.139 71.6758C250.114 70.9388 248.925 71.0207 247.746 71.0207C242.307 71.0207 236.872 71.0207 231.443 71.0207C231.033 71.0207 230.623 71.0207 230.213 71.0514C229.803 71.0821 229.906 71.4148 229.89 71.6707C229.342 71.6707 228.793 71.6042 228.25 71.6042H214.668C210.784 71.6042 206.899 71.6042 203.014 71.6042C202.721 71.5744 202.425 71.6044 202.144 71.6924C201.863 71.7803 201.602 71.9244 201.379 72.1159C200.246 73.1958 198.996 74.1631 197.822 75.1867C194.998 77.7098 192.015 80.0538 189.196 82.5871C186.531 84.9874 183.743 87.2393 180.996 89.5577C180.755 89.7572 180.55 90.0694 180.186 89.8852C180.029 89.7865 179.908 89.6387 179.844 89.4648C179.779 89.2909 179.773 89.1005 179.827 88.923C179.863 88.6518 179.961 88.4112 179.986 88.1195C180.068 87.2495 180.642 86.4972 180.694 85.6527C180.748 83.6544 181.172 81.6834 181.944 79.8388C182.04 79.6326 182.068 79.4018 182.026 79.1786C181.842 78.3853 182.124 77.6432 182.226 76.8909C182.364 75.9492 182.739 75.0485 182.739 74.0761C182.892 73.9737 183.092 73.9021 183.184 73.7639C183.769 72.8529 183.728 71.773 183.958 70.7699C183.999 70.5703 183.799 70.4578 183.615 70.4066C183.307 70.3247 182.995 70.2633 182.682 70.1916C177.803 69.1375 173.205 67.054 169.198 64.0809C168.403 63.4101 167.468 62.9257 166.461 62.6632C166.375 62.5566 166.283 62.4558 166.184 62.3613C163.832 60.3602 161.966 57.9241 160.172 55.4317C159.537 54.5499 158.987 53.6089 158.532 52.622C158.117 51.7314 157.614 50.8845 157.031 50.0937ZM211.773 35.4617C211.763 34.2972 211.407 33.1618 210.752 32.1987C210.096 31.2356 209.17 30.4879 208.089 30.0499C207.008 29.612 205.822 29.5034 204.68 29.7379C203.538 29.9724 202.49 30.5394 201.67 31.3675C200.85 32.1956 200.294 33.2476 200.072 34.3908C199.85 35.5341 199.973 36.7174 200.423 37.7914C200.874 38.8655 201.633 39.7822 202.605 40.426C203.577 41.0697 204.718 41.4117 205.884 41.4087C206.664 41.4122 207.437 41.2603 208.157 40.9618C208.877 40.6634 209.531 40.2244 210.079 39.6706C210.628 39.1168 211.06 38.4592 211.351 37.7365C211.642 37.0138 211.785 36.2405 211.773 35.4617ZM219.973 35.5385C219.978 36.7047 220.329 37.8433 220.982 38.8104C221.634 39.7775 222.559 40.5299 223.64 40.9724C224.72 41.415 225.908 41.5279 227.053 41.2969C228.197 41.0659 229.248 40.5014 230.072 39.6746C230.895 38.8479 231.455 37.7959 231.681 36.6516C231.906 35.5073 231.787 34.322 231.338 33.2453C230.889 32.1687 230.131 31.2489 229.159 30.6023C228.187 29.9556 227.045 29.611 225.877 29.612C225.1 29.6106 224.33 29.7633 223.612 30.0613C222.894 30.3593 222.243 30.7966 221.696 31.3479C221.148 31.8991 220.716 32.5534 220.424 33.2728C220.132 33.9922 219.985 34.7623 219.993 35.5385H219.973ZM245.876 41.4087C247.043 41.4157 248.187 41.0772 249.162 40.4358C250.137 39.7944 250.9 38.8789 251.355 37.8048C251.809 36.7308 251.935 35.5464 251.716 34.4011C251.497 33.2558 250.943 32.201 250.124 31.3698C249.305 30.5386 248.258 29.9682 247.115 29.7307C245.972 29.4932 244.784 29.5992 243.701 30.0354C242.618 30.4715 241.689 31.2182 241.03 32.1812C240.372 33.1443 240.014 34.2805 240.002 35.4464C239.995 36.225 240.142 36.9974 240.434 37.7191C240.727 38.4408 241.159 39.0976 241.707 39.6518C242.255 40.2059 242.907 40.6464 243.626 40.9479C244.345 41.2494 245.116 41.406 245.896 41.4087H245.876Z" fill="#FFA8BB"/>
<path d="M266.151 108.668C266.663 107.613 267.273 106.621 267.488 105.454C267.594 105.006 267.766 104.576 268.001 104.179C268.375 103.463 268.513 102.644 268.852 101.943C269.661 100.234 269.943 98.3297 270.902 96.6766C271.26 96.0676 271.224 95.2743 271.532 94.6294C272.414 92.7256 272.977 90.6887 273.792 88.7644C274.53 87.0192 274.894 85.1307 275.894 83.4878C276.191 82.976 276.073 82.3363 276.345 81.7938C277.129 80.2585 277.528 78.4928 278.661 77.1212C279.722 75.8469 280.773 74.5367 282.474 74.0505C282.564 74.0387 282.65 74.0072 282.725 73.9584C283.961 72.6635 285.59 72.8017 287.164 72.7454C287.851 72.7454 288.537 72.7761 289.214 72.7454C290.675 72.6584 291.884 73.1958 293.201 73.8304C294.541 74.4557 295.729 75.3616 296.686 76.4866C297.684 77.5411 298.418 78.8159 298.829 80.2073C299.121 81.3844 299.69 82.4899 299.674 83.7437C299.659 84.9976 299.633 86.3641 298.936 87.577C298.583 88.1912 298.783 89.0202 298.357 89.6549C297.399 91.093 297.501 92.9764 296.379 94.348C296.379 95.9959 295.354 97.3112 294.877 98.8056C294.375 100.446 293.774 102.054 293.078 103.622C292.837 104.133 292.668 104.701 292.453 105.208C291.725 106.948 291.397 108.842 290.454 110.49C290.19 110.802 290.045 111.197 290.044 111.605C290.065 111.741 290.045 111.88 289.988 112.005C289.07 113.724 288.876 115.736 287.81 117.389C287.42 117.998 287.656 118.729 287.297 119.333C286.349 120.828 286.144 122.624 285.314 124.201C284.77 125.224 284.647 126.519 283.991 127.583C283.771 127.947 283.904 128.407 284.504 128.423C284.827 128.423 285.145 128.423 285.467 128.423H323.64C325.362 128.423 325.177 128.551 325.177 126.887C325.177 112.67 325.177 98.4542 325.177 84.2402C325.135 82.6637 325.42 81.0955 326.012 79.6337C326.605 78.1719 327.493 76.8479 328.621 75.7445C329.791 74.6428 331.146 73.7558 332.624 73.1241C333.248 72.8327 333.929 72.6824 334.618 72.684C336.038 72.684 337.457 72.684 338.877 72.684C339.938 72.639 340.978 72.9913 341.793 73.6718C342.142 73.9891 342.547 73.9276 342.88 74.1835C344.666 75.307 346.118 76.889 347.082 78.764C347.287 79.1939 347.303 79.7876 348 79.7876V171.96C347.354 171.909 347.298 172.472 347.108 172.856C346.285 174.504 345.065 175.922 343.556 176.981C342.581 177.611 341.552 178.154 340.481 178.603C339.169 179.228 337.734 179.228 336.33 179.264C334.599 179.252 332.9 178.794 331.399 177.933C329.466 176.995 327.87 175.485 326.828 173.608C326.623 173.209 326.315 172.861 326.1 172.462C325.88 172.113 325.735 171.723 325.674 171.316C325.608 169.734 325.075 168.245 325.106 166.617C325.203 162.011 325.141 157.405 325.136 152.774C325.136 151.31 325.305 151.351 323.747 151.351H267.616C266.748 151.432 265.873 151.32 265.054 151.023C264.485 150.767 263.89 151.049 263.311 150.941C263.068 150.395 263.052 149.775 263.265 149.217C266.026 139.435 267.167 129.268 266.643 119.118C266.535 116.795 266.335 114.471 266.002 112.163C265.826 111.451 265.86 110.703 266.099 110.009C266.304 109.579 265.997 109.118 266.151 108.668Z" fill="#7E0DB5"/>
<path d="M92.8735 167.718C92.9196 169.34 92.3148 170.84 91.792 172.324C91.4322 173.561 90.6671 174.643 89.619 175.395C88.9886 175.809 88.6503 176.526 88.0045 177.007C85.7019 178.692 82.8585 179.471 80.0169 179.197C77.1753 178.922 74.5345 177.612 72.5982 175.517C71.7423 174.571 70.6865 173.66 70.5789 172.222C69.2412 170.328 69.4821 168.127 69.4719 166.019C69.4719 161.581 69.4719 157.149 69.4719 152.712C69.4719 151.397 69.4719 151.392 68.1137 151.392H12.9001C11.6763 151.368 10.4555 151.262 9.24583 151.074C7.96005 150.909 6.71881 150.496 5.59158 149.856C3.78212 148.798 2.29148 147.272 1.27617 145.44C0.973785 144.928 0.722651 144.416 0.440766 143.904C0.426725 143.861 0.402748 143.822 0.370786 143.791C0.338825 143.759 0.29978 143.735 0.256829 143.721C0.213877 143.707 0.168231 143.703 0.123604 143.71C0.0789759 143.717 0.0366266 143.735 0 143.761L0 135.767C0.169131 135.915 0.343387 135.895 0.435641 135.7C0.785883 134.975 1.09892 134.232 1.37355 133.474C1.92707 131.872 2.50621 130.26 3.18274 128.709C3.51075 127.957 3.562 127.123 3.95664 126.437C4.91505 124.784 5.03806 122.798 6.1451 121.191C6.52436 120.644 6.38598 119.794 6.68837 119.118C7.49814 117.271 8.07217 115.321 8.85632 113.489C9.59947 111.749 9.88135 109.83 10.9781 108.233C11.2652 107.808 11.0345 107.255 11.3062 106.81C12.3312 105.152 12.3978 103.084 13.5715 101.467C13.9251 100.981 13.6381 100.203 14.0174 99.6501C15.0014 98.2171 14.8938 96.3184 16.0162 94.9468C16.0675 93.6264 16.6825 92.526 17.3692 91.4461C17.2052 89.7726 18.3943 88.5085 18.8453 87.0294C19.3886 85.3047 19.7935 83.4469 20.8954 81.9115C21.1773 81.5123 20.9825 81.0415 21.1568 80.6116C22.1818 78.1192 23.5348 75.8776 25.8719 74.4701C27.4761 73.4875 29.1623 72.6072 31.1867 72.7557C32.4937 72.8529 33.816 72.7557 35.128 72.8171C35.4847 72.8539 35.8319 72.9544 36.153 73.1139C38.5158 74.1375 40.7247 75.3863 42.0163 77.72C42.9695 79.4345 44.0663 81.1387 43.7383 83.3036C43.6476 84.393 43.6288 85.4872 43.6819 86.579C43.699 86.8081 43.6765 87.0383 43.6153 87.2597C43.0003 88.9077 42.4109 90.571 41.719 92.1882C41.4953 92.717 41.2986 93.2568 41.1296 93.8055C40.5605 95.569 39.8985 97.3013 39.1462 98.995C38.9668 99.3993 38.6695 99.7371 38.7156 100.223C38.726 100.314 38.7118 100.406 38.6746 100.489C37.9264 102.05 37.5881 103.893 36.7219 105.428C36.3478 106.104 36.3478 106.805 36.0608 107.475C35.5483 108.663 35.1383 109.917 34.6206 111.083C33.939 112.619 33.7801 114.4 32.7038 115.792C32.345 116.252 32.6064 116.938 32.3348 117.496C31.853 118.494 31.4789 119.543 31.0689 120.567C30.4846 122.031 30.2283 123.638 29.4237 124.984C28.8035 126.007 28.7574 127.189 28.3371 128.264C28.8018 128.394 29.2873 128.434 29.7671 128.382H67.9292C68.2059 128.382 68.4776 128.382 68.7543 128.382C69.2669 128.407 69.4975 128.162 69.4719 127.645C69.4719 127.281 69.4719 126.913 69.4719 126.55C69.4719 112.614 69.5026 98.6777 69.4719 84.7417C69.4217 82.653 69.8771 80.5831 70.7993 78.7077C71.4566 77.4712 72.3237 76.3578 73.3619 75.417C74.3348 74.617 75.3957 73.9302 76.5241 73.3698C77.319 72.905 78.2273 72.6694 79.1482 72.6891C80.4295 72.6891 81.7108 72.6891 82.987 72.6891C84.1329 72.7012 85.2515 73.0404 86.2107 73.6666C87.0811 74.1244 87.8991 74.6753 88.6503 75.3095C90.2289 76.809 91.7715 78.3034 92.0739 80.6167C92.1431 80.8333 92.2469 81.0372 92.3814 81.2206C92.3977 82.182 92.1628 83.131 91.6998 83.974C87.3747 92.8669 84.5354 102.406 83.2945 112.214C81.0437 129.778 83.8899 147.618 91.4948 163.613C92.1149 164.923 92.7915 166.223 92.8735 167.718Z" fill="#7E0DB5"/>
<path d="M183.748 0C183.236 0.290953 183.108 0.290953 182.928 0H183.748Z" fill="black"/>
<path d="M268.621 0C268.437 0.423668 268.257 0.04594 268.073 0H268.621Z" fill="black"/>
<path d="M182.738 74.0761C179.258 73.3647 175.748 72.8734 172.191 73.16C170.653 73.2777 169.167 73.6717 167.65 73.8969C166.487 74.0709 165.344 74.4087 164.134 74.291C163.818 74.2514 163.498 74.3161 163.222 74.4753C162.283 75.0355 161.234 75.3848 160.147 75.4988C159.448 75.6305 158.769 75.8524 158.127 76.159C157.446 76.4763 156.769 76.9369 155.929 76.7936C155.693 76.7527 155.534 76.9369 155.36 77.1058C155.178 77.3098 154.941 77.4573 154.678 77.5306C153.141 77.7916 151.972 78.8664 150.537 79.3833C149.688 79.779 148.886 80.2664 148.143 80.8368C146.673 81.8092 145.217 82.7867 143.792 83.8307C142.485 84.7878 141.322 85.8779 140.123 86.9577C139.503 87.5881 138.833 88.1666 138.119 88.6876C136.55 89.6293 134.869 90.5095 132.855 89.358C132.081 88.9179 131.154 88.6978 130.615 87.9506C129.437 86.3231 128.627 84.0661 129.703 82.0702C130.533 80.5348 131.722 79.4345 132.896 78.3034C134.307 76.8981 135.852 75.6332 137.509 74.5264C139.103 73.5028 140.43 72.0289 142.321 71.4557C143.049 70.3861 144.325 70.0739 145.355 69.5877C146.667 68.9684 147.79 67.9193 149.338 67.7197C149.891 67.648 150.363 66.9827 150.978 66.8394C152.715 66.43 154.217 65.3552 156.077 65.1761C156.831 65.1044 157.615 64.4084 158.455 64.2856C160.634 63.9683 162.704 63.1903 164.887 62.8781C165.4 62.8065 165.989 63.1392 166.425 62.6581C167.432 62.9205 168.367 63.405 169.162 64.0757C173.169 67.0489 177.767 69.1323 182.646 70.1865C182.959 70.2581 183.272 70.3195 183.579 70.4014C183.764 70.4526 183.963 70.5652 183.922 70.7648C183.692 71.7884 183.733 72.8478 183.149 73.7587C183.092 73.902 182.892 73.9737 182.738 74.0761Z" fill="#FEEDEE"/>
<path d="M211.773 35.4618C211.782 36.6265 211.445 37.7678 210.805 38.7416C210.165 39.7155 209.251 40.4782 208.177 40.9337C207.104 41.3891 205.919 41.5169 204.773 41.3008C203.627 41.0847 202.571 40.5344 201.737 39.7194C200.904 38.9044 200.331 37.8612 200.091 36.7214C199.851 35.5816 199.954 34.3964 200.388 33.3151C200.821 32.2339 201.566 31.3052 202.528 30.6461C203.49 29.9871 204.625 29.6273 205.792 29.6121C206.571 29.5978 207.345 29.7385 208.069 30.0259C208.793 30.3133 209.452 30.7416 210.009 31.2861C210.566 31.8305 211.008 32.4801 211.311 33.197C211.614 33.9139 211.771 34.6837 211.773 35.4618Z" fill="#FEEDEE"/>
<path d="M219.993 35.5385C219.987 34.3726 220.327 33.2309 220.97 32.2578C221.614 31.2846 222.531 30.5235 223.607 30.0706C224.683 29.6177 225.869 29.4932 227.016 29.7129C228.163 29.9325 229.218 30.4865 230.05 31.3049C230.882 32.1233 231.452 33.1694 231.689 34.3112C231.926 35.4529 231.819 36.6391 231.381 37.7201C230.943 38.8011 230.195 39.7283 229.23 40.3848C228.265 41.0413 227.127 41.3976 225.959 41.4087C225.179 41.4223 224.404 41.2805 223.68 40.9914C222.956 40.7023 222.297 40.2718 221.741 39.7251C221.186 39.1785 220.745 38.5266 220.445 37.8077C220.145 37.0888 219.991 36.3174 219.993 35.5385Z" fill="#FEEDEE"/>
<path d="M245.896 41.4086C244.729 41.4016 243.591 41.0497 242.624 40.3975C241.657 39.7453 240.905 38.8218 240.463 37.7436C240.021 36.6653 239.908 35.4805 240.14 34.3385C240.371 33.1965 240.935 32.1484 241.762 31.3263C242.589 30.5042 243.641 29.9449 244.786 29.719C245.93 29.493 247.116 29.6105 248.194 30.0566C249.272 30.5027 250.194 31.2574 250.843 32.2257C251.492 33.1939 251.839 34.3324 251.841 35.4975C251.849 36.278 251.7 37.0522 251.404 37.7745C251.107 38.4968 250.669 39.1526 250.115 39.7033C249.561 40.2541 248.903 40.6886 248.178 40.9815C247.453 41.2744 246.678 41.4196 245.896 41.4086Z" fill="#FEEDEE"/>
<path d="M209.246 125.577C209.246 121.601 209.271 117.629 209.246 113.658C209.196 113.204 209.299 112.746 209.54 112.357C209.78 111.969 210.144 111.672 210.573 111.513C210.876 111.409 211.197 111.367 211.516 111.39C214.397 111.39 217.282 111.339 220.157 111.39C221.283 111.478 222.392 111.71 223.458 112.081C224.548 112.324 225.553 112.854 226.369 113.617C227.133 114.415 228.035 115.096 228.235 116.345C228.363 117.174 228.829 117.916 228.906 118.806C229.046 120.295 228.872 121.796 228.394 123.213C228.128 124.214 227.67 125.154 227.046 125.981C226.537 126.681 225.84 127.222 225.037 127.542C224.498 127.727 224.37 127.972 224.857 128.51C225.703 129.451 226.067 130.705 226.707 131.795C227.348 132.885 228.055 134.124 228.696 135.311C229.378 136.581 229.342 137.092 228.542 138.31C227.548 139.82 225.523 140.296 223.735 139.887C223.598 139.87 223.469 139.817 223.359 139.735C223.249 139.652 223.163 139.542 223.109 139.416C222.971 138.95 222.525 138.71 222.351 138.3C221.772 136.934 220.813 135.741 220.388 134.324C220.234 133.812 219.742 133.561 219.604 133.075C219.24 131.811 218.282 130.838 217.877 129.6C217.59 128.709 216.887 129.211 216.38 129.16C215.873 129.108 215.868 129.59 215.868 129.953C215.868 132.282 215.868 134.61 215.868 136.939C215.868 138.986 214.955 139.851 212.859 139.825C212.495 139.825 212.131 139.861 211.762 139.871C210.035 139.917 209.2 139.058 209.2 137.369C209.225 133.443 209.2 129.513 209.2 125.598L209.246 125.577ZM215.909 120.526C215.909 121.253 215.909 121.984 215.909 122.711C215.909 123.192 216.032 123.504 216.585 123.489C217.907 123.453 219.23 123.423 220.547 123.407C220.726 123.416 220.905 123.373 221.059 123.282C221.214 123.191 221.339 123.057 221.418 122.895C221.783 122.235 221.986 121.498 222.009 120.744C222.032 119.99 221.875 119.242 221.551 118.561C221.431 118.266 221.221 118.016 220.952 117.846C220.683 117.675 220.368 117.592 220.05 117.609C218.917 117.644 217.779 117.655 216.641 117.65C216.129 117.65 215.893 117.839 215.909 118.366C215.929 119.072 215.909 119.799 215.909 120.526Z" fill="#C16DEB"/>
<path d="M142.321 125.618C142.321 121.688 142.321 117.764 142.321 113.847C142.321 111.994 142.911 111.421 144.786 111.416C147.482 111.416 150.188 111.375 152.884 111.416C154.115 111.423 155.334 111.668 156.472 112.138C157.415 112.532 158.399 112.706 159.188 113.468C160.213 114.425 161.187 115.28 161.361 116.82C161.433 117.486 161.874 118.146 161.951 118.868C162.074 120.229 162.13 121.59 161.438 122.854C161.367 122.972 161.318 123.102 161.295 123.238C161.074 125.342 159.834 126.662 158.015 127.548C157.926 127.578 157.847 127.631 157.785 127.701C157.723 127.771 157.68 127.856 157.66 127.947C157.64 128.039 157.643 128.134 157.671 128.223C157.698 128.313 157.747 128.394 157.815 128.459C158.691 129.303 158.886 130.506 159.573 131.483C160.498 132.922 161.328 134.42 162.058 135.966C162.189 136.205 162.26 136.472 162.263 136.744C162.263 137.732 160.633 139.759 159.629 139.815C158.976 139.935 158.314 140.009 157.651 140.035C155.903 139.882 155.493 138.464 154.832 137.282C154.171 136.1 153.545 134.846 152.925 133.617C152.251 132.389 151.644 131.124 151.106 129.83C150.896 129.267 150.665 129.119 150.163 129.124C149.886 129.124 149.614 129.124 149.338 129.124C148.907 129.124 148.63 129.257 148.646 129.743C148.743 132.43 148.4 135.127 148.835 137.794C148.867 137.994 148.854 138.199 148.796 138.394C148.738 138.589 148.638 138.768 148.502 138.919C148.22 139.286 147.826 139.55 147.38 139.672C146.148 140.017 144.845 140.017 143.613 139.672C142.685 139.401 142.285 138.751 142.301 137.707C142.352 133.663 142.321 129.641 142.321 125.618ZM148.641 120.5C148.641 121.227 148.641 121.959 148.641 122.686C148.615 123.289 148.892 123.494 149.455 123.479C150.481 123.479 151.552 123.479 152.602 123.448C154.386 123.371 154.878 122.865 154.945 121.068C154.985 120.479 154.961 119.887 154.873 119.303C154.819 118.829 154.592 118.391 154.236 118.073C153.879 117.755 153.418 117.579 152.941 117.578C151.762 117.578 150.573 117.629 149.394 117.609C148.758 117.609 148.62 117.905 148.641 118.448C148.656 119.144 148.63 119.825 148.63 120.51L148.641 120.5Z" fill="#C16DEB"/>
<path d="M164.754 124.656C164.677 121.401 164.872 117.291 164.672 113.187C164.636 112.409 165.492 111.564 166.45 111.416C166.816 111.39 167.182 111.39 167.547 111.416C170.018 111.416 172.488 111.416 174.958 111.416C176.319 111.433 177.667 111.679 178.946 112.143C179.94 112.486 180.883 112.757 181.636 113.52C182.467 114.364 183.635 114.973 183.615 116.401C184.64 117.824 184.389 119.472 184.327 121.007C184.299 122.925 183.587 124.771 182.318 126.212C181.902 126.753 181.332 127.156 180.683 127.368C179.93 127.568 179.95 127.85 180.35 128.52C181.067 129.723 181.734 130.951 182.364 132.205C182.877 133.228 183.476 134.165 184.04 135.137C184.942 136.673 184.778 137.231 183.604 138.582C182.929 139.352 182.004 139.859 180.991 140.015C180.324 140.163 179.863 139.815 179.284 139.846C178.551 139.892 178.448 139.211 178.151 138.699C176.785 136.376 175.539 133.996 174.415 131.56C174.072 130.823 173.574 130.168 173.226 129.421C172.929 128.791 172.165 129.144 171.611 129.15C171.058 129.155 171.166 129.661 171.166 129.984C171.166 132.497 171.166 135.004 171.166 137.517C171.195 137.819 171.161 138.123 171.064 138.411C170.968 138.698 170.812 138.962 170.606 139.184C170.4 139.407 170.15 139.584 169.871 139.703C169.592 139.823 169.291 139.882 168.987 139.877C168.258 139.915 167.528 139.915 166.799 139.877C165.487 139.8 164.749 138.899 164.749 137.574C164.764 133.541 164.754 129.523 164.754 124.656ZM171.181 120.27C171.181 121.196 171.181 121.974 171.181 122.747C171.181 123.259 171.401 123.489 171.914 123.479C173.016 123.479 174.113 123.479 175.209 123.433C176.527 123.387 177.065 122.947 177.367 121.672C177.564 120.869 177.541 120.028 177.3 119.236C176.87 117.88 176.342 117.511 174.902 117.598C174.579 117.598 174.261 117.598 173.938 117.598C173.082 117.65 171.986 117.235 171.417 117.772C170.75 118.402 171.289 119.538 171.181 120.27Z" fill="#C16DEB"/>
<path d="M196.356 111.421C198.268 111.181 200.031 111.795 201.671 112.506C202.937 113.059 204.28 113.862 204.705 115.444C206.114 116.744 205.914 118.515 205.935 120.137C205.991 123.929 206.002 127.722 205.935 131.509C205.909 132.701 206.078 133.935 205.494 135.091C204.629 136.998 203.101 138.527 201.194 139.395C200.545 139.741 199.811 139.895 199.077 139.841C198.944 139.815 198.806 139.815 198.673 139.841C196.966 140.312 195.254 139.774 193.547 139.871C192.951 139.892 192.358 139.762 191.825 139.493C190.805 139.067 189.878 138.445 189.1 137.66C188.321 136.876 187.706 135.945 187.29 134.922C186.966 134.264 186.856 133.522 186.977 132.799C187.033 132.392 187.044 131.979 187.008 131.57C186.941 127.189 187.131 122.808 186.921 118.428C186.904 117.969 186.983 117.513 187.151 117.087C187.935 115.096 189.124 113.366 191.149 112.527C192.794 111.836 194.511 111.165 196.356 111.421ZM199.467 125.833C199.329 123.893 199.59 121.979 199.308 120.07C199.077 118.535 198.181 117.655 196.602 117.614C196.333 117.568 196.06 117.544 195.787 117.542C195.246 117.575 194.738 117.813 194.367 118.207C193.594 119.103 193.491 120.024 193.517 121.201C193.583 124.615 193.752 128.044 193.424 131.437C193.384 131.709 193.42 131.987 193.527 132.241C193.735 132.687 194.046 133.078 194.433 133.382C194.821 133.686 195.274 133.895 195.758 133.992C196.241 134.089 196.74 134.072 197.215 133.941C197.69 133.81 198.128 133.569 198.493 133.239C198.733 133.046 198.932 132.808 199.077 132.537C199.223 132.266 199.312 131.968 199.339 131.662C199.539 129.718 199.308 127.757 199.467 125.833Z" fill="#C16DEB"/>
<path d="M121.349 125.644C121.349 121.805 121.349 117.967 121.349 114.129C121.349 113.56 121.139 112.89 121.646 112.445C122.289 111.785 123.164 111.401 124.086 111.375C126.377 111.411 128.662 111.375 130.953 111.375C132.968 111.375 134.982 111.375 136.996 111.375C139.01 111.375 140.225 112.91 139.938 114.876C139.697 116.498 138.605 117.772 136.724 117.655C134.218 117.491 131.691 117.609 129.175 117.614C128.022 117.614 128.012 117.614 128.001 118.709C127.991 119.804 128.001 120.812 128.001 121.867C128.001 122.921 128.027 122.89 128.975 122.89C130.21 122.89 131.445 122.89 132.681 122.89C134.454 122.89 135.284 123.786 135.284 125.582C135.284 126.248 135.438 126.913 134.946 127.507C134.675 127.847 134.329 128.12 133.933 128.302C133.538 128.484 133.105 128.571 132.67 128.556C131.481 128.556 130.292 128.556 129.083 128.556C128.006 128.556 127.996 128.556 127.981 129.579C127.965 130.603 128.012 131.775 127.981 132.87C127.95 133.607 128.273 133.807 128.955 133.802C131.517 133.776 134.08 133.802 136.642 133.802C138.247 133.802 139.256 134.375 139.717 135.526C139.962 136.212 140.01 136.952 139.857 137.663C139.704 138.374 139.356 139.029 138.851 139.554C138.708 139.668 138.544 139.752 138.368 139.801C138.192 139.85 138.008 139.864 137.826 139.841C133.067 139.841 128.307 139.841 123.547 139.841C122.097 139.841 121.344 139.134 121.339 137.681C121.339 133.658 121.339 129.636 121.339 125.613L121.349 125.644Z" fill="#C16DEB"/>
<mask id="mask0_226_531" style="mask-type:luminance" maskUnits="userSpaceOnUse" x="173" y="163" width="144" height="218">
<path d="M316.736 163.618H173.744V381H316.736V163.618Z" fill="white"/>
</mask>
<g mask="url(#mask0_226_531)">
<path d="M281.039 281.78C281.342 286.284 279.071 290.368 272.265 291.028C270.751 291.168 269.224 291.04 267.755 290.649L274.454 343.194C274.454 343.194 271.02 344.269 265.331 345.523C266.023 354.96 266.52 364.326 266.402 370.718C266.402 370.718 266.402 370.754 266.402 370.774C266.402 370.979 266.402 371.174 266.402 371.373C266.402 371.573 266.402 371.885 266.402 372.11C266.402 372.54 266.366 372.955 266.345 373.349C266.343 373.386 266.343 373.424 266.345 373.461C266.299 374.239 266.238 374.946 266.161 375.57V375.713C266.125 375.974 266.094 376.225 266.053 376.455C266.053 376.496 266.053 376.542 266.053 376.588C266.007 376.844 265.961 377.075 265.905 377.295C265.907 377.329 265.907 377.363 265.905 377.397C265.859 377.571 265.818 377.725 265.766 377.868L265.715 378.006C265.668 378.134 265.611 378.259 265.546 378.38V378.426C265.295 378.845 264.239 379.245 262.64 379.598C262.184 379.695 261.682 379.792 261.138 379.884C260.329 380.017 259.437 380.145 258.473 380.263C257.192 380.417 255.798 380.555 254.337 380.657C252.559 380.79 250.683 380.887 248.802 380.939C247.726 380.939 246.649 380.974 245.588 380.974C243.995 380.974 242.431 380.923 240.976 380.841C240.243 380.8 239.531 380.749 238.849 380.688C238.393 380.642 237.947 380.596 237.521 380.539C236.666 380.437 235.876 380.314 235.154 380.166L234.641 380.053C234.303 379.971 233.985 379.889 233.688 379.797C233.391 379.705 233.124 379.613 232.873 379.506C232.539 379.373 232.223 379.201 231.93 378.994C231.34 378.574 231.089 378.078 231.269 377.494C231.336 377.271 231.416 377.053 231.51 376.839C231.54 376.768 231.571 376.701 231.607 376.629C231.643 376.558 231.735 376.348 231.807 376.21L231.945 375.974C232.017 375.846 232.089 375.723 232.166 375.606C232.243 375.488 232.273 375.447 232.33 375.365C232.386 375.283 232.489 375.135 232.576 375.022L232.755 374.792C232.847 374.679 232.94 374.572 233.032 374.47C233.098 374.393 233.16 374.316 233.227 374.244L233.539 373.927L233.739 373.727L234.098 373.4L234.282 373.236C234.446 373.093 234.617 372.955 234.795 372.822L234.856 372.77L235.461 372.32L235.63 372.202C235.779 372.1 235.928 371.998 236.081 371.9L236.307 371.757L236.717 371.501L236.963 371.358L237.368 371.128L237.619 370.989L238.029 370.769L238.27 370.647L238.7 370.437L238.921 370.324L239.402 370.104L239.561 370.032L240.14 369.777H240.192C241.825 369.086 243.509 368.523 245.23 368.093L241.483 349.013C237.624 349.285 233.585 349.423 229.444 349.351C228.978 349.351 228.517 349.325 228.055 349.315C227.543 357.56 226.948 365.575 226.328 371.25C226.302 371.471 226.282 371.691 226.256 371.9C226.256 371.967 226.256 372.033 226.231 372.1C226.231 372.305 226.185 372.509 226.164 372.709C226.164 372.76 226.164 372.806 226.164 372.857C226.113 373.287 226.062 373.697 226.005 374.091L225.944 374.557C225.944 374.644 225.944 374.731 225.908 374.818L225.846 375.222L225.8 375.519C225.8 375.636 225.764 375.754 225.749 375.867C225.718 376.056 225.687 376.235 225.657 376.409C225.657 376.496 225.626 376.573 225.611 376.66C225.595 376.747 225.575 376.875 225.554 376.977L225.508 377.203C225.508 377.31 225.467 377.407 225.447 377.504C225.426 377.602 225.421 377.627 225.406 377.689C225.375 377.832 225.339 377.97 225.308 378.098L225.283 378.185C225.257 378.282 225.231 378.38 225.206 378.467L225.17 378.574C225.17 378.651 225.119 378.717 225.093 378.784L225.062 378.866C225.026 378.953 224.99 379.025 224.96 379.086C224.724 379.375 224.4 379.58 224.037 379.669C223.847 379.741 223.627 379.808 223.381 379.874C223.135 379.941 222.869 380.002 222.582 380.063C222.295 380.125 221.972 380.181 221.639 380.232C220.808 380.365 219.845 380.478 218.794 380.575C217.103 380.724 215.171 380.826 213.156 380.867H212.388C210.85 380.867 209.241 380.867 207.647 380.826C207.134 380.826 206.586 380.795 206.053 380.77L204.628 380.698C203.634 380.637 202.655 380.565 201.712 380.478C200.907 380.401 200.128 380.314 199.38 380.217C195.536 379.705 192.497 378.927 191.441 377.791C191.223 377.576 191.082 377.296 191.041 376.993C191.026 376.831 191.043 376.667 191.092 376.512C191.159 376.297 191.236 376.087 191.323 375.877C191.349 375.805 191.385 375.739 191.415 375.667C191.446 375.596 191.543 375.396 191.61 375.263L191.748 375.022C191.815 374.905 191.882 374.787 191.953 374.674L192.117 374.429C192.194 374.321 192.266 374.214 192.348 374.106C192.43 373.999 192.471 373.942 192.533 373.866C192.594 373.789 192.697 373.661 192.784 373.564C192.871 373.466 192.917 373.41 192.989 373.333L193.26 373.042L193.481 372.822L193.778 372.545L194.004 372.341L194.326 372.069L194.557 371.88L194.911 371.609L195.136 371.445C195.264 371.353 195.392 371.261 195.526 371.174L195.731 371.03L196.177 370.744L196.341 370.641C196.525 370.524 196.715 370.411 196.904 370.309L196.961 370.273C197.742 369.808 198.546 369.383 199.37 368.999C201.142 368.223 202.977 367.597 204.854 367.125L203.618 345.799C194.844 343.43 189.878 340.753 189.878 340.753C192.686 321.72 199.231 299.651 205.182 282.061C204.382 282.299 203.565 282.471 202.737 282.573C197.463 283.213 187.961 281.207 189.878 272.47C190.237 270.828 191.221 269.087 192.584 267.353C179.832 261.262 173.744 255.658 173.744 255.658C173.744 255.658 181.944 241.732 187.7 221.66C192.753 204.019 207.062 159.908 260.477 164.033C310.033 167.866 316.736 218.656 316.736 245.284C316.736 264.369 312.488 278.781 281.039 281.78Z" fill="#FBA982"/>
</g>
<path d="M249.858 275.009C249.132 275.836 248.22 276.48 247.197 276.888C246.174 277.296 245.069 277.456 243.972 277.355C242.875 277.254 241.817 276.895 240.886 276.308C239.955 275.72 239.176 274.921 238.613 273.975C238.051 273.029 237.721 271.963 237.65 270.866C237.58 269.768 237.77 268.669 238.207 267.659C238.643 266.649 239.313 265.757 240.162 265.055C241.01 264.353 242.013 263.862 243.088 263.622L243.041 263.519C238.886 263.08 234.793 262.179 230.838 260.832C224.176 270.249 213.505 279.63 205.212 282.046C199.242 299.631 192.707 321.704 189.888 340.738C189.888 340.738 194.86 343.414 203.634 345.784C211.56 347.9 219.706 349.081 227.907 349.305C228.373 349.305 228.829 349.336 229.301 349.341C233.442 349.412 237.501 349.274 241.34 349.003C243.738 348.839 246.07 348.619 248.3 348.363C246.571 348.254 244.945 347.504 243.741 346.261C242.537 345.017 241.84 343.37 241.788 341.641C241.737 339.912 242.333 338.225 243.46 336.912C244.588 335.599 246.165 334.753 247.884 334.54C249.604 334.327 251.34 334.763 252.755 335.761C254.169 336.76 255.16 338.249 255.532 339.939C255.905 341.628 255.633 343.396 254.769 344.895C253.905 346.395 252.512 347.518 250.862 348.046C256.5 347.314 261.431 346.378 265.321 345.523C271.01 344.269 274.443 343.194 274.443 343.194L267.755 290.649C261.256 288.976 255.086 282.624 249.858 275.009ZM206.033 295.537C207.412 295.538 208.76 295.947 209.906 296.713C211.053 297.479 211.946 298.567 212.473 299.84C213 301.113 213.138 302.513 212.868 303.864C212.598 305.215 211.934 306.456 210.958 307.429C209.982 308.403 208.739 309.066 207.386 309.334C206.033 309.602 204.631 309.464 203.357 308.937C202.083 308.409 200.993 307.517 200.227 306.371C199.461 305.226 199.052 303.879 199.052 302.502C199.052 301.587 199.233 300.681 199.583 299.835C199.934 298.99 200.449 298.222 201.097 297.575C201.745 296.928 202.515 296.415 203.362 296.065C204.208 295.716 205.116 295.536 206.033 295.537ZM206.581 340.466C205.202 340.465 203.853 340.056 202.707 339.29C201.561 338.524 200.667 337.436 200.14 336.163C199.613 334.89 199.476 333.49 199.745 332.139C200.015 330.788 200.68 329.548 201.656 328.574C202.631 327.6 203.874 326.937 205.227 326.669C206.58 326.401 207.982 326.539 209.257 327.066C210.531 327.594 211.62 328.486 212.386 329.632C213.152 330.777 213.561 332.124 213.561 333.501C213.561 335.348 212.827 337.12 211.518 338.426C210.21 339.733 208.436 340.466 206.586 340.466H206.581ZM217.39 283.382C217.389 282.003 217.798 280.654 218.564 279.507C219.331 278.36 220.421 277.466 221.697 276.938C222.972 276.409 224.376 276.271 225.731 276.54C227.086 276.809 228.33 277.472 229.306 278.448C230.283 279.423 230.948 280.665 231.217 282.018C231.486 283.371 231.348 284.773 230.819 286.046C230.29 287.32 229.394 288.409 228.245 289.174C227.097 289.94 225.746 290.348 224.365 290.347C223.45 290.347 222.543 290.167 221.697 289.817C220.851 289.467 220.082 288.954 219.435 288.307C218.787 287.66 218.274 286.892 217.924 286.047C217.574 285.202 217.394 284.296 217.395 283.382H217.39ZM229.019 326.735C227.64 326.734 226.291 326.325 225.145 325.559C223.999 324.793 223.105 323.705 222.578 322.432C222.051 321.159 221.914 319.759 222.183 318.408C222.453 317.057 223.118 315.816 224.094 314.843C225.069 313.869 226.312 313.206 227.665 312.938C229.018 312.669 230.42 312.808 231.695 313.335C232.969 313.862 234.058 314.755 234.824 315.901C235.59 317.046 235.999 318.392 235.999 319.77C235.999 321.617 235.265 323.389 233.956 324.695C232.648 326.001 230.874 326.735 229.024 326.735H229.019ZM247.085 304.411C245.706 304.411 244.357 304.002 243.21 303.237C242.063 302.472 241.169 301.384 240.641 300.111C240.113 298.838 239.975 297.438 240.244 296.087C240.513 294.736 241.177 293.494 242.153 292.52C243.128 291.546 244.371 290.883 245.724 290.614C247.077 290.345 248.48 290.483 249.755 291.01C251.029 291.538 252.119 292.43 252.885 293.576C253.652 294.721 254.061 296.068 254.061 297.446C254.061 299.292 253.326 301.063 252.019 302.369C250.712 303.675 248.939 304.41 247.09 304.411H247.085ZM270.482 317.523C270.483 318.902 270.074 320.25 269.308 321.397C268.541 322.544 267.451 323.438 266.176 323.967C264.901 324.495 263.497 324.634 262.143 324.365C260.788 324.097 259.544 323.433 258.567 322.459C257.59 321.484 256.925 320.242 256.655 318.89C256.385 317.538 256.523 316.136 257.052 314.862C257.58 313.588 258.474 312.499 259.623 311.733C260.771 310.967 262.12 310.558 263.501 310.558C264.418 310.557 265.326 310.737 266.173 311.086C267.02 311.436 267.79 311.949 268.439 312.596C269.087 313.242 269.602 314.01 269.954 314.856C270.305 315.701 270.486 316.608 270.487 317.523H270.482ZM261.318 229.306C268.662 229.306 274.643 222.97 275.125 214.976C272.281 210.37 269.231 205.135 266.382 199.658C264.786 198.954 263.062 198.588 261.318 198.584C253.671 198.584 247.48 205.462 247.48 213.937C247.48 222.412 253.697 229.306 261.318 229.306ZM248.73 211.143C248.73 205.186 253.261 200.354 258.853 200.354C264.444 200.354 268.985 205.186 268.985 211.143C268.985 217.1 264.449 221.931 258.853 221.931C253.256 221.931 248.73 217.105 248.73 211.143ZM209.677 202.356C212.516 194.356 220.67 189.945 227.881 192.499C235.092 195.052 238.644 203.609 235.789 211.604C235.538 212.294 235.241 212.968 234.903 213.62C234.407 213.619 233.912 213.681 233.432 213.804C233.326 213.835 233.221 213.871 233.119 213.912C235.076 211.835 236.158 209.086 236.143 206.235C236.143 200.273 231.607 195.446 226.016 195.446C220.424 195.446 215.888 200.273 215.888 206.235C215.888 212.197 220.424 216.998 226.021 216.998C227.652 216.996 229.255 216.579 230.68 215.785L230.598 215.887C229.915 216.868 229.588 218.053 229.67 219.245C229.67 219.372 229.701 219.49 229.716 219.608C226.128 222.075 221.716 222.904 217.59 221.44C210.374 218.902 206.832 210.345 209.677 202.356Z" fill="#FF3C67"/>
<mask id="mask1_226_531" style="mask-type:luminance" maskUnits="userSpaceOnUse" x="190" y="368" width="77" height="13">
<path d="M266.653 368.333H190.8V381H266.653V368.333Z" fill="white"/>
</mask>
<g mask="url(#mask1_226_531)">
<path d="M266.407 370.718C266.407 371.665 266.356 372.54 266.31 373.349C266.312 373.386 266.312 373.424 266.31 373.461C266.263 374.239 266.207 374.94 266.13 375.57V375.713C266.094 375.974 266.058 376.225 266.023 376.455C266.02 376.5 266.02 376.544 266.023 376.588C265.976 376.844 265.925 377.075 265.874 377.295V377.397C265.828 377.571 265.782 377.725 265.736 377.868L265.684 378.006C265.632 378.151 265.566 378.292 265.49 378.426C264.926 379.388 260.129 380.227 254.286 380.662C252.507 380.79 250.632 380.887 248.751 380.939C247.674 380.939 246.598 380.974 245.537 380.974C243.943 380.974 242.38 380.923 240.925 380.841C240.192 380.8 239.479 380.749 238.792 380.688L237.47 380.545C236.614 380.437 235.82 380.314 235.102 380.166L234.59 380.053C234.257 379.971 233.939 379.889 233.642 379.797C233.365 379.714 233.093 379.617 232.827 379.506C232.494 379.372 232.177 379.2 231.884 378.994C231.294 378.569 231.043 378.073 231.223 377.489C231.289 377.264 231.371 377.049 231.458 376.834L231.561 376.624C231.622 376.486 231.689 376.343 231.761 376.205L231.899 375.969C231.966 375.842 232.039 375.719 232.119 375.601L232.278 375.36L232.524 375.017L232.709 374.787C232.796 374.679 232.893 374.567 232.986 374.464C233.078 374.362 233.114 374.316 233.18 374.239L233.488 373.922L233.688 373.722C233.806 373.61 233.929 373.502 234.052 373.395L234.231 373.231C234.4 373.088 234.569 372.95 234.744 372.817L234.805 372.765C235 372.612 235.205 372.463 235.405 372.315L235.579 372.197L236.03 371.895L236.255 371.752L236.665 371.496L236.912 371.353L237.316 371.123L237.568 370.984L237.978 370.764L238.218 370.641L238.649 370.432L238.869 370.319L239.346 370.099L239.51 370.027L240.14 369.751C240.341 370.342 240.692 370.872 241.158 371.289C241.624 371.706 242.189 371.996 242.8 372.131C245.588 372.888 258.453 371.614 266.407 370.718ZM203.982 372.146C201.061 371.808 199.826 370.457 199.37 368.983C198.481 369.37 197.614 369.804 196.771 370.283C196.75 370.292 196.731 370.304 196.715 370.319C196.525 370.421 196.335 370.534 196.151 370.652L195.987 370.754L195.541 371.041L195.331 371.184L194.941 371.455L194.721 371.619L194.367 371.89L194.137 372.08L193.814 372.351L193.588 372.556L193.291 372.832L193.071 373.052L192.799 373.344C192.727 373.42 192.661 373.492 192.594 373.574C192.527 373.656 192.425 373.774 192.343 373.876C192.261 373.978 192.215 374.035 192.158 374.116C192.102 374.198 192 374.326 191.928 374.439L191.764 374.685C191.692 374.797 191.625 374.915 191.554 375.033C191.482 375.15 191.461 375.191 191.42 375.273C191.379 375.355 191.287 375.539 191.226 375.677C191.164 375.816 191.159 375.816 191.133 375.887C191.043 376.094 190.964 376.306 190.898 376.522C190.848 376.677 190.831 376.841 190.846 377.003C191.082 379.27 198.196 380.437 205.858 380.78C206.371 380.806 206.919 380.821 207.447 380.836C209.046 380.887 210.645 380.898 212.188 380.877H212.956C215.006 380.836 216.928 380.734 218.594 380.585C219.65 380.488 220.608 380.376 221.444 380.243C221.777 380.191 222.089 380.13 222.382 380.074C222.674 380.017 222.94 379.951 223.186 379.884C223.432 379.818 223.648 379.751 223.842 379.68C224.204 379.587 224.527 379.383 224.765 379.096C224.796 379.035 224.831 378.963 224.867 378.876L224.898 378.794C224.926 378.726 224.95 378.656 224.97 378.584C224.985 378.55 224.997 378.514 225.006 378.477C225.031 378.39 225.062 378.293 225.088 378.195C225.09 378.166 225.09 378.137 225.088 378.108C225.124 377.98 225.154 377.842 225.19 377.699C225.19 377.638 225.19 377.576 225.226 377.515C225.262 377.453 225.272 377.32 225.293 377.213L225.339 376.988C225.339 376.885 225.375 376.773 225.395 376.67L225.441 376.419C225.472 376.245 225.503 376.066 225.528 375.877C225.528 375.764 225.569 375.647 225.585 375.529L225.631 375.232C225.631 375.099 225.667 374.966 225.687 374.828C225.708 374.69 225.713 374.654 225.723 374.567C225.733 374.48 225.769 374.26 225.79 374.101C225.841 373.707 225.897 373.298 225.949 372.868V372.719C225.974 372.52 226 372.315 226.02 372.11C226.02 372.044 226.02 371.977 226.02 371.911C226.046 371.696 226.072 371.481 226.092 371.261C220.578 371.87 210.086 372.847 203.982 372.146Z" fill="#C86DF3"/>
</g>
<path d="M224.37 276.416C225.75 276.416 227.098 276.825 228.245 277.59C229.393 278.356 230.287 279.443 230.815 280.716C231.343 281.989 231.481 283.389 231.212 284.741C230.942 286.092 230.278 287.333 229.302 288.307C228.327 289.281 227.084 289.945 225.731 290.213C224.378 290.482 222.975 290.344 221.701 289.817C220.426 289.29 219.337 288.397 218.57 287.251C217.804 286.106 217.395 284.759 217.395 283.382C217.395 281.534 218.13 279.763 219.438 278.456C220.746 277.15 222.52 276.416 224.37 276.416ZM247.09 304.411C248.469 304.41 249.818 304.001 250.964 303.235C252.11 302.469 253.004 301.38 253.531 300.108C254.058 298.835 254.195 297.434 253.926 296.084C253.656 294.733 252.991 293.492 252.016 292.519C251.04 291.545 249.797 290.882 248.444 290.614C247.091 290.345 245.689 290.484 244.414 291.011C243.14 291.538 242.051 292.431 241.285 293.576C240.519 294.722 240.11 296.068 240.11 297.446C240.11 298.361 240.29 299.267 240.641 300.112C240.992 300.958 241.506 301.726 242.154 302.373C242.803 303.02 243.572 303.533 244.419 303.882C245.266 304.232 246.174 304.412 247.09 304.411ZM237.644 270.408C237.643 271.824 238.074 273.207 238.88 274.372C239.686 275.538 240.829 276.43 242.155 276.93C243.482 277.431 244.93 277.515 246.306 277.173C247.682 276.83 248.921 276.077 249.858 275.014C247.374 271.356 245.113 267.551 243.087 263.622C241.544 263.969 240.164 264.829 239.175 266.063C238.186 267.296 237.646 268.828 237.644 270.408ZM229.024 312.809C227.644 312.81 226.296 313.22 225.149 313.986C224.003 314.752 223.11 315.841 222.583 317.114C222.056 318.387 221.918 319.788 222.189 321.139C222.459 322.49 223.124 323.73 224.1 324.704C225.076 325.677 226.32 326.34 227.673 326.607C229.026 326.875 230.429 326.736 231.703 326.208C232.977 325.68 234.066 324.786 234.832 323.64C235.597 322.494 236.005 321.147 236.004 319.77C236.004 318.855 235.823 317.949 235.471 317.105C235.12 316.26 234.606 315.492 233.958 314.846C233.309 314.2 232.54 313.687 231.694 313.338C230.847 312.988 229.94 312.809 229.024 312.809ZM250.872 348.046C252.532 347.517 253.933 346.388 254.803 344.881C255.673 343.374 255.947 341.597 255.574 339.898C255.2 338.199 254.205 336.701 252.782 335.697C251.36 334.692 249.614 334.254 247.885 334.468C246.157 334.682 244.571 335.533 243.437 336.854C242.304 338.175 241.705 339.87 241.758 341.609C241.811 343.348 242.512 345.004 243.724 346.253C244.936 347.502 246.571 348.255 248.31 348.363C248.453 348.363 248.597 348.363 248.74 348.363C249.463 348.37 250.183 348.263 250.872 348.046ZM206.586 326.551C205.206 326.552 203.858 326.961 202.712 327.727C201.565 328.493 200.672 329.582 200.145 330.854C199.618 332.127 199.48 333.528 199.75 334.878C200.02 336.229 200.685 337.47 201.66 338.443C202.636 339.417 203.879 340.08 205.232 340.348C206.585 340.617 207.987 340.478 209.261 339.951C210.536 339.424 211.625 338.531 212.391 337.386C213.157 336.24 213.566 334.894 213.566 333.516C213.57 332.599 213.393 331.689 213.044 330.84C212.695 329.991 212.181 329.22 211.532 328.569C210.884 327.919 210.113 327.404 209.264 327.052C208.415 326.7 207.505 326.52 206.586 326.52V326.551ZM206.032 309.462C207.412 309.461 208.76 309.052 209.907 308.286C211.053 307.519 211.946 306.431 212.473 305.158C213.001 303.885 213.138 302.484 212.867 301.133C212.597 299.782 211.932 298.541 210.956 297.568C209.98 296.595 208.736 295.932 207.383 295.664C206.03 295.397 204.627 295.536 203.353 296.064C202.079 296.592 200.99 297.485 200.224 298.631C199.459 299.777 199.051 301.124 199.052 302.502C199.052 303.417 199.234 304.322 199.585 305.167C199.936 306.012 200.45 306.78 201.098 307.426C201.747 308.072 202.516 308.585 203.363 308.934C204.209 309.284 205.116 309.463 206.032 309.462ZM256.526 317.523C256.525 318.902 256.933 320.25 257.7 321.398C258.466 322.545 259.557 323.439 260.832 323.967C262.108 324.495 263.512 324.634 264.867 324.365C266.221 324.096 267.465 323.432 268.442 322.457C269.419 321.482 270.084 320.239 270.353 318.887C270.622 317.534 270.483 316.132 269.954 314.858C269.425 313.584 268.53 312.496 267.381 311.73C266.232 310.965 264.882 310.557 263.501 310.558C261.652 310.56 259.88 311.295 258.573 312.601C257.267 313.907 256.532 315.677 256.531 317.523H256.526Z" fill="#FEEDEE"/>
<mask id="mask2_226_531" style="mask-type:luminance" maskUnits="userSpaceOnUse" x="174" y="162" width="143" height="120">
<path d="M316.993 162.732H174V281.467H316.993V162.732Z" fill="white"/>
</mask>
<g mask="url(#mask2_226_531)">
<path d="M260.498 164.033C207.062 159.908 192.753 204.019 187.72 221.66C181.944 241.732 173.744 255.658 173.744 255.658C173.744 255.658 179.832 261.262 192.594 267.322C198.503 259.727 211.511 251.968 211.511 251.968C211.163 250.719 210.85 249.46 210.553 248.201C210.255 246.942 209.953 245.683 209.697 244.419C209.143 241.911 208.812 239.36 208.708 236.794C208.692 236.176 208.722 235.559 208.8 234.946C208.841 234.4 209.017 233.873 209.312 233.411C209.462 233.247 209.648 233.121 209.856 233.043C210.063 232.965 210.286 232.936 210.507 232.96C211.032 233.016 211.534 233.208 211.962 233.518C212.947 234.231 213.811 235.094 214.525 236.077C215.275 237.077 215.946 238.132 216.534 239.235C216.613 239.387 216.737 239.511 216.889 239.59C217.04 239.67 217.213 239.701 217.383 239.68C217.553 239.659 217.713 239.586 217.84 239.472C217.968 239.358 218.057 239.207 218.097 239.04C218.645 236.824 219.312 234.603 220.075 232.459C220.448 231.397 220.886 230.36 221.387 229.352C221.622 228.872 221.894 228.412 222.202 227.976C222.436 227.616 222.739 227.306 223.094 227.065C223.217 227.019 223.273 226.993 223.299 227.019C223.383 227.032 223.46 227.076 223.514 227.141C223.755 227.437 223.918 227.79 223.986 228.165C224.194 229.212 224.269 230.282 224.206 231.348C224.099 233.61 223.807 235.859 223.335 238.073C223.297 238.33 223.353 238.592 223.492 238.811C223.631 239.03 223.845 239.191 224.094 239.266C224.343 239.34 224.61 239.323 224.847 239.217C225.084 239.11 225.275 238.923 225.385 238.687C225.826 237.587 226.343 236.461 226.887 235.391C227.42 234.319 228.027 233.285 228.701 232.295C229.292 231.366 230.058 230.559 230.956 229.92C231.271 229.69 231.658 229.578 232.048 229.603C232.131 229.608 232.212 229.627 232.289 229.659C232.367 229.676 232.441 229.711 232.504 229.762C232.637 229.838 232.749 229.945 232.832 230.074C233.053 230.467 233.175 230.908 233.186 231.359C233.214 231.913 233.197 232.47 233.134 233.022C232.983 234.203 232.736 235.371 232.396 236.512C231.707 238.855 230.851 241.145 229.834 243.365C229.736 243.585 229.727 243.835 229.81 244.061C229.893 244.287 230.061 244.472 230.279 244.576C230.496 244.681 230.746 244.697 230.974 244.621C231.203 244.544 231.393 244.382 231.504 244.169C232.187 242.85 232.961 241.581 233.821 240.371C234.611 239.183 235.618 238.154 236.789 237.336C237.033 237.155 237.317 237.033 237.617 236.982C237.917 236.93 238.225 236.95 238.516 237.039C238.184 237.371 237.926 237.769 237.757 238.206C237.474 238.944 237.283 239.714 237.188 240.499C237.007 241.99 236.971 243.495 237.081 244.993C237.152 246.047 237.296 247.091 237.46 248.125C237.096 249.056 236.717 249.982 236.307 250.893C235.036 253.681 233.617 256.399 232.058 259.036C233.851 256.535 235.468 253.911 236.896 251.185C237.178 250.673 237.445 250.11 237.711 249.573C237.988 250.96 238.341 252.332 238.736 253.667C239.592 256.475 240.741 259.186 242.165 261.754C240.984 259.109 240.041 256.366 239.346 253.555C238.657 250.749 238.276 247.876 238.208 244.987C238.17 243.569 238.264 242.151 238.49 240.75C238.601 240.087 238.791 239.439 239.054 238.82C239.156 238.58 239.304 238.361 239.49 238.176C239.538 238.134 239.597 238.106 239.66 238.095C239.724 238.084 239.789 238.091 239.848 238.114C240.383 238.35 240.854 238.71 241.222 239.163C241.686 239.678 242.114 240.223 242.503 240.796C243.299 241.973 244.022 243.199 244.666 244.465C244.761 244.653 244.918 244.801 245.112 244.883C245.305 244.966 245.521 244.977 245.722 244.916C245.923 244.855 246.096 244.725 246.21 244.549C246.325 244.373 246.373 244.162 246.347 243.954V243.923C246.023 241.548 245.852 239.155 245.834 236.758C245.822 235.598 245.917 234.44 246.116 233.298C246.207 232.805 246.369 232.327 246.598 231.881C246.644 231.788 246.706 231.732 246.752 231.65C246.798 231.568 246.854 231.533 246.895 231.527C246.936 231.522 247.034 231.481 247.136 231.461C247.477 231.518 247.784 231.701 247.997 231.973C248.347 232.355 248.645 232.782 248.884 233.242C249.406 234.269 249.833 235.341 250.16 236.446C250.86 238.73 251.395 241.061 251.759 243.421C251.804 243.682 251.943 243.917 252.149 244.083C252.355 244.25 252.614 244.335 252.879 244.325C253.143 244.314 253.395 244.208 253.587 244.026C253.779 243.843 253.898 243.598 253.922 243.334C254.093 240.873 254.517 238.436 255.188 236.062C255.48 234.961 255.966 233.922 256.623 232.991C256.859 232.67 257.191 232.431 257.571 232.31C257.745 232.31 257.848 232.28 257.94 232.31C258.082 232.37 258.208 232.461 258.309 232.577C258.636 232.971 258.887 233.422 259.052 233.907C259.262 234.459 259.433 235.025 259.565 235.601C259.83 236.805 260.023 238.024 260.144 239.25C260.379 241.748 260.483 244.255 260.457 246.763V246.799C260.456 246.941 260.491 247.081 260.558 247.206C260.625 247.331 260.722 247.437 260.841 247.516C260.936 247.58 261.042 247.625 261.155 247.648C261.267 247.672 261.383 247.672 261.495 247.65C261.608 247.628 261.715 247.584 261.81 247.521C261.905 247.457 261.987 247.376 262.051 247.28C262.802 246.163 263.631 245.099 264.531 244.097C265.379 243.099 266.374 242.236 267.483 241.538C267.943 241.248 268.477 241.096 269.021 241.098C269.268 241.131 269.504 241.22 269.711 241.359C269.918 241.497 270.09 241.681 270.215 241.896C270.514 242.416 270.69 242.997 270.728 243.595C270.787 244.254 270.787 244.917 270.728 245.576C270.467 248.31 269.929 251.011 269.123 253.637C268.741 254.96 268.325 256.281 267.878 257.598C267.447 258.913 266.991 260.228 266.499 261.528C266.499 261.528 273.07 266.989 277.718 273.3C279.585 275.772 280.727 278.713 281.019 281.795C312.467 278.801 316.716 264.394 316.716 245.305C316.736 218.656 310.033 167.866 260.498 164.033ZM303.6 253.478C295.364 257.782 279.153 255.167 279.153 255.167L279.215 254.978C275.358 257.585 271.153 259.641 266.725 261.083C267.839 258.715 268.835 256.295 269.713 253.821C270.705 251.181 271.419 248.445 271.845 245.658C271.939 244.937 271.967 244.209 271.927 243.483C271.908 242.689 271.702 241.911 271.327 241.21C271.223 241.025 271.095 240.853 270.948 240.699C270.506 240.178 269.891 239.835 269.216 239.731C268.373 239.651 267.525 239.829 266.786 240.243C265.5 240.971 264.337 241.899 263.342 242.991C262.958 243.391 262.599 243.805 262.24 244.225C262.24 242.5 262.194 240.786 262.051 239.056C261.951 237.744 261.771 236.44 261.512 235.151C261.372 234.481 261.187 233.821 260.959 233.175C260.718 232.448 260.344 231.771 259.857 231.179C259.537 230.814 259.135 230.53 258.683 230.35C258.435 230.251 258.172 230.194 257.904 230.181C257.659 230.168 257.413 230.183 257.171 230.227C256.307 230.431 255.538 230.924 254.993 231.625C254.149 232.761 253.524 234.043 253.148 235.407C252.958 236.036 252.794 236.666 252.636 237.295C252.492 236.783 252.343 236.272 252.179 235.76C251.794 234.523 251.294 233.323 250.688 232.177C250.356 231.554 249.942 230.978 249.458 230.463C248.86 229.798 248.024 229.394 247.131 229.337C246.598 229.332 246.077 229.497 245.645 229.808C245.456 229.959 245.284 230.131 245.132 230.32C245.003 230.482 244.885 230.653 244.779 230.831C244.446 231.474 244.217 232.165 244.102 232.879C243.9 234.151 243.817 235.439 243.856 236.727C243.856 237.874 243.948 239 244.051 240.12C243.979 240.018 243.913 239.916 243.836 239.813C243.386 239.191 242.893 238.601 242.36 238.048C242.076 237.755 241.77 237.486 241.442 237.244C241.09 236.966 240.686 236.76 240.253 236.64C240.202 236.569 240.156 236.497 240.099 236.43C239.767 236.019 239.319 235.716 238.813 235.56C238.322 235.415 237.803 235.39 237.301 235.489C236.846 235.593 236.408 235.766 236.004 236C235.362 236.38 234.767 236.833 234.231 237.352C234.257 237.265 234.293 237.178 234.318 237.085C234.713 235.844 235.006 234.572 235.195 233.283C235.286 232.605 235.313 231.919 235.277 231.236C235.249 230.434 235.018 229.652 234.605 228.963C234.352 228.565 234.01 228.231 233.606 227.986C233.412 227.86 233.202 227.762 232.981 227.694C232.764 227.613 232.539 227.558 232.309 227.53C231.446 227.443 230.58 227.654 229.854 228.129C228.693 228.912 227.702 229.92 226.938 231.092C226.697 231.435 226.487 231.783 226.272 232.116C226.272 231.886 226.302 231.66 226.308 231.43C226.371 230.17 226.27 228.907 226.005 227.674C225.845 226.9 225.464 226.189 224.908 225.627C224.545 225.279 224.08 225.055 223.581 224.987C223.073 224.921 222.557 225.026 222.115 225.284C221.493 225.673 220.967 226.198 220.578 226.819C220.221 227.341 219.909 227.893 219.645 228.467C219.121 229.562 218.666 230.688 218.281 231.84C217.738 233.447 217.287 235.059 216.887 236.696C216.529 236.185 216.144 235.647 215.739 235.136C214.892 234.04 213.863 233.098 212.695 232.351C212.044 231.931 211.292 231.693 210.517 231.66C210.103 231.655 209.692 231.737 209.312 231.901C208.898 232.066 208.542 232.349 208.287 232.715C207.888 233.354 207.66 234.086 207.626 234.839C207.569 235.52 207.569 236.205 207.626 236.886C207.895 239.494 208.394 242.073 209.118 244.593C209.353 245.484 209.63 246.364 209.876 247.239C209.102 246.379 208.339 245.499 207.626 244.573C189.345 220.933 205.976 181.111 235.077 170.927C239.941 169.222 247.008 167.969 255.009 168.455C256.274 178.056 260.959 189.32 266.356 199.674C269.205 205.15 272.255 210.38 275.099 214.986C281.398 225.176 286.713 232.31 286.713 232.31L286.764 232.351L286.841 232.121C286.841 232.121 294.119 228.293 300.869 228.242C303.821 228.242 306.67 228.917 308.767 230.98C314.804 236.886 311.837 249.174 303.6 253.478ZM241.857 217.069C240.935 216.706 240.038 216.363 239.131 216.097C238.262 215.815 237.365 215.626 236.455 215.534C235.652 215.438 234.837 215.518 234.067 215.769C233.387 216.049 232.804 216.522 232.391 217.131C231.535 218.334 231.551 219.982 232.181 221.67C232.866 223.428 233.741 225.107 234.79 226.676C233.057 225.62 231.623 224.141 230.623 222.377C230.134 221.531 229.824 220.594 229.711 219.623C229.711 219.506 229.67 219.388 229.665 219.26C229.582 218.068 229.909 216.884 230.592 215.903L230.674 215.8C229.25 216.588 227.648 217 226.021 216.998C220.429 216.998 215.893 212.172 215.893 206.214C215.893 200.257 220.429 195.426 226.021 195.426C231.612 195.426 236.148 200.252 236.148 206.214C236.164 209.066 235.082 211.815 233.124 213.891C233.227 213.855 233.329 213.814 233.437 213.784C233.917 213.661 234.411 213.599 234.908 213.6C235.539 213.597 236.168 213.678 236.778 213.84C237.775 214.117 238.722 214.547 239.587 215.114C240.428 215.661 241.192 216.319 241.857 217.069ZM268.985 211.143C268.985 217.105 264.449 221.931 258.858 221.931C253.266 221.931 248.73 217.105 248.73 211.143C248.73 205.181 253.266 200.354 258.858 200.354C264.449 200.354 268.985 205.186 268.985 211.143ZM221.777 185.16C221.48 183.844 224.457 182.063 228.44 181.178C232.422 180.292 235.861 180.64 236.153 181.956C236.445 183.271 233.473 185.057 229.49 185.943C225.508 186.828 222.069 186.48 221.777 185.16Z" fill="#342D2A"/>
<path d="M228.244 192.276C221.033 189.722 212.879 194.133 210.04 202.133C207.195 210.122 210.737 218.679 217.953 221.217C222.079 222.681 226.492 221.852 230.079 219.385C230.064 219.267 230.033 219.15 230.033 219.022C229.951 217.83 230.278 216.645 230.961 215.664L231.043 215.562C229.619 216.356 228.015 216.773 226.384 216.775C220.787 216.775 216.251 211.974 216.251 206.012C216.251 200.05 220.787 195.224 226.379 195.224C231.97 195.224 236.506 200.05 236.506 206.012C236.522 208.863 235.439 211.612 233.482 213.689C233.585 213.648 233.689 213.612 233.795 213.581C234.275 213.458 234.77 213.396 235.266 213.397C235.605 212.745 235.901 212.071 236.153 211.381C239.007 203.387 235.455 194.829 228.244 192.276Z" fill="white"/>
<path fill-rule="evenodd" clip-rule="evenodd" d="M261.681 229.083C269.025 229.083 275.007 222.747 275.488 214.753C272.644 210.147 269.594 204.912 266.745 199.436C265.15 198.731 263.425 198.365 261.681 198.361C254.034 198.361 247.843 205.239 247.843 213.714C247.843 222.19 254.06 229.083 261.681 229.083ZM259.216 200.132C253.624 200.132 249.094 204.963 249.094 210.92C249.094 216.882 253.619 221.708 259.216 221.708C264.813 221.708 269.348 216.877 269.348 210.92C269.348 204.963 264.807 200.132 259.216 200.132Z" fill="white"/>
</g>
</g>
<defs>
<clipPath id="clip0_226_531">
<rect width="348" height="381" fill="white"/>
</clipPath>
</defs>
</svg>
