<svg width="922" height="716" viewBox="0 0 922 716" fill="none" xmlns="http://www.w3.org/2000/svg">
<g clip-path="url(#clip0_226_377)">
<path d="M306.921 312.592C306.921 312.592 318.864 309.96 330.59 297.826C342.315 285.693 346.703 274.429 357.484 275.766C368.265 277.103 380.701 322.402 384.805 327.825C384.805 327.825 368.925 338.271 367.02 338.463C365.114 338.655 347.58 313.703 347.58 313.703C347.58 313.703 324.773 330.642 311.794 331.126C298.814 331.611 306.921 312.592 306.921 312.592Z" fill="#384F5D"/>
<path d="M306.921 312.592C311.082 311.44 315.05 309.68 318.697 307.369C317.36 312.567 316.114 317.088 319.207 319.787C325.341 327.466 344.522 315.308 344.889 315.609C338.479 320.054 322.057 330.725 311.794 331.118C298.814 331.594 306.921 312.584 306.921 312.584" fill="#1F3340"/>
<path d="M345.717 310.21C345.023 307.938 345.432 305.974 345.717 306.032C346.001 306.091 346.101 307.846 346.753 309.926C347.405 312.007 348.207 313.603 347.931 313.787C347.655 313.971 346.377 312.5 345.7 310.219" fill="#6A7C8A"/>
<path d="M460.574 260.24C460.574 260.24 476.11 259.922 490.494 245.926C504.877 231.929 512.056 222.16 524.993 223.74C537.931 225.319 551.821 277.796 556.61 284.114C556.61 284.114 537.296 296.13 534.964 296.347C532.632 296.565 512.165 267.618 512.165 267.618C512.165 267.618 484.326 287.114 468.706 287.623C453.085 288.133 460.549 260.273 460.549 260.273" fill="#383E3F"/>
<path d="M460.574 260.24C460.574 260.24 468.873 260.048 478.96 254.499C477.723 264.527 474.781 279 489.432 275.49C497.748 272.699 505.036 258.585 511.212 265.354C521.104 274.164 529.591 284.436 536.376 295.812C535.933 296.034 535.464 296.2 534.98 296.306C532.64 296.531 512.181 267.577 512.181 267.577C512.181 267.577 484.342 287.072 468.722 287.582C453.102 288.091 460.565 260.231 460.565 260.231" fill="#1E211F"/>
<path d="M643.478 245.315C643.478 245.315 657.084 244.839 672.42 233.884C687.756 222.929 694.868 211.489 706.393 215.091C717.918 218.692 722.272 270.802 725.615 277.554C725.615 277.554 706.109 285.827 703.953 285.651C701.796 285.476 687.747 254.666 687.747 254.666C687.747 254.666 659.332 268.655 644.991 266.591C630.649 264.527 643.469 245.315 643.469 245.315" fill="#468AC4"/>
<path d="M643.478 245.315C643.478 245.315 657.059 244.839 672.386 233.901C667.514 241.346 649.57 247.43 654.685 259.805C665.082 260.875 681.513 255.435 687.806 246.36C688.299 254.34 693.807 260.282 694.308 268.571C690.823 261.393 687.756 254.674 687.756 254.674C687.756 254.674 659.34 268.663 644.999 266.599C630.657 264.535 643.478 245.324 643.478 245.324" fill="#2C6CA0"/>
<path d="M686.444 250.463C686.135 247.831 686.996 245.758 687.28 245.884C687.564 246.009 687.33 247.939 687.614 250.346C687.898 252.753 688.45 254.666 688.116 254.817C687.781 254.967 686.678 253.095 686.444 250.463Z" fill="#215786"/>
<path d="M339.315 470.066C338.479 469.473 338.37 466.498 339.098 464.217C343.669 464.217 347.806 465.052 350.322 466.983C354.659 470.325 358.211 474.955 356.13 479.968C349.603 480.896 342.549 476.108 339.315 470.091" fill="white"/>
<path d="M315.471 468.963C315.93 469.322 315.362 463.289 322.391 459.771C329.027 456.496 340.334 456.429 350.806 461C361.888 464.576 366.686 478.046 359.816 482.901C353.782 487.263 348.408 486.729 348.592 487.138C348.45 487.054 353.773 488.082 360.426 483.62C368.391 478.347 362.933 463.389 351.358 459.78C340.493 455.092 328.868 455.25 321.923 458.944C314.543 463.022 315.554 469.398 315.454 468.971" fill="#73C5D3"/>
<path d="M138.643 535.513C138.643 535.513 69.501 550.345 25.1812 627.866C25.1812 627.866 56.7892 574.938 151.664 543.117L138.643 535.513Z" fill="#F5D718"/>
<path d="M65.1885 581.221C89.7094 564.902 117.139 548.348 129.7 547.796C128.288 543.434 129.199 545.064 126.708 543C103.349 547.178 80.6749 566.205 65.1885 581.221Z" fill="#F6AD14"/>
<mask id="mask0_226_377" style="mask-type:luminance" maskUnits="userSpaceOnUse" x="0" y="456" width="145" height="260">
<path d="M144.234 456.654H0V715.95H144.234V456.654Z" fill="white"/>
</mask>
<g mask="url(#mask0_226_377)">
<path d="M94.8495 457.206C94.8495 457.206 -18.7206 519.995 2.6913 716C2.6913 716 -10.4801 574.42 143.674 530.491C143.674 530.491 122.697 461.242 94.8495 457.198" fill="#F19C1B"/>
</g>
<path d="M96.4956 474.737C87.1602 481.698 69.7515 496.848 53.5965 522.602C41.2692 542.323 28.3401 570.659 21.395 609.106C45.9661 570.734 81.6025 543.543 126.332 529.479C116.763 503.508 104.444 481.999 96.4956 474.737Z" fill="#EE5B27"/>
<path d="M104.168 483.963C104.168 483.963 20.8937 541.863 17.2749 609.173C17.2749 609.173 60.7924 529.688 116.729 508.58L104.193 483.946" fill="#F5D718"/>
<path d="M102.204 497.893C93.0607 504.895 56.6804 537.167 43.3335 559.779C55.828 545.574 88.7064 517.998 108.062 508.413C104.795 505.004 104.903 500.7 102.212 497.893" fill="#F6AD14"/>
<path d="M733.789 264.577C733.789 264.577 679.122 241.004 509.983 272.632C263.579 318.709 165.637 390.046 157.622 408.53C149.608 427.015 195.014 514.296 224.558 510.569C254.101 506.842 335.236 479.651 501.5 471.838C575.163 468.378 697.166 474.904 710.622 472.765C728.357 469.924 733.789 264.577 733.789 264.577Z" fill="#FFE56A"/>
<path d="M669.478 348.958C653.072 347.212 334.986 354.607 231.913 441.437C370.238 403.55 518.734 380.629 663.636 387.882C664.472 375.08 659.315 362.044 669.487 348.958" fill="#FFF2B3"/>
<path d="M699.674 265.989C667.28 262.187 603.562 261.059 493.16 281.782C418.092 295.879 356.096 311.99 305.751 328.218C279.281 341.542 253.718 356.597 229.229 373.284C375.377 346.017 523.481 307.578 673.732 316.018C675.336 297.751 691.659 270.535 699.64 265.989" fill="#FFF2B3"/>
<path d="M332.061 384.999C332.05 386.932 331.461 388.817 330.369 390.413C329.278 392.008 327.734 393.24 325.937 393.951C324.139 394.662 322.17 394.819 320.282 394.401C318.395 393.984 316.676 393.012 315.345 391.609C303.645 380.052 305.316 356.947 290.223 353.646C279.977 352.635 272.873 347.287 268.903 340.276C284.18 333.959 301.219 327.553 320.017 321.057C313.657 343.569 333.64 363.557 332.094 384.966" fill="#F4BF2C"/>
<path d="M648.258 330.316C647.765 336.9 639.291 337.945 634.402 335.931C614.979 326.246 620.528 296.857 602.902 285.643C593.249 279.986 585.393 272.791 582.786 262.671C582.71 262.237 582.694 261.836 582.644 261.368C609.73 258.142 632.53 256.647 651.543 256.245C626.922 272.59 653.072 306.659 648.258 330.316Z" fill="#F4BF2C"/>
<path d="M710.622 472.723C714.433 472.13 717.684 462.128 720.434 446.819C694.442 451.833 667.414 452.184 641.288 446.819C509.658 422.101 378.863 460.189 250.324 483.495C224.173 488.818 199.084 462.437 195.022 434.635C193.794 404.235 209.498 379.133 230.55 357.532C183.748 380.595 161.283 400.082 157.623 408.505C149.599 427.006 195.014 514.296 224.558 510.569C254.102 506.842 335.236 479.651 501.501 471.838C575.164 468.378 697.167 474.904 710.622 472.765" fill="#F4BF2C"/>
<path d="M484.451 328.878C484.451 332.221 492.809 337.134 494.48 342.09C496.152 356.947 482.78 360.239 472.709 351.983C459.337 340.435 455.994 318.976 439.212 310.72C437.541 310.72 434.198 314.063 432.526 315.675C417.767 318.592 408.214 307.394 404.997 294.526C427.721 288.526 451.748 283.662 477.799 278.649C487.477 291.501 486.792 312.625 484.435 328.862" fill="#F4BF2C"/>
<path d="M706.285 472.782C682.173 469.949 667.924 420.856 674.442 363.131C680.961 305.406 705.817 260.925 729.928 263.766C754.039 266.607 768.297 315.692 761.77 373.426C755.243 431.159 730.446 475.631 706.285 472.782Z" fill="#F4BF2C"/>
<path d="M715.302 472.698C694.183 470.191 682.357 421.474 688.884 363.816C695.411 306.158 717.801 261.418 738.912 263.9C760.023 266.382 894.454 306.517 888.177 388.526C881.717 472.665 736.413 475.205 715.302 472.698Z" fill="#DFA777"/>
<path d="M883.789 376.242C878.215 305.105 760.616 270.117 741.394 267.877C729.919 266.524 718.068 279.785 708.8 301.603C777.106 287.297 828.471 338.889 883.764 376.242" fill="#E7BF9E"/>
<path d="M707.772 420.321C684.63 402.831 687.555 373.284 691.391 346.477C690.397 352.1 689.553 357.9 688.884 363.841C682.357 421.499 694.183 470.25 715.302 472.723C734.123 474.955 851.738 473.175 881.541 413.093C832.123 449.568 756.07 458.651 707.772 420.321Z" fill="#D29253"/>
<path d="M877.839 393.339C871.688 424.315 858.007 447.763 847.259 445.708C836.511 443.652 832.809 416.862 838.96 385.885C845.111 354.908 858.801 331.452 869.54 333.508C880.279 335.563 883.99 362.354 877.839 393.339Z" fill="#3A3A3A"/>
<path d="M873.117 336.123C860.28 330.466 830.702 425.887 849.85 443.209C858.399 450.93 919.894 416.92 921.783 402.915C925.777 373.242 873.117 336.123 873.117 336.123Z" fill="#2B2B2B"/>
<path d="M917.788 398.52L918.013 398.369C921.49 372.598 875.766 340.377 875.766 340.377C872.248 338.822 867.283 346.025 862.662 357.089C885.444 362.88 902.193 380.737 917.821 398.545" fill="#525252"/>
<path d="M921.524 403.082C896.844 418.884 870.267 427.499 843.615 422.987C843.874 432.179 845.73 439.474 849.85 443.209C858.333 450.872 918.858 417.488 921.725 403.274C921.664 403.214 921.609 403.15 921.557 403.082" fill="#111111"/>
<path d="M516.369 128.035C520.84 108.966 517.263 92.571 518.625 92.4456C519.511 92.0278 525.311 108.506 520.522 129.063C518.09 139.241 512.223 147.539 506.59 151.625C501.049 155.87 496.712 156.697 496.561 156.288C495.792 155.452 512.156 147.856 516.369 128.052" fill="#654E2D"/>
<path d="M358.153 184.858C358.345 184.507 358.587 184.164 358.813 183.813C359.352 183.752 359.896 183.752 360.434 183.813C367.664 185.71 377.876 199.247 373.806 209.659C371.374 210.812 366.803 212.793 361.596 202.239C356.063 191.008 358.195 184.866 358.195 184.866" fill="#AC8822"/>
<path d="M485.68 143.319C488.438 142.04 490.953 141.23 493.026 141.48C499.628 142.266 510.075 161.535 507.15 168.889C506.482 170.56 504.576 172.541 502.052 174.571C499.444 161.109 498.074 150.864 485.68 143.319Z" fill="#F4BF2C"/>
<path d="M362.457 179.852C376.163 167.828 410.404 158.903 410.404 158.903C410.404 158.903 456.453 154.198 465.881 152.402C472.333 151.165 479.604 146.11 485.68 143.319C498.074 150.839 501.333 159.964 502.052 174.571C493.619 181.323 479.027 186.044 479.027 186.044C479.411 209.116 503.372 230.049 502.144 235.397C500.915 240.745 490.694 260.641 463.607 264.577C436.521 268.512 402.598 277.771 401.887 277.287C401.177 276.802 396.505 265.813 392.243 243.076C389.679 229.474 389.901 215.494 392.895 201.98C392.895 201.98 385.105 205.021 379.523 207.269C382.03 197.108 372.043 181.365 362.482 179.852" fill="#FFE56A"/>
<path d="M391.775 207.629C421.862 208.005 451.991 199.832 479.069 186.796C479.265 190.733 480.022 194.622 481.317 198.345C454.456 214.723 422.639 220.255 390.613 219.478C390.769 215.509 391.157 211.552 391.775 207.629Z" fill="#F4BF2C"/>
<path d="M455.1 166.34C455.1 166.34 460.566 182.51 440.132 186.395C419.697 190.281 417.441 167.176 417.441 167.176C417.441 167.176 445.021 174.195 455.1 166.34Z" fill="#F4BF2C"/>
<path d="M451.891 165.906C451.891 165.906 456.454 179.393 439.354 182.618C422.255 185.844 420.399 166.574 420.399 166.574C420.399 166.574 443.424 172.424 451.849 165.872" fill="#E3B488"/>
<path d="M470.118 319.369C467.109 311.639 465.638 305.038 466.833 304.612C468.029 304.186 471.405 310.085 474.414 317.806C477.422 325.527 478.885 332.146 477.682 332.58C476.478 333.015 473.11 327.082 470.16 319.369" fill="#654E2D"/>
<path d="M401.068 274.679C401.068 274.679 409.367 277.295 419.923 271.939C425.773 268.98 449.584 253.221 459.362 254.507C469.14 255.794 473.319 277.069 477.13 295.219C480.941 313.369 484 316.854 484 316.854C484 316.854 471.957 327.032 460.599 327.182C460.599 327.182 446.132 308.113 441.209 300.058C441.209 300.058 424.879 305.422 413.287 297.292C401.695 289.161 401.11 274.679 401.11 274.679" fill="#383E3F"/>
<path d="M437.148 295.236C435.117 292.478 433.445 290.222 433.713 290.005C433.98 289.788 436.145 291.676 438.217 294.501C440.29 297.325 441.477 299.899 441.168 300.058C440.858 300.216 439.204 297.968 437.148 295.236Z" fill="#5B7269"/>
<path d="M477.682 332.58C477.682 332.58 500.138 344.989 500.748 348.081C501.358 351.173 484.117 360.707 480.816 358.46C477.514 356.212 477.682 332.555 477.682 332.555" fill="#DDAE2D"/>
<path d="M477.113 178.332C476.102 174.087 474.807 170.811 475.074 170.677C475.342 170.543 477.189 173.719 478.225 178.064C479.261 182.409 479.311 186.028 479.061 186.044C478.81 186.061 478.225 182.56 477.147 178.332" fill="#9D3336"/>
<path d="M396.781 192.972C398.92 188.025 400.266 183.847 400.575 183.922C400.884 183.997 400.015 188.376 397.826 193.398C395.636 198.42 393.129 202.13 392.895 201.98C392.661 201.829 394.675 197.935 396.781 192.972Z" fill="#9D3336"/>
<path d="M363.117 217.422C360.551 217.046 357.267 216.244 355.645 213.244C354.024 210.244 355.261 207.161 356.347 205.281C358.738 201.295 361.73 198.838 364.195 196.749C369.251 192.729 372.862 190.991 373.154 191.409C373.447 191.827 370.488 194.417 366.109 198.804C362.515 202.231 353.146 212.559 363.602 213.503C381.854 213.545 395.628 203.016 396.121 204.645C396.605 204.704 384.479 217.28 363.117 217.422Z" fill="#654E2D"/>
<path d="M507.693 85.5099C509.097 91.7771 513.636 96.1224 517.848 95.2032C522.06 94.284 524.342 88.4764 522.946 82.2175C521.55 75.9587 517.004 71.6051 512.8 72.5242C508.596 73.4434 506.306 79.2093 507.693 85.5099Z" fill="#F4CA9D"/>
<path d="M398.954 193.239C394.006 197.417 392.268 203.4 395.051 206.609C397.834 209.818 404.136 209.116 409.083 204.938C414.031 200.76 415.769 194.768 412.986 191.568C410.203 188.367 403.91 189.061 398.954 193.239Z" fill="#F4CA9D"/>
<path d="M358.813 183.838C359.863 182.376 361.087 181.046 362.457 179.877C374.266 181.958 383.2 196.481 379.498 207.294C376.99 208.297 374.918 209.141 374.199 209.467L373.764 209.676C377.876 199.264 368.75 189.345 360.392 183.83C359.854 183.769 359.31 183.769 358.771 183.83" fill="#F4BF2C"/>
<path d="M370.739 103.158C365.282 137.879 389.385 170.334 424.561 175.724C459.738 181.114 492.717 157.34 498.174 122.654C503.632 87.9666 479.562 55.4773 444.36 50.1377C409.159 44.798 376.205 68.5215 370.739 103.192" fill="#F4CA9D"/>
<path d="M497.782 124.935C497.782 124.935 500.748 113.236 496.11 101.955C496.11 101.955 487.452 103 455.275 95.9552C423.099 88.9109 412.025 67.3433 412.025 67.3433C412.025 67.3433 410.68 102.064 387.939 107.261C387.939 107.261 383.509 117.982 371.224 118.81C358.938 119.637 350.155 110.963 350.263 110.203C350.372 109.442 358.495 111.456 363.585 101.437C368.675 91.4178 363.184 71.6552 373.104 59.6555C383.025 47.6559 401.311 43.319 401.311 43.319L388.775 36.9682C388.775 36.9682 400.475 27.183 406.442 37.9375C406.259 36.2068 406.472 34.4569 407.065 32.8207C407.659 31.1846 408.618 29.7052 409.869 28.4949C411.135 27.2262 412.646 26.2276 414.309 25.5597C415.973 24.8918 417.755 24.5685 419.547 24.6093C419.547 24.6093 413.814 34.8206 415.97 38.4389C415.97 38.4389 432.986 28.0019 456.019 32.8235C494.313 40.8455 498.584 68.4296 505.27 74.7303C515.416 84.3149 517.998 77.2371 520.731 79.744C523.464 82.2509 519.269 91.6935 510.543 92.4205C510.543 92.4205 514.162 114.222 497.782 124.943" fill="#1F1F1F"/>
<path d="M496.787 103.008C496.937 103.008 495.224 96.5903 489.348 91.0835C483.473 85.5767 476.595 84.5489 476.653 84.9249C476.536 85.1422 482.98 86.5209 488.596 91.8606C494.213 97.2003 496.377 103.234 496.787 103.008Z" fill="#72797E"/>
<path d="M445.455 41.5809C445.505 41.8984 449.859 39.7091 457.114 40.9542C464.485 41.9653 473.428 47.2799 478.96 57.2489C485.203 67.0341 495.191 82.1841 501.526 85.1673C505.08 86.8325 508.19 89.3151 510.602 92.4122C510.836 92.4122 508.521 88.0251 501.885 84.4988C495.349 81.1563 486.006 66.2236 479.863 56.5971C474.464 46.72 464.744 40.8957 457.298 40.2021C449.776 39.1241 445.422 41.6394 445.514 41.5809" fill="#72797E"/>
<path d="M388.181 106.869C388.365 106.994 390.747 103.685 392.226 98.9467C393.705 94.2087 393.597 90.1225 393.287 90.1476C392.978 90.1726 392.694 94.05 391.19 98.6376C389.685 103.225 387.847 106.685 388.181 106.869Z" fill="#72797E"/>
<path d="M420.333 49.3021C420.416 49.9539 430.128 44.3636 442.94 46.3774C455.752 48.2492 463.691 55.9287 463.775 55.5693C464.143 55.5693 456.345 47.2883 443.115 45.3329C435.291 44.127 427.287 45.5214 420.333 49.3021Z" fill="#72797E"/>
<path d="M384.938 63.9757C385.432 64.2765 386.61 58.8951 392.134 56.2461C397.667 53.8729 402.899 54.9425 402.874 54.5749C403.032 54.3827 397.717 52.7448 391.675 55.2935C389.94 56.0999 388.423 57.3095 387.252 58.8213C386.08 60.3332 385.287 62.1033 384.938 63.984" fill="#72797E"/>
<path d="M359.999 106.676C359.999 106.843 364.646 105.222 368.006 100.509C371.366 95.7964 371.483 90.9581 371.224 91.0166C370.889 90.9331 370.321 95.4956 367.112 99.891C363.902 104.286 359.782 106.3 359.999 106.676Z" fill="#72797E"/>
<path d="M465.087 134.068C465.087 136.859 469.408 139.182 474.79 139.249C480.172 139.316 484.543 137.068 484.568 134.235C484.593 131.403 480.264 129.113 474.882 129.063C469.5 129.013 465.112 131.235 465.087 134.035" fill="#F3A4A1"/>
<path d="M387.412 130.617C387.253 133.408 391.466 135.915 396.84 136.207C402.213 136.5 406.693 134.461 406.869 131.653C407.044 128.846 402.773 126.355 397.416 126.063C392.059 125.77 387.546 127.809 387.387 130.617" fill="#F3A4A1"/>
<path d="M641.213 296.991C639.709 289.178 639.416 282.668 640.569 282.443C641.723 282.217 643.871 288.392 645.375 296.222C646.879 304.052 647.155 310.553 646.018 310.77C644.882 310.988 642.675 304.821 641.213 296.991Z" fill="#654E2D"/>
<path d="M716.238 88.8106C724.964 69.0981 726.209 51.1321 727.538 51.2908C728.691 51.1822 729.552 69.8334 720.384 90.6322C711.399 112.116 692.871 120.94 692.628 119.411C692.002 118.526 707.881 108.999 716.238 88.8106Z" fill="#654E2D"/>
<path d="M690.121 106.125C692.361 104.312 694.016 103.075 694.902 102.782C699.08 101.42 713.656 116.152 713.656 116.152C712.118 118.325 710.53 120.422 708.925 122.445C704.312 115.701 697.342 110.554 690.121 106.125Z" fill="#FF3C67"/>
<path d="M690.121 106.125C697.342 110.554 704.329 115.701 708.925 122.445C696.986 137.388 682.569 150.169 666.302 160.232C659.783 158.452 650.815 132.422 650.815 132.422C665.257 127.851 681.747 112.86 690.121 106.125Z" fill="#FF9BB1"/>
<path d="M555.9 110.236C549.314 115.551 543.088 121.55 539.394 128.829C553.219 142.127 569.217 152.963 586.697 160.867C592.923 158.26 598.398 131.302 598.398 131.302C583.429 128.62 565.126 115.893 555.933 110.236" fill="#FF9BB1"/>
<path d="M601.74 128.252C601.74 128.252 586.63 149.979 583.889 158.636C581.147 167.293 578.799 210.821 579.066 223.923C579.334 237.026 575.531 240.928 575.531 240.928C575.531 240.928 604.607 251.85 644.355 245.299C684.104 238.747 697.008 219.01 697.008 219.01C697.008 219.01 684.613 215.108 677.108 197.041C669.603 178.975 670.18 161.719 669.436 157.934C668.692 154.148 657.736 139.642 652.487 137.503C647.239 135.364 601.715 128.311 601.715 128.311" fill="#FF3C67"/>
<path d="M649.044 141.681C649.044 141.681 651.609 162.872 631.919 162.471C612.229 162.07 608.426 144.33 608.426 144.33C608.426 144.33 636.466 149.277 649.069 141.681" fill="#FF9BB1"/>
<path d="M645.241 141.764C645.241 141.764 647.322 158.97 631.326 158.652C615.33 158.335 612.221 143.912 612.221 143.912C612.221 143.912 634.995 147.94 645.241 141.764Z" fill="#E3B488"/>
<path d="M569.322 47.5305C569.322 47.5305 570.793 38.9235 558.457 28.7456C546.121 18.5676 517.33 22.6204 523.564 53.4133C529.799 84.2063 523.264 83.262 516.878 79.7273C510.493 76.1926 499.328 66.1483 494.012 72.0896C488.697 78.031 498.107 86.5377 498.107 86.5377C498.107 86.5377 491.672 75.85 498.433 75.4238C505.195 74.9976 512.315 90.5821 524.759 87.1727C537.204 83.7634 538.223 75.6996 537.229 68.0786C536.234 60.4577 541.976 54.0234 549.523 55.6612C557.07 57.299 561.014 59.2962 563.731 57.8672C566.447 56.4383 569.322 47.5305 569.322 47.5305Z" fill="#E47C1B"/>
<path d="M530.86 34.4111C529.565 34.0184 540.054 25.3278 553.141 31.194C566.171 36.4417 568.812 48.667 568.185 48.3076C567.734 48.8424 564.341 37.6701 552.381 32.9822C548.947 31.4333 545.184 30.7534 541.425 31.0026C537.666 31.2518 534.026 32.4224 530.827 34.4111" fill="#F4BF2C"/>
<path d="M510.034 81.9501C510.209 81.4153 514.029 85.6436 521.784 85.1422C525.336 84.6576 530.602 83.0866 530.551 77.8723C530.961 72.9588 529.657 67.3434 529.816 61.2683C529.264 55.2435 533.293 48.8258 539.21 47.798C544.809 46.8203 549.431 46.9039 553.275 48.266C561.048 50.9232 563.923 55.5276 563.731 55.5276C563.513 55.8367 560.304 51.7338 552.866 49.5612C546.698 47.7562 530.468 47.539 531.772 61.3101C531.596 67.101 532.866 72.6914 532.323 78.0227C532.181 84.2815 525.495 86.379 521.876 86.4709C513.36 86.5879 509.842 81.7162 510.025 81.9167" fill="#F4BF2C"/>
<path d="M677.192 30.325C677.192 30.325 690.363 35.7732 694.116 48.9595C697.868 62.1457 699.247 87.6407 688.14 98.3201C677.033 108.999 662.976 32.4558 677.192 30.325Z" fill="#D7811D"/>
<path d="M563.68 74.3208C558.507 110.027 582.902 143.001 618.179 147.956C653.456 152.912 686.235 127.993 691.416 92.2951C696.598 56.5971 672.194 23.6315 636.909 18.6512C601.623 13.6709 568.853 38.6227 563.68 74.3208Z" fill="#F4CA9D"/>
<path d="M662.004 115.409C662.138 118.116 666.392 120.088 671.465 119.829C676.538 119.57 680.549 117.138 680.399 114.431C680.249 111.723 676.011 109.743 670.938 110.027C665.865 110.311 661.854 112.693 662.004 115.409Z" fill="#F3A4A1"/>
<path d="M591.895 113.618C591.987 116.317 596.2 118.373 601.273 118.197C606.346 118.022 610.424 115.69 610.307 112.975C610.19 110.259 606.028 108.211 600.93 108.395C595.832 108.579 591.795 110.902 591.895 113.618Z" fill="#F3A4A1"/>
<path d="M661.171 16.2362C660.335 2.36479 637.059 1.30355 637.059 1.30355C637.059 1.30355 585.318 -11.8158 558.173 45.1239C547.935 66.5996 552.807 81.2314 558.173 99.6152C564.19 115.083 570.55 119.512 576.852 123.915C575.021 118.283 568.971 106.158 574.344 88.9693C584.298 57.0065 612.839 63.1401 612.839 63.1401C681.153 74.9893 682.658 38.9068 682.658 38.9068C685.04 17.1805 661.204 16.278 661.204 16.278" fill="#F09121"/>
<path d="M633.767 63.0983C633.173 62.0621 648.208 60.1652 660.243 48.3076C672.27 34.9376 662.441 19.7709 663.469 20.4561C663.168 18.9771 674.635 34.7621 661.664 49.5611C654.041 56.9061 644.286 61.6456 633.8 63.0983" fill="#F4BF2C"/>
<path d="M561.14 44.8733C560.814 45.3078 571.002 25.4199 595.581 16.5538C619.701 7.69619 640.887 12.4843 640.503 12.8353C640.67 13.4787 619.734 9.63485 596.208 18.3087C572.347 26.8404 561.708 45.7424 561.106 44.8733" fill="#F4BF2C"/>
<path d="M588.276 59.4382C588.118 59.4967 590.207 55.0428 596.851 51.8089C603.286 48.4664 612.981 46.2771 623.177 42.7925C644.071 35.3805 648.032 14.6485 648.843 15.9521C648.96 14.8324 646.002 36.4417 623.771 44.564C613.441 48.082 603.713 50.0374 597.403 52.9955C590.917 55.7698 588.586 59.6805 588.209 59.4382" fill="#F4BF2C"/>
<path d="M587.015 45.4498C586.538 45.032 595.096 37.0935 607.908 30.9934C620.503 24.6343 631.435 21.1999 631.602 21.6762C631.769 22.1525 621.23 26.3641 608.769 32.6563C596.141 38.7063 587.332 45.7423 587.04 45.4498" fill="#F4BF2C"/>
<path d="M719.255 41.8733C719.406 48.5583 723.434 53.9314 728.265 53.8311C733.095 53.7309 736.898 48.2241 736.764 41.5223C736.631 34.8206 732.586 29.4642 727.763 29.5645C722.941 29.6648 719.122 35.1632 719.255 41.8733Z" fill="#F4CA9D"/>
<path d="M521.508 61.3853C522.837 61.1597 524.968 79.0421 534.671 98.3034C537.352 103.887 540.774 109.084 544.842 113.754C543.735 114.488 542.682 115.3 541.692 116.186C537.163 111.531 533.425 106.169 530.626 100.309C520.422 79.9864 520.338 61.3268 521.508 61.3853Z" fill="#654E2D"/>
<path d="M529.322 51.5667C529.523 58.2517 525.762 63.8087 520.965 63.9591C516.168 64.1095 512.056 58.7782 511.855 52.0681C511.655 45.358 515.416 39.8261 520.213 39.6924C525.01 39.5587 529.122 44.865 529.322 51.5667Z" fill="#F4CA9D"/>
<path d="M555.899 110.236C553.442 108.724 551.637 107.729 550.718 107.545C546.389 106.71 533.877 123.18 533.877 123.18C535.694 125.152 537.532 127.035 539.393 128.829C543.087 121.551 549.314 115.551 555.899 110.236Z" fill="#FF3C67"/>
<path d="M585.736 243.711C585.736 243.711 597.436 246.218 603.036 243.795C608.635 241.371 633.023 230.826 641.723 233.642C650.423 236.458 650.858 257.315 651.443 275.198C652.028 293.08 654.267 296.865 654.267 296.865C654.267 296.865 641.673 304.578 631.259 302.865C631.259 302.865 621.113 282.401 617.887 273.944C617.887 273.944 602.158 276.392 592.882 266.774C583.605 257.156 585.702 243.711 585.702 243.711" fill="#468AC4"/>
<path d="M615.02 268.713C613.608 265.763 612.438 263.365 612.722 263.19C613.006 263.014 614.669 265.187 616.107 268.203C617.544 271.22 618.221 273.861 617.92 273.953C617.62 274.044 616.458 271.655 615.02 268.721" fill="#215786"/>
<path d="M646.035 310.77C646.035 310.77 664.497 326.221 664.564 329.246C664.631 332.271 647.414 338.538 644.765 335.873C642.116 333.207 646.035 310.804 646.035 310.804" fill="#FF3C67"/>
<path d="M646.679 310.127C650.59 310.804 654.902 310.394 657.669 308.673C660.352 306.6 654.944 304.353 653.03 305.33C650.229 306.111 647.759 307.783 645.993 310.093C645.726 310.169 647.113 306.241 652.763 304.311C654.142 304.002 655.981 303.692 657.585 304.695C659.332 304.887 660.928 308.43 658.513 309.709C655.061 311.915 650.74 312.216 646.394 311.547C642.349 310.712 638.104 310.035 635.212 311.455C633.733 312.065 633.599 314.021 633.908 315.032C634.393 315.809 636.274 315.375 637.419 314.982C642.492 313.068 645.35 311.021 645.484 311.272C645.559 311.364 642.976 313.703 637.778 315.968C636.533 316.244 634.711 317.53 632.83 315.675C632.387 314.732 632.313 313.656 632.622 312.66C632.931 311.665 633.602 310.821 634.502 310.294C638.263 308.405 642.617 309.291 646.704 310.077" fill="#E9CDEA"/>
<path d="M641.02 189.345C641.02 189.345 650.389 181.398 648.258 173.468C646.378 166.482 638.931 171.956 639.015 176.209C639.015 176.209 635.621 168.83 629.663 173.426C623.704 178.022 636.064 190.331 641.02 189.378" fill="#FF9BB1"/>
<path d="M640.551 481.596C629.369 477.485 610.205 470.449 612.135 459.786C614.633 458.93 617.222 458.369 619.849 458.115C632.018 456.828 644.847 466.547 651.34 476.883C650.17 480.694 646.134 482.833 640.476 481.638" fill="white"/>
<path d="M137.188 415.458C137.188 415.458 90.5118 446.209 90.5118 457.239C90.5118 468.27 77.6078 521.315 148.764 546.86C148.764 546.86 152.148 547.203 159.628 543.81C169.657 539.231 191.604 528.301 204.5 520.413C204.5 520.413 142.972 411.514 137.197 415.441" fill="#FF3C67"/>
<path d="M168.454 517.254C145.814 499.138 142.011 462.103 153.059 434.527C173.117 464.843 204.492 520.396 204.492 520.396C191.596 528.268 169.683 539.198 159.62 543.794C152.174 547.186 148.755 546.844 148.755 546.844C132.809 541.12 121.1 534.025 112.5 526.329C132.291 530.975 150.945 526.02 168.421 517.271" fill="#9D233E"/>
<path d="M134.088 425.627C134.088 425.627 134.606 448.24 136.152 453.078C136.152 453.078 100.557 475.949 97.7074 484.832C97.7074 484.832 93.5286 463.732 95.6347 455.585C95.6347 455.585 128.914 426.864 134.079 425.594" fill="#EB8198"/>
<path d="M233.642 356.02C233.642 356.02 211.144 436.908 275.146 499.99C275.146 499.99 225.895 508.99 197.012 527.8C197.012 527.8 137.188 510.009 137.188 415.458C137.188 415.458 166.097 385.024 233.642 356.02Z" fill="#7E0DB5"/>
<path d="M275.146 499.99C275.146 499.99 225.895 508.99 197.011 527.8C197.011 527.8 188.93 525.385 178.717 517.664C201.984 500.115 231.536 489.093 259.526 482.116C264.275 488.458 269.497 494.433 275.146 499.99Z" fill="#370B4C"/>
<path d="M212.373 380.712C211.144 387.807 209.966 394.918 211.127 402.013C188.445 409.575 167.25 424.742 152.349 443.978C150.31 436.579 149.364 428.921 149.541 421.249C167.016 402.113 188.362 388.208 212.373 380.712Z" fill="#B841F1"/>
<path d="M160.949 396.004C172.053 388.155 183.612 380.97 195.566 374.487C194.955 394.718 197.421 456.312 244.741 507.477C235.531 510.166 226.479 513.372 217.629 517.079C200.446 503.951 162.303 466.941 160.94 396.004" fill="#5F1882"/>
<path d="M244.75 507.477C235.539 510.166 226.488 513.372 217.638 517.079C212.104 512.826 206.922 508.134 202.143 503.048C211.464 498.262 221.103 494.125 230.993 490.664C235.235 496.549 239.829 502.172 244.75 507.502" fill="#68198E"/>
<path d="M195.691 387.122C196 393.934 196.661 400.725 197.672 407.469C185.58 413.289 174.477 420.97 164.768 430.232C163.32 423.336 162.285 416.36 161.667 409.341C171.886 400.346 183.344 392.866 195.691 387.13" fill="#9B9A9D"/>
<path d="M415 40.8706C414.607 32.74 424.085 27.8014 430.319 25.2109C434.896 23.4444 439.107 20.8465 442.739 17.5482C444.912 15.4842 446.349 12.2503 448.539 10.4537C450.787 16.98 446.759 23.9491 442.346 28.6454C439.412 31.7623 432.317 34.57 433.654 39.684L415 40.8623" fill="#1F1F1F"/>
<path d="M345.274 162.655C349.72 143.837 347.839 127.776 349.043 127.692C350.037 127.408 353.882 143.745 349.235 163.624C344.864 184.047 329.954 194.818 329.486 193.506C328.776 192.83 341.187 181.866 345.274 162.688" fill="#654E2D"/>
<path d="M340.844 157.424C341.719 156.058 342.665 154.739 343.677 153.472C345.123 153.187 349.962 152.636 355.144 157.842C354.709 159.63 354.233 161.377 353.757 163.106C350.414 159.697 345.55 158.017 340.844 157.424Z" fill="#C0F9FF"/>
<path d="M323.995 164.861C323.995 164.861 327.062 155.861 329.971 156.58C330.881 156.864 331.722 157.334 332.441 157.96C333.161 158.585 333.742 159.353 334.15 160.215C334.15 160.215 340.109 154.934 341.872 161.368C341.872 161.368 355.72 161.861 349.544 171.546C349.544 171.546 358.821 179.526 349.168 182.685C349.168 182.685 350.664 185.192 345.123 186.671C345.123 186.671 347.63 194.192 344.672 194.493C341.713 194.793 339.574 192.153 339.574 192.153C339.574 192.153 339.841 197.066 335.738 196.74C334.612 196.7 333.522 196.336 332.598 195.691C331.674 195.046 330.957 194.148 330.531 193.105C330.531 193.105 324.096 194.869 322.332 189.437C320.569 184.005 324.004 164.861 324.004 164.861" fill="#3D1A2A"/>
<path d="M340.844 157.424C345.55 158.017 350.414 159.697 353.757 163.106C341.103 207.988 312.947 233.734 312.947 233.734C306.888 233.207 294.652 211.673 294.652 211.673C313.875 203.242 332.437 170.167 340.844 157.424Z" fill="#2FDFF2"/>
<path d="M340.15 120.715C341.371 126.614 345.817 130.701 350.071 129.832C354.325 128.963 356.757 123.489 355.528 117.59C354.3 111.69 349.853 107.621 345.599 108.473C341.345 109.325 338.913 114.824 340.15 120.715Z" fill="#BE8F7F"/>
<path d="M250.667 215.918C250.667 215.918 240.922 237.511 239.936 245.625C238.949 253.739 244.114 292.537 246.505 304.043C248.895 315.55 246.187 319.636 246.187 319.636C246.187 319.636 273.675 324.608 307.69 312.425C341.705 300.241 349.803 280.771 349.803 280.771C349.803 280.771 338.212 279.317 328.592 264.577C318.973 249.836 316.658 234.494 315.379 231.227C314.1 227.959 302.007 216.954 296.992 215.91C291.978 214.865 250.642 215.951 250.642 215.951" fill="#2FDFF2"/>
<path d="M293.223 219.344C293.223 219.344 296.967 237.611 280.687 240.235C264.407 242.859 260.178 227.6 260.178 227.6C260.178 227.6 283.997 227.466 293.198 219.336" fill="#9A6D5B"/>
<path d="M281.79 250.806C281.912 251.649 282.284 252.437 282.859 253.066C283.434 253.696 284.185 254.138 285.015 254.336C285.844 254.533 286.714 254.477 287.511 254.174C288.308 253.872 288.995 253.337 289.485 252.638C289.974 251.94 290.242 251.111 290.254 250.259C290.266 249.406 290.022 248.57 289.553 247.858C289.084 247.146 288.412 246.592 287.624 246.266C286.836 245.941 285.968 245.86 285.133 246.034C284.599 246.126 284.089 246.322 283.632 246.612C283.174 246.902 282.778 247.28 282.468 247.724C282.157 248.167 281.937 248.668 281.821 249.197C281.704 249.726 281.694 250.273 281.79 250.806Z" fill="white"/>
<path d="M241.983 220.965C227.739 223.287 213.706 226.755 200.02 231.335C178.541 238.664 175.834 245.541 175.783 248.884C175.733 252.226 186.723 261.543 209.982 260.908L209.264 250.279C209.264 250.279 234.336 249.276 241.415 247.095C248.494 244.914 250.533 220.355 241.992 220.957" fill="#2FDFF2"/>
<path d="M203.831 242.249C200.321 241.898 197.48 241.413 197.513 241.02C197.546 240.628 200.438 240.536 203.973 240.895C207.509 241.254 210.325 242.031 210.258 242.399C210.191 242.767 207.333 242.575 203.831 242.249Z" fill="#286A72"/>
<path d="M229.581 250.538C229.798 251.165 222.895 253.321 212.406 253.705C212.406 252.519 212.582 251.332 212.548 250.288C222.636 250.588 229.497 249.769 229.581 250.538Z" fill="#654E2D"/>
<path d="M236.258 241.497C230.333 242.976 226.405 247.538 227.466 251.691C228.528 255.844 234.194 258 240.119 256.521C246.045 255.042 249.981 250.48 248.911 246.335C247.842 242.19 242.184 240.018 236.258 241.497Z" fill="#BE8F7F"/>
<path d="M210.701 242.182C210.701 242.182 220.22 241.99 221.206 242.525C222.193 243.059 217.295 245.433 216.911 252.552C216.526 259.672 217.746 260.181 217.044 261.059C216.342 261.936 209.088 262.062 207.492 261.059C205.895 260.056 205.285 243.903 210.701 242.19" fill="#C0F9FF"/>
<path d="M205.645 195.153C205.645 195.153 199.243 189.596 197.287 191.442C196.714 192.072 196.277 192.814 196.004 193.621C195.73 194.427 195.627 195.282 195.699 196.13C195.699 196.13 188.746 194.727 190.267 200.476C190.267 200.476 179.82 207.052 188.93 211.748C188.93 211.748 185.361 222.052 194.212 220.155C194.212 220.155 194.212 222.753 199.117 221.416C199.117 221.416 200.597 228.327 202.97 227.266C205.344 226.205 205.845 223.188 205.845 223.188C205.845 223.188 207.843 227.082 210.86 224.993C211.708 224.458 212.382 223.688 212.802 222.778C213.222 221.867 213.369 220.854 213.225 219.862C213.225 219.862 218.975 218.325 217.905 213.361C216.835 208.397 205.603 195.186 205.603 195.186" fill="#3D1A2A"/>
<path d="M198.223 197.919C197.702 196.956 197.415 195.883 197.386 194.788C197.357 193.693 197.586 192.607 198.056 191.618C196.604 191.677 195.169 191.284 193.95 190.492C192.732 189.7 191.789 188.549 191.253 187.198C190.717 185.848 190.614 184.364 190.959 182.952C191.303 181.54 192.078 180.27 193.175 179.318C192.015 178.875 190.993 178.131 190.215 177.163C189.437 176.195 188.93 175.036 188.748 173.808C188.566 172.579 188.715 171.324 189.178 170.172C189.642 169.019 190.404 168.011 191.387 167.251C190.046 166.859 188.853 166.077 187.958 165.005C187.063 163.932 186.508 162.618 186.363 161.229C186.218 159.84 186.489 158.44 187.143 157.205C187.796 155.971 188.802 154.959 190.033 154.299C190.611 153.999 191.226 153.78 191.863 153.647C191.398 153.191 191.001 152.671 190.685 152.101C189.797 150.455 189.598 148.524 190.133 146.732C190.667 144.94 191.89 143.433 193.535 142.542C194.245 142.177 195.01 141.932 195.8 141.815C195.472 141.432 195.191 141.011 194.964 140.561C194.521 139.748 194.244 138.856 194.148 137.935C194.051 137.014 194.138 136.084 194.403 135.197C194.668 134.31 195.106 133.484 195.691 132.767C196.276 132.05 196.998 131.455 197.814 131.018C198.708 130.539 199.694 130.255 200.705 130.183C200.655 128.932 200.942 127.691 201.535 126.59C202.129 125.488 203.008 124.567 204.081 123.922C205.153 123.277 206.379 122.932 207.631 122.923C208.882 122.915 210.113 123.243 211.194 123.874C211.194 123.874 211.194 123.823 211.194 123.798C210.484 122.448 210.234 120.903 210.481 119.397C210.728 117.892 211.459 116.508 212.564 115.455C213.668 114.401 215.085 113.737 216.601 113.561C218.117 113.386 219.648 113.708 220.964 114.481C220.412 113.105 220.311 111.589 220.677 110.152C221.043 108.715 221.856 107.431 222.999 106.486C224.142 105.541 225.556 104.984 227.037 104.895C228.517 104.806 229.987 105.19 231.235 105.991C231.365 104.754 231.821 103.574 232.556 102.571C233.29 101.567 234.278 100.776 235.418 100.279C236.558 99.7811 237.809 99.5944 239.045 99.7376C240.28 99.8809 241.456 100.349 242.451 101.094C242.477 99.8227 242.849 98.5823 243.528 97.5064C244.206 96.4306 245.165 95.56 246.302 94.9885C247.438 94.4169 248.709 94.166 249.977 94.2628C251.245 94.3595 252.463 94.8002 253.5 95.5374C254.201 94.5861 255.132 93.8275 256.205 93.3321C257.278 92.8368 258.459 92.6207 259.639 92.7041C260.818 92.7875 261.957 93.1676 262.949 93.809C263.942 94.4505 264.757 95.3325 265.317 96.373C265.317 96.373 265.317 96.4399 265.367 96.4733C267.112 95.8483 269.033 95.9415 270.708 96.7324C271.323 95.8832 272.116 95.1787 273.031 94.6683C274.622 93.814 276.48 93.603 278.222 94.0788C279.964 94.5547 281.456 95.681 282.392 97.2254C283.836 96.8348 285.368 96.916 286.763 97.4572C288.158 97.9984 289.344 98.9711 290.148 100.234C290.735 99.4852 291.472 98.8675 292.312 98.4203C293.573 97.7286 295.016 97.441 296.446 97.5963C297.877 97.7516 299.224 98.3424 300.307 99.2887C301.391 100.235 302.157 101.491 302.503 102.887C302.849 104.283 302.757 105.752 302.241 107.094C303.336 107.115 304.411 107.393 305.379 107.906C306.347 108.419 307.18 109.153 307.811 110.048C308.443 110.943 308.855 111.974 309.014 113.058C309.173 114.142 309.074 115.247 308.726 116.286C309.977 115.945 311.298 115.958 312.541 116.323C313.785 116.689 314.903 117.393 315.769 118.357C316.636 119.32 317.218 120.506 317.45 121.781C317.682 123.056 317.555 124.371 317.084 125.578C318.37 125.384 319.686 125.55 320.884 126.059C322.081 126.568 323.114 127.4 323.867 128.461C324.62 129.522 325.064 130.771 325.148 132.07C325.233 133.368 324.955 134.665 324.346 135.815C326.132 136.361 327.632 137.585 328.525 139.224C329.045 140.193 329.329 141.271 329.354 142.37C329.378 143.469 329.143 144.559 328.667 145.55C329.623 145.775 330.521 146.201 331.3 146.799C332.079 147.396 332.723 148.153 333.189 149.018C333.975 150.463 334.228 152.14 333.902 153.753C333.577 155.366 332.694 156.814 331.409 157.842C332.447 158.495 333.295 159.41 333.867 160.494C334.44 161.579 334.717 162.795 334.67 164.02C334.623 165.246 334.255 166.437 333.602 167.475C332.949 168.513 332.034 169.361 330.949 169.933C331.856 170.662 332.569 171.604 333.024 172.675C333.478 173.747 333.66 174.914 333.553 176.072C333.446 177.231 333.054 178.345 332.412 179.316C331.769 180.286 330.896 181.082 329.871 181.632C330.313 182.446 330.59 183.339 330.686 184.26C330.781 185.181 330.694 186.111 330.428 186.998C330.162 187.885 329.724 188.711 329.138 189.428C328.551 190.145 327.829 190.739 327.012 191.175C326.446 191.48 325.838 191.7 325.207 191.827C325.463 192.92 325.453 194.058 325.177 195.146C324.901 196.234 324.369 197.24 323.623 198.079C322.878 198.918 321.942 199.566 320.894 199.969C319.847 200.371 318.717 200.517 317.602 200.392C317.658 201.72 317.336 203.037 316.673 204.19C316.01 205.342 315.033 206.282 313.856 206.901C312.679 207.52 311.351 207.792 310.026 207.686C308.7 207.58 307.432 207.099 306.369 206.3C306.342 207.777 305.848 209.207 304.958 210.386C304.068 211.565 302.827 212.432 301.414 212.862C300.001 213.293 298.488 213.265 297.091 212.782C295.695 212.3 294.487 211.388 293.641 210.177C293.574 211.537 293.112 212.847 292.313 213.948C291.513 215.05 290.411 215.895 289.139 216.38C287.868 216.866 286.482 216.971 285.152 216.682C283.822 216.394 282.604 215.725 281.648 214.757C281.495 216.032 280.995 217.24 280.201 218.249C279.407 219.259 278.35 220.03 277.147 220.479C275.944 220.928 274.64 221.037 273.379 220.794C272.118 220.551 270.948 219.965 269.998 219.102C269.504 219.605 268.941 220.036 268.326 220.38C266.911 221.145 265.277 221.402 263.695 221.109C262.114 220.815 260.681 219.989 259.634 218.768C258.991 220.024 257.975 221.051 256.726 221.709C255.466 222.391 254.027 222.672 252.603 222.512C251.179 222.352 249.838 221.76 248.761 220.815C248.088 221.818 247.166 222.628 246.086 223.168C245.005 223.708 243.803 223.958 242.597 223.894C241.391 223.83 240.222 223.454 239.205 222.803C238.187 222.152 237.356 221.248 236.793 220.18C236.751 220.088 236.718 219.988 236.676 219.887C236.013 220.906 235.095 221.735 234.013 222.291C232.931 222.847 231.724 223.111 230.509 223.058C229.293 223.005 228.113 222.636 227.084 221.988C226.056 221.339 225.214 220.434 224.641 219.361C224.583 219.244 224.549 219.11 224.483 219.002C223.972 219.554 223.377 220.022 222.719 220.389C221.47 221.069 220.044 221.354 218.63 221.206C217.215 221.058 215.879 220.484 214.798 219.56C213.717 218.636 212.943 217.405 212.577 216.031C212.211 214.657 212.271 213.204 212.749 211.865C211.429 212.138 210.059 212.025 208.802 211.54C207.546 211.054 206.455 210.217 205.662 209.129C204.868 208.04 204.405 206.746 204.328 205.401C204.251 204.056 204.563 202.717 205.227 201.545C203.835 201.696 202.43 201.429 201.19 200.779C199.95 200.129 198.932 199.124 198.265 197.894" fill="#3D1A2A"/>
<path d="M209.046 185.777C210.551 196.534 215.211 206.603 222.44 214.711C229.668 222.819 239.139 228.601 249.654 231.326C260.17 234.052 271.257 233.598 281.515 230.022C291.772 226.446 300.738 219.909 307.279 211.238C313.821 202.566 317.643 192.15 318.262 181.306C318.882 170.462 316.271 159.678 310.76 150.318C305.25 140.958 297.086 133.443 287.303 128.722C277.52 124.002 266.556 122.288 255.798 123.798C241.379 125.82 228.354 133.486 219.587 145.108C210.82 156.731 207.028 171.36 209.046 185.777Z" fill="#BE8F7F"/>
<path d="M257.971 174.699C259.451 180.654 258.541 186.436 254.891 190.573C245.007 183.643 234.918 191.376 232.093 193.876C228.6 191.476 226.18 187.573 225.016 182.888C222.68 173.486 228.163 164.03 237.263 161.769C246.364 159.508 255.635 165.297 257.971 174.699ZM285.049 149.896C277.398 151.797 272.753 160.011 274.078 168.749C274.171 169.365 274.431 170.533 274.586 171.154C275.163 173.479 275.879 175.072 276.986 176.941C278.198 178.986 279.716 180.698 281.506 181.975C282.91 180.48 292.274 171.207 301.959 178.592C304.935 174.586 305.545 169.018 304.108 163.235C301.772 153.833 293.239 147.861 285.049 149.896ZM270.443 200.095C266.328 199.773 263.706 195.923 259.261 197.281C259.271 197.304 260.939 204.214 270.525 205.323C278.157 206.206 281.553 201.32 282.447 200.005C279.327 197.952 276.184 200.545 270.443 200.095Z" fill="#FDFDFD"/>
<mask id="mask1_226_377" style="mask-type:luminance" maskUnits="userSpaceOnUse" x="217" y="136" width="99" height="90">
<path d="M217.163 156.28L298.594 136.046L315.867 205.561L234.435 225.795L217.163 156.28Z" fill="white"/>
</mask>
<g mask="url(#mask1_226_377)">
<path d="M234.574 155.453C234.216 154.941 234.342 154.236 234.854 153.878C239.494 150.644 243.653 152.555 243.826 152.638C244.392 152.906 244.632 153.581 244.364 154.145C244.213 154.465 243.932 154.68 243.614 154.759C243.371 154.82 243.108 154.8 242.863 154.687C242.73 154.626 239.673 153.276 236.149 155.734C235.634 156.092 234.93 155.967 234.574 155.453ZM236.99 160.67C227.299 163.078 221.434 173.168 223.917 183.16C224.067 183.767 224.681 184.136 225.288 183.985C225.302 183.982 225.313 183.971 225.327 183.967C226.585 188.166 228.897 191.642 232.121 193.852C234.412 191.829 241.307 186.518 249.02 188.012C250.502 184.91 250.703 181.149 249.744 177.29C247.78 169.385 240.208 164.463 232.833 166.296C231.785 166.556 230.808 166.955 229.891 167.443C231.887 165.261 234.49 163.623 237.535 162.867C246.015 160.76 254.69 166.19 256.872 174.972C257.022 175.578 257.636 175.948 258.243 175.797C258.85 175.646 259.22 175.032 259.069 174.426C256.586 164.434 246.681 158.262 236.99 160.67ZM276.341 145.237C276.561 145.182 276.769 145.06 276.928 144.875C277.021 144.767 279.232 142.259 283.465 143.011C284.077 143.122 284.667 142.71 284.777 142.096C284.886 141.48 284.477 140.892 283.86 140.783C278.295 139.793 275.319 143.27 275.195 143.419C274.797 143.896 274.86 144.603 275.336 145.004C275.623 145.249 275.999 145.322 276.341 145.237ZM284.774 148.797C276.606 150.826 271.527 159.476 272.958 168.918C273.052 169.535 273.63 169.96 274.247 169.867C274.262 169.865 274.273 169.855 274.288 169.852C274.39 170.331 274.502 170.82 274.585 171.154C275.163 173.479 275.879 175.072 276.986 176.941C278.197 178.987 279.722 180.692 281.514 181.965C282.635 180.775 288.581 174.89 295.739 175.88C296.794 172.942 296.824 169.435 295.925 165.815C293.961 157.91 286.988 152.84 280.35 154.489C279.817 154.621 279.311 154.807 278.817 155.015C280.53 153.062 282.743 151.634 285.32 150.993C292.892 149.112 300.827 154.726 303.009 163.508C303.16 164.114 303.773 164.484 304.38 164.333C304.988 164.182 305.357 163.568 305.206 162.962C302.723 152.97 293.557 146.615 284.774 148.797ZM284.696 202.46C283.671 200.844 282.166 199.82 282.447 200.005C281.553 201.32 278.601 204.421 270.968 203.538C261.474 202.44 259.313 197.407 259.265 197.29C259.103 197.34 258.947 197.379 258.779 197.442C257.903 197.776 256.944 198.317 255.876 199.126C249.005 204.331 257.082 218.638 270.675 216.438C284.13 214.262 287.196 206.399 284.696 202.46Z" fill="black"/>
</g>
<path d="M278.663 196.961C278.057 197.111 277.443 196.743 277.292 196.135C277.142 195.528 277.511 194.915 278.118 194.764C278.34 194.708 283.592 193.323 282.519 189.006C281.404 184.519 274.475 185.173 274.406 185.18C273.783 185.243 273.228 184.79 273.164 184.169C273.101 183.547 273.557 182.994 274.176 182.928C274.54 182.891 283.133 182.089 284.716 188.46C286.012 193.673 281.323 196.3 278.663 196.961ZM253.435 203.437C252.695 209.672 259.972 218.17 270.675 216.438C272.327 216.171 273.821 215.816 275.169 215.395C268.184 201.021 253.5 203.426 253.435 203.437Z" fill="#C95C3F"/>
<path d="M210.191 192.128C207.567 194.367 202.502 195.019 202.009 194.083C201.507 193.122 201.273 192.044 201.332 190.962C201.391 189.88 201.74 188.833 202.343 187.933C201.993 187.55 201.69 187.126 201.441 186.671C200.898 185.649 200.662 184.491 200.761 183.338C200.861 182.184 201.291 181.084 202.001 180.17C201.544 179.722 201.156 179.209 200.847 178.649C200.241 177.513 200.019 176.211 200.215 174.938C200.411 173.665 201.014 172.489 201.934 171.588C201.552 171.191 201.22 170.747 200.948 170.268C200.216 168.897 200.048 167.295 200.48 165.803C200.913 164.31 201.911 163.046 203.263 162.279C202.907 160.989 203 159.616 203.525 158.386C204.05 157.155 204.977 156.138 206.154 155.502C206.655 155.257 207.186 155.083 207.734 154.984C207.155 153.629 207.102 152.106 207.588 150.715C208.073 149.324 209.062 148.164 210.358 147.463C211.109 147.075 211.937 146.858 212.782 146.828C212.682 146.669 212.565 146.519 212.473 146.36C211.728 144.973 211.562 143.348 212.014 141.84C212.465 140.331 213.495 139.063 214.88 138.313C216.014 137.719 217.317 137.53 218.574 137.778C218.027 136.432 217.995 134.932 218.483 133.563C218.972 132.195 219.947 131.054 221.223 130.358C221.998 129.968 222.85 129.755 223.717 129.735C224.584 129.715 225.445 129.888 226.238 130.241C226.136 129.138 226.354 128.028 226.866 127.046C227.377 126.063 228.161 125.248 229.123 124.698C230.085 124.149 231.185 123.887 232.292 123.946C233.398 124.004 234.465 124.379 235.364 125.027C235.839 123.66 236.816 122.525 238.097 121.851C239.234 121.268 240.532 121.073 241.79 121.296C243.049 121.519 244.2 122.149 245.067 123.088C244.973 121.898 245.249 120.708 245.858 119.681C246.467 118.654 247.379 117.841 248.468 117.353C249.558 116.865 250.772 116.726 251.944 116.955C253.115 117.185 254.187 117.771 255.012 118.634C255.445 118.149 255.96 117.745 256.534 117.439C257.777 116.811 259.202 116.642 260.558 116.961C261.915 117.281 263.114 118.069 263.947 119.186C264.475 118.255 265.262 117.498 266.212 117.005C267.616 116.293 269.246 116.166 270.743 116.653C272.241 117.14 273.485 118.201 274.201 119.603C274.201 119.687 274.26 119.779 274.302 119.863C274.802 119.192 275.447 118.643 276.19 118.258C276.886 117.905 277.644 117.692 278.421 117.632C279.199 117.572 279.98 117.665 280.722 117.908C281.463 118.15 282.149 118.536 282.741 119.043C283.333 119.551 283.819 120.17 284.172 120.865C284.255 121.024 284.305 121.2 284.381 121.375C284.772 120.967 285.226 120.626 285.726 120.364C287.129 119.656 288.755 119.532 290.248 120.021C291.741 120.51 292.979 121.571 293.691 122.971C294.099 123.746 294.327 124.603 294.36 125.478C295.306 125.11 296.331 124.987 297.338 125.122C298.345 125.257 299.302 125.644 300.118 126.248C300.935 126.852 301.586 127.653 302.01 128.576C302.433 129.499 302.616 130.515 302.542 131.528C303.828 131.247 305.17 131.399 306.361 131.96C307.552 132.52 308.524 133.458 309.127 134.628C309.504 135.348 309.732 136.136 309.798 136.946C309.864 137.755 309.767 138.57 309.512 139.341C310.779 139.103 312.089 139.279 313.248 139.843C314.407 140.408 315.353 141.33 315.947 142.475C316.377 143.3 316.611 144.213 316.631 145.143C316.651 146.074 316.457 146.996 316.064 147.839C317.087 147.962 318.062 148.344 318.897 148.947C319.732 149.55 320.4 150.356 320.838 151.289C321.276 152.221 321.47 153.25 321.4 154.278C321.331 155.306 321.002 156.299 320.443 157.165C321.202 157.406 321.906 157.794 322.514 158.307C323.122 158.821 323.622 159.449 323.987 160.157C324.494 161.105 324.735 162.173 324.683 163.247C324.632 164.321 324.29 165.361 323.694 166.257C325.174 166.725 315.788 168.596 316.925 166.842C315.471 166.382 313.757 165.488 313.164 163.917C312.479 162.095 312.763 161.226 313.916 159.488C313.095 159.224 312.338 158.789 311.697 158.211C311.056 157.634 310.544 156.927 310.196 156.138C309.848 155.348 309.671 154.494 309.677 153.631C309.683 152.768 309.872 151.916 310.23 151.132C309.248 151.019 308.308 150.666 307.494 150.105C306.679 149.544 306.015 148.792 305.559 147.915C305.183 147.192 304.954 146.401 304.887 145.589C304.819 144.777 304.914 143.96 305.166 143.185C303.902 143.431 302.591 143.26 301.433 142.698C300.274 142.136 299.328 141.213 298.739 140.068C298.216 139.053 297.985 137.914 298.07 136.776C297.221 136.947 296.345 136.934 295.501 136.737C294.658 136.541 293.866 136.165 293.181 135.635C292.495 135.106 291.931 134.435 291.528 133.669C291.124 132.903 290.89 132.058 290.841 131.194C289.464 131.752 287.928 131.774 286.536 131.256C285.144 130.737 283.996 129.717 283.319 128.394C283.236 128.227 283.177 128.043 283.102 127.885C282.716 128.286 282.274 128.63 281.79 128.904C280.382 129.61 278.753 129.732 277.256 129.242C275.759 128.752 274.517 127.69 273.8 126.289C273.758 126.197 273.733 126.113 273.7 126.029C273.193 126.689 272.548 127.231 271.811 127.617C270.571 128.263 269.141 128.443 267.78 128.126C266.419 127.809 265.216 127.015 264.39 125.887C263.853 126.822 263.062 127.584 262.108 128.085C260.993 128.652 259.726 128.846 258.493 128.64C257.26 128.434 256.125 127.838 255.255 126.94C254.82 127.424 254.309 127.833 253.742 128.152C252.603 128.734 251.305 128.926 250.046 128.7C248.787 128.473 247.637 127.841 246.772 126.899C246.866 128 246.64 129.105 246.123 130.082C245.605 131.059 244.817 131.866 243.853 132.407C242.888 132.948 241.789 133.201 240.685 133.133C239.581 133.066 238.52 132.683 237.629 132.029C237.167 133.405 236.191 134.549 234.904 135.221C234.132 135.619 233.281 135.838 232.412 135.861C231.544 135.884 230.682 135.711 229.89 135.355C229.976 136.242 229.853 137.137 229.533 137.969C229.213 138.801 228.704 139.547 228.045 140.148C227.387 140.748 226.597 141.188 225.74 141.431C224.882 141.674 223.979 141.713 223.104 141.547C223.664 142.89 223.704 144.393 223.216 145.763C222.727 147.134 221.746 148.273 220.463 148.959C219.71 149.35 218.878 149.564 218.03 149.586C218.14 149.738 218.241 149.897 218.331 150.062C218.703 150.747 218.936 151.499 219.018 152.275C219.099 153.05 219.026 153.834 218.804 154.581C218.582 155.328 218.215 156.025 217.724 156.63C217.233 157.235 216.627 157.738 215.941 158.109C215.439 158.364 214.901 158.539 214.345 158.627C214.933 159.961 215.002 161.466 214.538 162.848C214.074 164.23 213.111 165.389 211.838 166.098C212.112 167.116 212.112 168.188 211.836 169.206C211.559 170.223 211.018 171.149 210.266 171.889C210.656 172.277 210.981 172.726 211.227 173.217C211.778 174.237 212.019 175.395 211.921 176.55C211.823 177.705 211.39 178.806 210.676 179.719C211.137 180.16 211.524 180.674 211.821 181.239C212.33 182.197 212.57 183.274 212.516 184.357C212.461 185.44 212.114 186.488 211.512 187.39C211.629 187.532 211.812 190.732 210.199 192.128" fill="#3D1A2A"/>
<path d="M292.053 181.699C292.546 183.989 296.449 185.1 300.787 184.206C305.124 183.312 308.233 180.663 307.732 178.357C307.23 176.05 303.352 174.964 299.006 175.85C294.66 176.736 291.568 179.384 292.053 181.699Z" fill="#BE6B81"/>
<path d="M229.084 196.772C229.711 199.028 233.68 199.889 237.959 198.694C242.238 197.499 245.164 194.717 244.554 192.46C243.943 190.204 239.94 189.343 235.678 190.538C231.416 191.733 228.457 194.516 229.084 196.772Z" fill="#BE6B81"/>
<path d="M197.73 171.772C198.181 171.429 196.577 169.842 196.501 167.368C196.159 164.903 196.995 162.847 196.627 162.722C196.46 162.588 195.072 164.61 195.423 167.46C195.453 168.307 195.676 169.136 196.076 169.884C196.476 170.631 197.042 171.277 197.73 171.772Z" fill="#6C5C6A"/>
<path d="M201.098 148.825C201.458 148.658 200.104 146.385 201.466 143.686C202.828 140.987 204.584 139.316 204.375 139.082C204.166 138.848 201.918 140.269 200.463 143.26C198.9 146.486 200.99 149.11 201.098 148.842" fill="#6C5C6A"/>
<path d="M316.399 146.151C316.399 146.377 319.056 144.773 319.014 141.305C318.78 138.021 316.825 136.09 316.658 136.291C316.491 136.492 317.769 138.556 317.936 141.305C318.104 144.054 316.089 145.834 316.399 146.118" fill="#6C5C6A"/>
<path d="M330.723 167.711C330.573 168.062 332.863 166.633 332.303 164.368C332.102 162.196 331.15 160.725 330.891 160.85C330.631 160.976 331.058 162.521 331.225 164.435C331.643 166.441 330.389 167.293 330.723 167.778" fill="#6C5C6A"/>
<path d="M268.644 114.556C268.451 114.748 271.151 115.392 273.006 113.111C274.602 110.871 274.469 108.632 274.193 108.64C273.917 108.648 273.491 110.587 272.162 112.442C270.833 114.297 268.618 114.155 268.644 114.556Z" fill="#6C5C6A"/>
<path d="M239.409 118.166C239.869 118.083 238.247 115.484 240.838 113.629C243.045 111.799 245.485 111.038 245.368 110.721C245.251 110.403 242.668 110.721 240.119 112.827C236.952 115.242 239.409 118.676 239.409 118.166Z" fill="#6C5C6A"/>
<path d="M218.307 132.213C218.307 132.038 218.031 128.603 222.761 127.843C226.681 126.807 230.091 126.64 230.074 126.314C230.057 125.988 226.631 125.704 222.477 126.807C217.228 127.467 217.462 132.723 218.298 132.213" fill="#6C5C6A"/>
<path d="M203.856 191.593C204.224 191.342 202.636 189.704 202.611 187.457C202.586 185.209 204.533 183.797 204.282 183.554C204.282 183.295 201.7 184.323 201.541 187.423C201.658 190.431 203.856 191.743 203.873 191.601" fill="#6C5C6A"/>
<path d="M302.884 125.729C302.976 125.386 298.522 127.283 298.229 122.177C297.661 118.15 298.229 114.657 297.87 114.657C297.511 114.657 296.55 117.999 297.168 122.386C297.628 128.419 303.854 126.08 302.884 125.729Z" fill="#6C5C6A"/>
<path d="M316.256 166.608C316.256 166.608 319.708 158.987 324.346 162.204C328.525 165.078 329.068 179.109 318.02 180.68L316.256 166.608Z" fill="#BE8F7F"/>
<path d="M211.202 192.571C211.202 192.571 204.6 187.44 202.009 192.454C199.703 196.924 205.72 209.609 216.217 205.824L211.202 192.546" fill="#BE8F7F"/>
<path d="M313.49 358.577C310.874 351.892 309.528 346.209 310.506 345.833C311.484 345.457 314.409 350.563 317.033 357.231C319.658 363.9 320.987 369.599 320.009 369.975C319.031 370.351 316.114 365.245 313.49 358.577Z" fill="#654E2D"/>
<path d="M255.665 320.447C255.665 320.447 266.446 320.798 270.959 317.748C275.472 314.698 295.296 301.47 303.436 302.548C311.576 303.626 315.429 321.984 318.906 337.644C322.383 353.304 324.99 356.329 324.99 356.329C324.99 356.329 315.145 365.17 305.667 365.362C305.667 365.362 293.323 348.925 289.095 341.964C289.095 341.964 275.622 346.652 265.827 339.658C256.032 332.664 255.665 320.438 255.665 320.438" fill="#384F5D"/>
<path d="M285.676 337.82C283.93 335.438 282.509 333.516 282.726 333.316C282.943 333.115 284.765 334.761 286.554 337.193C288.342 339.625 289.345 341.847 289.061 341.981C288.777 342.115 287.39 340.184 285.643 337.803" fill="#6A7C8A"/>
<path d="M320.009 369.975C320.009 369.975 338.88 380.646 339.44 383.345C340 386.044 325.826 394.308 323.051 392.386C320.276 390.464 320.009 370.008 320.009 370.008" fill="#26B9C9"/>
<path d="M320.493 369.348C324.062 369.306 327.798 368.253 329.946 366.289C331.985 364.025 326.828 362.905 325.324 364.117C322.973 365.244 321.062 367.119 319.892 369.448C319.666 369.565 320.234 365.863 324.906 363.256C325.56 362.9 326.278 362.679 327.019 362.604C327.759 362.529 328.507 362.603 329.219 362.822C330.798 362.705 332.821 365.571 330.89 367.108C328.207 369.615 324.438 370.585 320.493 370.676C316.783 370.585 312.922 370.676 310.607 372.406C309.403 373.183 309.604 374.913 310.038 375.749C310.607 376.35 312.178 375.665 313.139 375.13C317.318 372.623 319.482 370.351 319.641 370.559C319.725 370.635 317.844 373.108 313.624 375.949C312.562 376.392 311.158 377.829 309.194 376.492C308.652 375.734 308.41 374.802 308.515 373.876C308.62 372.95 309.064 372.096 309.762 371.479C312.771 369.197 316.766 369.289 320.502 369.323" fill="#8192A2"/>
<path d="M433.741 156.849C417.032 155.457 411.69 136.18 421.337 132.047C422.837 131.405 424.128 131.047 425.261 130.911C425.477 130.885 425.675 130.884 425.88 130.873C425.904 131.027 426.978 137.606 437.875 141.692C446.634 144.976 451.033 142.177 452.475 140.887C452.208 140.597 453.682 142.257 454.413 144.448C456.21 149.838 450.278 158.227 433.741 156.849ZM462.142 89.941C462.284 89.8409 465.633 87.5251 470.413 89.657C471.107 89.9678 471.921 89.6534 472.232 88.9603C472.543 88.2655 472.231 87.451 471.534 87.1402C465.25 84.3349 460.712 87.5715 460.521 87.7118C459.911 88.1592 459.778 89.0121 460.222 89.6266C460.49 89.999 460.914 90.1964 461.341 90.1964C461.618 90.1964 461.9 90.1133 462.142 89.941ZM420.94 91.3333C421.424 90.7448 421.336 89.8776 420.748 89.3944C420.568 89.2461 416.217 85.7666 409.782 88.2253C409.071 88.4977 408.716 89.2935 408.988 90.0044C409.259 90.7153 410.055 91.0707 410.767 90.7992C415.643 88.9335 418.859 91.4128 419.008 91.5316C419.262 91.7379 419.569 91.8388 419.873 91.8388C420.273 91.8379 420.669 91.6665 420.94 91.3333ZM462.142 89.941C462.284 89.8409 465.633 87.5251 470.413 89.657C471.107 89.9678 471.921 89.6534 472.232 88.9603C472.543 88.2655 472.231 87.451 471.534 87.1402C465.25 84.3349 460.712 87.5715 460.521 87.7118C459.911 88.1592 459.778 89.0121 460.222 89.6266C460.49 89.999 460.914 90.1964 461.341 90.1964C461.618 90.1964 461.9 90.1133 462.142 89.941ZM428.689 115.167C429.401 114.895 429.756 114.1 429.486 113.389C429.399 113.165 427.323 107.89 420.915 105.597C414.128 103.17 405.303 105.007 394.695 111.065C394.034 111.442 393.804 112.283 394.182 112.945C394.561 113.605 395.399 113.835 396.062 113.458C405.766 107.918 414.017 106.088 419.927 108.171C425.145 110.01 426.842 114.199 426.912 114.377C427.123 114.923 427.644 115.259 428.197 115.259C428.361 115.259 428.527 115.229 428.689 115.167ZM458.904 114.861C458.979 114.786 466.545 107.411 473.276 108.392C476.047 108.795 478.359 110.638 480.148 113.873C480.516 114.537 481.351 114.781 482.02 114.411C482.686 114.043 482.928 113.205 482.559 112.538C480.33 108.507 477.337 106.194 473.664 105.663C465.584 104.492 457.316 112.555 456.969 112.899C456.426 113.433 456.42 114.305 456.955 114.847C457.224 115.12 457.58 115.257 457.936 115.257C458.286 115.257 458.634 115.125 458.904 114.861Z" fill="black"/>
<path d="M657.204 77.502C657.334 77.4131 660.391 75.3552 664.755 77.2496C665.388 77.5258 666.132 77.2465 666.415 76.6306C666.699 76.0131 666.414 75.2894 665.779 75.0132C660.042 72.5204 655.899 75.3965 655.725 75.5211C655.167 75.9187 655.047 76.6766 655.452 77.2227C655.697 77.5536 656.083 77.729 656.474 77.729C656.726 77.729 656.983 77.6552 657.204 77.502ZM619.593 78.7393C620.034 78.2163 619.954 77.4457 619.418 77.0163C619.253 76.8846 615.281 73.7926 609.407 75.9774C608.758 76.2195 608.433 76.9266 608.682 77.5584C608.93 78.1901 609.656 78.506 610.306 78.2647C614.758 76.6068 617.693 78.8099 617.829 78.9155C618.061 79.0988 618.341 79.1885 618.619 79.1885C618.984 79.1877 619.345 79.0353 619.593 78.7393ZM657.204 77.502C657.334 77.4131 660.391 75.3552 664.755 77.2496C665.388 77.5258 666.132 77.2465 666.415 76.6306C666.699 76.0131 666.414 75.2894 665.779 75.0132C660.042 72.5204 655.899 75.3965 655.725 75.5211C655.167 75.9187 655.047 76.6766 655.452 77.2227C655.697 77.5536 656.083 77.729 656.474 77.729C656.726 77.729 656.983 77.6552 657.204 77.502ZM626.667 99.9183C627.316 99.677 627.641 98.9699 627.394 98.3381C627.315 98.1397 625.419 93.4517 619.569 91.4144C613.374 89.2573 605.318 90.8899 595.634 96.2731C595.031 96.608 594.821 97.3556 595.166 97.9437C595.512 98.5302 596.277 98.7349 596.882 98.3992C605.74 93.4763 613.273 91.8509 618.668 93.7017C623.431 95.3358 624.98 99.058 625.044 99.2167C625.237 99.7016 625.713 100 626.217 100C626.367 100 626.519 99.973 626.667 99.9183ZM654.249 99.6468C654.317 99.5802 661.224 93.0263 667.368 93.8977C669.898 94.2557 672.008 95.8937 673.641 98.7683C673.978 99.3587 674.739 99.5754 675.35 99.2468C675.958 98.9199 676.179 98.1746 675.842 97.5826C673.808 94.0001 671.075 91.9446 667.723 91.4732C660.347 90.4319 652.799 97.5977 652.482 97.9032C651.986 98.3778 651.981 99.1524 652.47 99.6341C652.715 99.877 653.04 99.9984 653.365 99.9984C653.684 99.9984 654.002 99.881 654.249 99.6468Z" fill="black"/>
<path d="M448.9 136.18C448.138 136.18 447.521 135.564 447.521 134.802C447.521 134.04 448.138 133.424 448.9 133.424C449.178 133.422 455.791 133.327 455.791 127.913C455.791 122.282 447.411 121.021 447.327 121.009C446.573 120.902 446.049 120.203 446.157 119.449C446.265 118.696 446.967 118.175 447.717 118.28C448.158 118.344 458.547 119.919 458.547 127.913C458.547 134.452 452.236 136.18 448.9 136.18ZM417.188 136.425C414.482 143.574 420.585 155.754 433.74 156.849C435.772 157.018 437.641 157.037 439.357 156.935C435.324 137.9 417.268 136.431 417.188 136.425ZM408.578 116.057C414.311 113.757 417.558 115.815 417.715 115.918C418.341 116.344 419.193 116.186 419.623 115.564C420.058 114.939 419.902 114.08 419.277 113.646C419.096 113.521 414.765 110.605 407.551 113.499C406.844 113.783 406.502 114.586 406.785 115.292C407.001 115.83 407.519 116.157 408.065 116.157C408.236 116.157 408.409 116.125 408.578 116.057ZM468.306 116.037C473.155 113.877 474.735 115.509 474.821 115.604C475.263 116.197 476.099 116.336 476.711 115.911C477.335 115.477 477.491 114.619 477.057 113.993C476.793 113.611 474.268 110.359 467.183 113.52C466.487 113.83 466.176 114.644 466.486 115.339C466.715 115.853 467.219 116.157 467.746 116.157C467.933 116.156 468.124 116.118 468.306 116.037Z" fill="#C95C3F"/>
<path d="M608.715 100.925C613.91 99.2021 616.853 100.744 616.996 100.821C617.563 101.14 618.335 101.021 618.725 100.556C619.119 100.088 618.977 99.4443 618.411 99.1192C618.247 99.0256 614.322 96.8418 607.784 99.0095C607.144 99.2222 606.834 99.8228 607.09 100.352C607.285 100.755 607.755 101 608.25 101C608.405 101 608.562 100.976 608.715 100.925ZM662.846 100.91C667.241 99.2924 668.673 100.514 668.75 100.585C669.151 101.029 669.909 101.134 670.463 100.815C671.029 100.49 671.171 99.8476 670.777 99.3794C670.538 99.0931 668.249 96.6578 661.828 99.0249C661.198 99.257 660.915 99.867 661.197 100.387C661.404 100.772 661.861 101 662.338 101C662.508 100.999 662.681 100.971 662.846 100.91Z" fill="#C95C3F"/>
<path d="M452.476 140.887C451.033 142.178 446.635 144.976 437.875 141.692C426.874 137.567 425.882 130.89 425.878 130.862C431.53 130.561 433.322 135.678 438.09 137.268C444.741 139.485 449.391 137.545 452.476 140.887ZM452.476 140.887C451.033 142.178 446.635 144.976 437.875 141.692C426.874 137.567 425.882 130.89 425.878 130.862C431.53 130.561 433.322 135.678 438.09 137.268C444.741 139.485 449.391 137.545 452.476 140.887Z" fill="#EAE8E5"/>
<path d="M643.699 118.998C643.09 118.998 642.597 118.504 642.597 117.894C642.597 117.285 643.09 116.791 643.699 116.791C643.922 116.79 649.213 116.714 649.213 112.377C649.213 107.869 642.509 106.859 642.441 106.849C641.838 106.763 641.418 106.204 641.505 105.6C641.591 104.997 642.15 104.581 642.752 104.664C643.106 104.715 651.418 105.977 651.418 112.377C651.418 117.615 646.369 118.998 643.699 118.998ZM640.501 127.82C652.232 126.646 653.558 119.484 653.608 119.179C653.707 118.582 653.307 118.022 652.712 117.916C652.11 117.819 651.545 118.212 651.436 118.806C651.391 119.044 650.241 124.627 640.281 125.624C626.161 127.04 623.912 119.087 623.817 118.728C623.67 118.14 623.072 117.777 622.484 117.927C621.893 118.072 621.532 118.67 621.678 119.262C621.772 119.646 623.991 128 637.041 128C638.118 128 639.271 127.943 640.501 127.82Z" fill="#C95C3F"/>
</g>
<defs>
<clipPath id="clip0_226_377">
<rect width="922" height="716" fill="white"/>
</clipPath>
</defs>
</svg>
