<svg width="119" height="119" viewBox="0 0 119 119" fill="none" xmlns="http://www.w3.org/2000/svg">
<g clip-path="url(#clip0_17_788)">
<path d="M59.5 119C92.3609 119 119 92.3609 119 59.5C119 26.6391 92.3609 0 59.5 0C26.6391 0 0 26.6391 0 59.5C0 92.3609 26.6391 119 59.5 119Z" fill="#2FDFF2"/>
<path d="M59.5 112.553C88.8004 112.553 112.553 88.8004 112.553 59.5C112.553 30.1997 88.8004 6.44702 59.5 6.44702C30.1997 6.44702 6.44702 30.1997 6.44702 59.5C6.44702 88.8004 30.1997 112.553 59.5 112.553Z" fill="#FFE56A"/>
<path d="M59.4999 106.06C85.2145 106.06 106.06 85.2145 106.06 59.5C106.06 33.7855 85.2145 12.9398 59.4999 12.9398C33.7854 12.9398 12.9397 33.7855 12.9397 59.5C12.9397 85.2145 33.7854 106.06 59.4999 106.06Z" fill="#FF3B67"/>
<path d="M17.4644 65.2633C17.1576 65.3053 16.8459 65.2384 16.5833 65.0743C16.4556 65.0047 16.3463 64.9058 16.2642 64.7856C16.1822 64.6655 16.1299 64.5277 16.1114 64.3834L12.7002 38.4774C12.6811 38.3335 12.6962 38.1871 12.7443 38.0501C12.7924 37.9131 12.8721 37.7894 12.977 37.689C13.1882 37.462 13.4723 37.3163 13.7799 37.2773L27.1108 35.5223C31.3519 34.9606 34.7896 35.3486 37.4241 36.6863C40.0586 38.024 41.5705 40.1706 41.9597 43.1261C42.2052 44.9918 41.9151 46.6433 41.0894 48.0805C40.2636 49.5177 39.0888 50.7162 37.565 51.676L44.8883 60.3053C44.99 60.426 45.0584 60.5713 45.0869 60.7266C45.1029 60.8441 45.0934 60.9636 45.0589 61.0771C45.0244 61.1905 44.9658 61.2951 44.887 61.3838C44.7197 61.5842 44.4801 61.7104 44.2202 61.7353L36.3143 62.7765C35.7221 62.8567 35.2535 62.7897 34.9084 62.5755C34.5633 62.3612 34.3298 62.1546 34.2078 61.9556L28.4457 54.3361L25.0754 54.7791L26.1647 63.0545C26.1849 63.1962 26.1724 63.3407 26.1284 63.4768C26.0844 63.613 26.01 63.7374 25.9107 63.8405C25.6957 64.0753 25.4018 64.2227 25.085 64.2546L17.4644 65.2633ZM24.2051 48.1877L28.6492 47.6027C29.7397 47.459 30.5161 47.0923 30.9783 46.5025C31.2053 46.2175 31.3705 45.8884 31.4636 45.5361C31.5566 45.1839 31.5754 44.8161 31.5188 44.4562C31.436 43.7003 31.0632 43.006 30.4788 42.5194C29.8906 42.0275 29.0351 41.8554 27.9125 42.0031L23.4721 42.5905L24.2051 48.1877Z" fill="white"/>
<path d="M17.279 65.9976C16.9009 65.9969 16.5304 65.8911 16.2089 65.6918C15.9885 65.5666 15.8002 65.3917 15.659 65.1811C15.5178 64.9705 15.4275 64.73 15.3952 64.4785L11.9852 38.5713C11.9519 38.3209 11.9772 38.0662 12.0591 37.8273C12.141 37.5883 12.2772 37.3716 12.457 37.1943C12.7809 36.8484 13.2158 36.6269 13.686 36.5684L27.0169 34.8134C31.384 34.238 34.9951 34.6533 37.7503 36.0484C40.5983 37.4928 42.2546 39.8436 42.6758 43.037C42.9407 45.0556 42.6181 46.8756 41.7129 48.4465C40.939 49.777 39.8911 50.9279 38.6386 51.8228L45.4612 59.8683C45.6427 60.0892 45.7612 60.3549 45.8043 60.6375C45.8333 60.8536 45.8162 61.0734 45.7539 61.2824C45.6917 61.4913 45.5857 61.6847 45.4431 61.8496C45.1578 62.1875 44.7536 62.4029 44.3141 62.4515L36.4094 63.4927C35.6487 63.5926 35.0167 63.4927 34.5292 63.1905C34.1661 62.9875 33.8531 62.7058 33.6132 62.366L28.1243 55.1065L25.8891 55.4014L26.8845 62.9606C26.9182 63.2057 26.8968 63.4552 26.8219 63.6909C26.7469 63.9266 26.6203 64.1427 26.4512 64.3232C26.122 64.6873 25.6705 64.9178 25.1825 64.9708L17.5583 65.9747C17.4658 65.9883 17.3725 65.9959 17.279 65.9976ZM30.6401 36.0002C29.4917 36.0058 28.345 36.0863 27.2071 36.241L13.8738 37.9935C13.7295 38.0112 13.5966 38.0805 13.4994 38.1885C13.4043 38.2872 13.4115 38.3402 13.4164 38.3835L16.8276 64.2895C16.8276 64.3341 16.8397 64.3858 16.9564 64.4556C17.0788 64.5354 17.226 64.5679 17.3705 64.5471L24.9947 63.5432C25.1407 63.5341 25.2776 63.4695 25.3775 63.3627C25.4066 63.3372 25.4288 63.3047 25.4418 63.2682C25.4549 63.2318 25.4584 63.1926 25.4521 63.1544L24.2677 54.1664L28.7683 53.5646L34.8265 61.5824C34.8482 61.6173 34.9469 61.7497 35.2863 61.9592C35.4825 62.0795 35.8051 62.1157 36.2204 62.0603L44.1251 61.0275C44.1643 61.0264 44.2028 61.0172 44.2383 61.0004C44.2737 60.9836 44.3053 60.9596 44.3309 60.93C44.3695 60.8831 44.3731 60.8614 44.3719 60.8397C44.3587 60.8138 44.3429 60.7892 44.3249 60.7663L36.472 51.5087L37.1762 51.0645C38.5289 50.2371 39.6565 49.0885 40.4586 47.7206C41.2001 46.4303 41.4637 44.916 41.2398 43.22C40.8787 40.4888 39.5246 38.5629 37.0943 37.3303C35.3477 36.4444 33.1835 36.0002 30.6377 36.0002H30.6401ZM23.5924 48.9977L22.6668 41.9694L27.8222 41.2869C29.1463 41.1123 30.1995 41.341 30.9518 41.9657C31.676 42.5677 32.1392 43.4265 32.2446 44.3623C32.3134 44.8171 32.2875 45.2813 32.1684 45.7256C32.0493 46.1699 31.8396 46.5848 31.5525 46.9442C30.9711 47.6857 30.0274 48.1479 28.7479 48.3152L23.5924 48.9977ZM24.2833 43.2128L24.8322 47.3776L28.5637 46.8865C29.4568 46.7661 30.0804 46.4904 30.4198 46.0571C30.5864 45.8477 30.7074 45.6058 30.775 45.3469C30.8426 45.088 30.8552 44.8178 30.8122 44.5537C30.7532 43.977 30.4706 43.4463 30.025 43.0755C29.6001 42.7217 28.9248 42.6025 28.016 42.7217L24.2833 43.2128Z" fill="#7E0DB5"/>
<path d="M49.1301 61.0937C48.8233 61.1356 48.5115 61.0688 48.249 60.9047C48.1214 60.8352 48.0122 60.7364 47.9302 60.6165C47.8482 60.4967 47.7957 60.359 47.7771 60.215L44.367 34.3054C44.3478 34.1614 44.3628 34.015 44.4109 33.878C44.459 33.7409 44.5389 33.6172 44.6439 33.517C44.8553 33.2904 45.1394 33.1452 45.4468 33.1065L68.37 30.0924C68.6912 30.0433 69.0195 30.108 69.298 30.2754C69.4255 30.3453 69.5347 30.4443 69.6167 30.5643C69.6987 30.6844 69.7512 30.8221 69.7699 30.9663L70.391 35.6836C70.4049 35.8244 70.387 35.9664 70.3387 36.0993C70.2903 36.2323 70.2128 36.3526 70.1117 36.4516C69.894 36.6956 69.5941 36.8511 69.2692 36.8885L54.8079 38.7904L55.3279 42.7481L68.7528 40.9811C69.074 40.9318 69.4023 40.9966 69.6808 41.1641C69.8082 41.2338 69.9173 41.3326 69.9992 41.4525C70.0812 41.5723 70.1338 41.7098 70.1527 41.8538L70.7208 46.1714C70.7399 46.3156 70.7248 46.4621 70.6767 46.5993C70.6286 46.7365 70.5489 46.8604 70.444 46.9611C70.2187 47.1951 69.9183 47.3425 69.5954 47.3775L56.1705 49.1446L56.7025 53.183L71.5297 51.2306C71.8551 51.1812 72.1873 51.2536 72.4626 51.434C72.5901 51.5088 72.6991 51.6116 72.7812 51.7346C72.8634 51.8576 72.9166 51.9977 72.9368 52.1442L73.5459 56.8218C73.5651 56.9657 73.55 57.1121 73.5019 57.2491C73.4538 57.3861 73.374 57.5098 73.269 57.6102C73.0451 57.8429 72.7473 57.9905 72.4265 58.0279L49.1301 61.0937Z" fill="white"/>
<path d="M48.9448 61.8291C48.5665 61.8286 48.1958 61.7223 47.8747 61.5222C47.6548 61.3959 47.4671 61.2202 47.3265 61.009C47.186 60.7979 47.0963 60.557 47.0646 60.3053L43.651 34.4029C43.617 34.1514 43.642 33.8954 43.7238 33.6552C43.8057 33.415 43.9423 33.1971 44.1228 33.0186C44.4472 32.6734 44.8818 32.4521 45.3518 32.3927L68.2714 29.3702C68.7554 29.2987 69.2492 29.3983 69.6677 29.6519C69.8882 29.7772 70.0766 29.952 70.2181 30.1626C70.3595 30.3731 70.45 30.6137 70.4826 30.8652L71.1037 35.5825C71.1325 35.827 71.1062 36.0749 71.0269 36.3079C70.9475 36.541 70.8171 36.7533 70.6451 36.9294C70.3114 37.3029 69.8523 37.5411 69.3547 37.5987L55.6181 39.4043L55.9503 41.932L68.659 40.2589C69.143 40.1874 69.6368 40.287 70.0553 40.5405C70.2755 40.6661 70.4636 40.841 70.6047 41.0516C70.7459 41.2621 70.8364 41.5025 70.869 41.7539L71.4371 46.0715C71.471 46.3228 71.4462 46.5784 71.3645 46.8184C71.2828 47.0584 71.1466 47.2762 70.9665 47.4546C70.6297 47.8092 70.1797 48.0352 69.6942 48.0937L56.9855 49.7669L57.3286 52.3729L71.4407 50.5144C71.9357 50.4419 72.4402 50.5532 72.8587 50.8274C73.0741 50.9591 73.2573 51.1373 73.3952 51.3489C73.533 51.5604 73.622 51.8 73.6555 52.0503L74.2682 56.7279C74.3021 56.979 74.2771 57.2346 74.1952 57.4744C74.1133 57.7142 73.9767 57.9317 73.7964 58.1097C73.458 58.4633 73.0066 58.6873 72.5204 58.7429L49.2313 61.8099C49.1363 61.8225 49.0406 61.8289 48.9448 61.8291ZM68.5795 30.799C68.5393 30.7989 68.499 30.8018 68.4592 30.8074L45.5408 33.8239C45.3963 33.841 45.2628 33.9098 45.1652 34.0177C45.0701 34.1164 45.0773 34.1706 45.0834 34.2127L48.4934 60.1187C48.4994 60.1644 48.5067 60.215 48.6222 60.286C48.7447 60.3653 48.8919 60.3974 49.0363 60.3763L72.3303 57.3117C72.4905 57.2969 72.6403 57.2257 72.7528 57.1107C72.8478 57.0119 72.8406 56.959 72.8346 56.9157L72.2219 52.2405C72.2159 52.1996 72.2075 52.131 72.0691 52.0407C71.9385 51.9559 71.7808 51.9232 71.6273 51.9492L56.0827 53.9955L55.3605 48.5259L69.5004 46.6638C69.6612 46.6498 69.8116 46.5785 69.9241 46.4627C70.018 46.3652 70.0107 46.3135 70.0047 46.2689L69.4366 41.9513C69.4306 41.9079 69.4245 41.855 69.3066 41.784C69.1686 41.7021 69.006 41.6722 68.848 41.6997L54.7069 43.5594L53.9967 38.1693L69.1633 36.1723C69.3192 36.1578 69.4638 36.0847 69.5678 35.9677C69.64 35.887 69.6737 35.822 69.6677 35.7763L69.0502 31.0554C69.0502 31.0121 69.0369 30.9591 68.9202 30.8881C68.8173 30.8269 68.6992 30.796 68.5795 30.799Z" fill="#7E0DB5"/>
<path d="M86.1763 56.2127C85.6146 56.2873 85.1528 56.2127 84.7909 55.9888C84.4752 55.8147 84.2174 55.5519 84.0494 55.2329L71.4659 30.8628C71.4252 30.7762 71.3968 30.6842 71.3817 30.5896C71.3664 30.47 71.3785 30.3484 71.417 30.2341C71.4556 30.1199 71.5197 30.0158 71.6044 29.93C71.7824 29.7287 72.0284 29.6001 72.2953 29.5689L79.5452 28.6143C80.1069 28.5413 80.5611 28.6171 80.9077 28.8418C81.2044 29.0164 81.4504 29.2654 81.6215 29.564L89.336 45.5082L92.6606 28.1136C92.7479 27.7813 92.921 27.4779 93.1626 27.2337C93.4394 26.9263 93.8587 26.7354 94.4205 26.6607L101.67 25.7062C101.928 25.6643 102.192 25.7248 102.406 25.8747C102.505 25.9399 102.588 26.0257 102.65 26.1263C102.713 26.2269 102.752 26.3398 102.767 26.4573C102.777 26.5524 102.774 26.6484 102.757 26.7426L96.9579 53.5369C96.8776 53.8884 96.6964 54.2089 96.4366 54.4589C96.1446 54.7695 95.7032 54.9633 95.1126 55.0403L86.1763 56.2127Z" fill="white"/>
<path d="M85.7779 56.9662C85.2905 56.9727 84.8107 56.8446 84.3915 56.5959C83.9722 56.3472 83.6298 55.9876 83.4018 55.5567L70.8147 31.1758L70.8063 31.1565C70.7373 31.0062 70.6899 30.847 70.6655 30.6835C70.6365 30.4603 70.6575 30.2335 70.7271 30.0195C70.7966 29.8054 70.9129 29.6096 71.0675 29.4461C71.3623 29.1197 71.7649 28.9107 72.2014 28.8575L79.4513 27.9041C80.1843 27.8066 80.8066 27.921 81.3001 28.2412C81.7034 28.4838 82.0355 28.8284 82.2631 29.2402V29.2523L89.0267 43.2332L91.9444 27.9643C92.0586 27.5076 92.2907 27.0888 92.6173 26.7498C93.0109 26.3128 93.5803 26.042 94.3169 25.9457L101.568 24.9912C102.006 24.9255 102.452 25.0306 102.815 25.2849C102.996 25.4085 103.148 25.5689 103.262 25.7557C103.376 25.9424 103.449 26.1512 103.476 26.3682C103.494 26.5285 103.49 26.6906 103.464 26.8497L103.455 26.8942L97.6584 53.6765C97.5525 54.1615 97.3079 54.6052 96.9542 54.9536C96.5474 55.3858 95.9552 55.6554 95.1968 55.7553L86.2714 56.9349C86.1078 56.9563 85.9429 56.9668 85.7779 56.9662ZM72.1183 30.5535L84.703 54.9284C84.8136 55.1183 84.9749 55.2738 85.1688 55.3773C85.3855 55.5109 85.6924 55.5519 86.0824 55.4977L95.0163 54.3205C95.4376 54.2651 95.7385 54.1447 95.913 53.9594C96.0737 53.8093 96.1895 53.6176 96.2477 53.4057V53.3804L102.042 26.6126C102.044 26.5897 102.044 26.5668 102.042 26.544C102.042 26.5211 102.036 26.5006 101.978 26.4597C101.946 26.4379 101.909 26.4231 101.871 26.416C101.832 26.409 101.793 26.4099 101.755 26.4188L94.5047 27.3733C94.1219 27.4239 93.8475 27.5382 93.6898 27.7127C93.536 27.8624 93.4221 28.0482 93.3588 28.2532L89.6357 47.7868L80.9751 29.8878C80.8573 29.7089 80.6995 29.5597 80.5141 29.4521C80.3167 29.3245 80.023 29.286 79.6402 29.3317L72.3892 30.2863C72.2941 30.2931 72.2054 30.3362 72.1412 30.4066C72.0943 30.4584 72.0967 30.4752 72.0979 30.4885C72.1033 30.5105 72.1102 30.5323 72.1183 30.5535Z" fill="#7E0DB5"/>
<path d="M22.3743 95.4533C22.0719 95.495 21.7646 95.4276 21.5076 95.2631C21.3814 95.1923 21.2735 95.0929 21.1927 94.9729C21.1118 94.8529 21.0601 94.7157 21.0418 94.5721L17.6317 68.6698C17.612 68.5266 17.6261 68.3808 17.6729 68.2441C17.7197 68.1074 17.798 67.9836 17.9013 67.8826C18.107 67.6566 18.3866 67.5115 18.6897 67.4733L26.3224 66.4682C26.6389 66.4201 26.9622 66.4858 27.2348 66.6536C27.3607 66.7248 27.4683 66.8242 27.5491 66.9441C27.63 67.064 27.6818 67.2011 27.7006 67.3445L30.3102 87.1742L43.5979 85.4252C43.9142 85.3766 44.2376 85.4418 44.5103 85.6094C44.6365 85.6802 44.7443 85.7796 44.8252 85.8996C44.9061 86.0196 44.9578 86.1568 44.9761 86.3003L45.6393 91.3378C45.6588 91.4812 45.6445 91.6272 45.5974 91.7641C45.5504 91.901 45.472 92.025 45.3685 92.1262C45.1484 92.3591 44.8528 92.5062 44.5343 92.5415L22.3743 95.4533Z" fill="white"/>
<path d="M22.1939 96.1923C21.8162 96.1917 21.4464 96.084 21.1274 95.8818C20.91 95.7547 20.7247 95.5795 20.5857 95.3695C20.4468 95.1596 20.3578 94.9206 20.3257 94.6708L16.9157 68.7649C16.8817 68.5152 16.9056 68.261 16.9855 68.022C17.0654 67.783 17.1993 67.5656 17.3767 67.3866C17.6959 67.0392 18.1279 66.8161 18.596 66.7571L26.2275 65.752C26.709 65.6811 27.2001 65.7826 27.6141 66.0385C27.8318 66.1655 28.0172 66.3409 28.1562 66.5511C28.2953 66.7613 28.3841 67.0006 28.4158 67.2506L30.9351 86.3641L43.5065 84.709C43.9876 84.6379 44.4782 84.7389 44.892 84.9943C45.1096 85.1215 45.2952 85.2969 45.4343 85.507C45.5735 85.7172 45.6627 85.9564 45.6949 86.2064L46.3557 91.2403C46.3892 91.4898 46.3651 91.7437 46.2852 91.9824C46.2053 92.2211 46.0717 92.4383 45.8947 92.6173C45.5614 92.9721 45.1132 93.1973 44.6296 93.2529L22.4683 96.1755C22.3773 96.1871 22.2856 96.1927 22.1939 96.1923ZM26.5272 67.176C26.4889 67.1765 26.4507 67.1793 26.4128 67.1844L18.7802 68.1895C18.6407 68.2051 18.512 68.272 18.4191 68.3773C18.3324 68.4687 18.3312 68.5193 18.3396 68.5759L21.7497 94.4819C21.7569 94.5384 21.7714 94.5878 21.8773 94.6528C21.9935 94.7299 22.1339 94.762 22.2721 94.7431L44.4322 91.8253C44.5859 91.8118 44.7294 91.7424 44.8354 91.6303C44.9281 91.5316 44.9209 91.4774 44.9149 91.4329L44.2516 86.3954C44.2456 86.3509 44.2384 86.2955 44.1228 86.2233C43.991 86.1441 43.835 86.1151 43.6835 86.1414L29.6893 87.9903L26.9846 67.4384C26.9786 67.3938 26.9713 67.3397 26.8558 67.2675C26.7584 67.2066 26.6456 67.1748 26.5308 67.176H26.5272Z" fill="#7E0DB5"/>
<path d="M47.9976 92.0757C47.7368 92.1157 47.4705 92.0564 47.2513 91.9096C47.1484 91.8476 47.0607 91.7633 46.9949 91.6629C46.929 91.5624 46.8867 91.4484 46.8709 91.3294C46.8555 91.2286 46.8746 91.1255 46.9251 91.0369L54.0389 64.074C54.1171 63.7244 54.2943 63.4048 54.5493 63.1532C54.8358 62.8451 55.2551 62.6541 55.8072 62.5803L64.221 61.4729C64.8028 61.3974 65.2646 61.4724 65.6065 61.6979C65.9088 61.8808 66.1543 62.1442 66.3155 62.4587L80.2122 86.653C80.2887 86.8034 80.3169 86.9738 80.2928 87.1408C80.2686 87.3079 80.1934 87.4633 80.0773 87.5859C79.9034 87.7839 79.6617 87.9097 79.3997 87.9386L72.3183 88.8714C71.7975 88.9396 71.4007 88.8835 71.1278 88.7029C70.9 88.5649 70.7013 88.3838 70.5428 88.1697L68.6747 84.9991L57.6007 86.458L56.6185 90.0041C56.5244 90.2476 56.3874 90.4722 56.214 90.6673C56.013 90.9081 55.635 91.0682 55.0838 91.1416L47.9976 92.0757ZM58.82 79.4248L65.6703 78.5232L61.0384 69.977L58.82 79.4248Z" fill="white"/>
<path d="M47.8387 92.8051C47.487 92.8064 47.143 92.7029 46.8504 92.5078C46.6621 92.3893 46.5021 92.2309 46.3819 92.0436C46.2617 91.8564 46.1841 91.6451 46.1547 91.4245C46.1244 91.2063 46.1561 90.984 46.2462 90.7829L53.3335 63.9164C53.44 63.4422 53.6778 63.0075 54.0197 62.6621C54.4241 62.2276 54.9934 61.9592 55.7133 61.8653L64.1259 60.7567C64.883 60.658 65.515 60.7711 66.0049 61.0949C66.4079 61.3462 66.7359 61.7012 66.9546 62.1229L80.8489 86.3172C80.9325 86.4789 80.9867 86.6541 81.009 86.8348C81.0387 87.0563 81.019 87.2816 80.9511 87.4946C80.8832 87.7075 80.769 87.9027 80.6166 88.0662C80.3271 88.3945 79.9269 88.6049 79.4923 88.6572L72.4122 89.5901C71.7044 89.6827 71.1531 89.5901 70.727 89.3072C70.419 89.1173 70.1521 88.8676 69.9422 88.5729L69.9205 88.5392L68.2955 85.7804L58.1628 87.114L57.2961 90.2376C57.1749 90.5654 56.9946 90.8682 56.7641 91.1308C56.4403 91.522 55.9215 91.7615 55.1716 91.853L48.0914 92.7859C48.0077 92.7977 47.9232 92.8041 47.8387 92.8051ZM47.6088 91.274L47.6485 91.3029C47.6854 91.3297 47.7274 91.3486 47.7719 91.3585C47.8164 91.3685 47.8625 91.3692 47.9073 91.3607L54.9874 90.429C55.4196 90.3713 55.6097 90.2653 55.6555 90.21C55.7676 90.0853 55.859 89.9434 55.9263 89.7899L57.0301 85.808L69.0587 84.224L71.1555 87.7845C71.2603 87.9119 71.3865 88.0198 71.5286 88.1035C71.5732 88.1336 71.7513 88.2239 72.228 88.1589L79.3081 87.2272C79.3983 87.219 79.4817 87.1758 79.5405 87.1068C79.5862 87.0539 79.585 87.037 79.5826 87.0214C79.5802 87.0057 79.5826 86.9949 79.5826 86.9901L65.6727 62.7873L65.6594 62.7596C65.5529 62.567 65.3966 62.4065 65.2068 62.295C64.9661 62.1385 64.5917 62.1494 64.3149 62.1855L55.901 63.2929C55.5243 63.3434 55.2474 63.4602 55.0789 63.6407C54.9206 63.7921 54.807 63.9841 54.7503 64.1956L54.7383 64.2546L47.6088 91.274ZM57.8787 80.2746L60.7676 67.9668L66.8053 79.1022L57.8787 80.2746ZM61.308 71.9908L59.7625 78.569L64.5352 77.9407L61.308 71.9908Z" fill="#7E0DB5"/>
<path d="M83.3369 87.433C83.0345 87.4737 82.7274 87.4059 82.4702 87.2416C82.3441 87.1707 82.2363 87.0713 82.1554 86.9514C82.0745 86.8314 82.0228 86.6942 82.0044 86.5507L78.5943 60.6447C78.5746 60.5013 78.5888 60.3552 78.6358 60.2182C78.6829 60.0813 78.7614 59.9573 78.8652 59.8563C79.0708 59.6309 79.3498 59.4858 79.6524 59.447L85.7672 58.6418C86.3193 58.5695 86.7329 58.6305 87.0082 58.8247C87.2834 59.0189 87.4736 59.1634 87.5787 59.258L98.7924 71.2445L97.0771 58.2108C97.0575 58.0675 97.0717 57.9216 97.1185 57.7847C97.1653 57.6478 97.2435 57.5237 97.3467 57.4224C97.5526 57.1968 97.8322 57.0521 98.1352 57.0144L105.077 56.0995C105.387 56.0501 105.704 56.1175 105.968 56.2885C106.089 56.3634 106.191 56.4647 106.268 56.5847C106.344 56.7047 106.393 56.8405 106.409 56.9819L109.821 82.889C109.841 83.0301 109.829 83.1738 109.786 83.3096C109.743 83.4455 109.67 83.5699 109.573 83.6739C109.363 83.907 109.074 84.0538 108.761 84.0855L102.694 84.8848C102.111 84.9606 101.681 84.9028 101.407 84.7078C101.209 84.5734 101.018 84.4288 100.835 84.2745L89.7225 73.0476L91.3379 85.3253C91.359 85.4658 91.3484 85.6093 91.3067 85.7451C91.265 85.8809 91.1934 86.0057 91.0972 86.1101C90.8871 86.3431 90.5979 86.4898 90.2859 86.5218L83.3369 87.433Z" fill="white"/>
<path d="M83.1576 88.1673C82.7793 88.1664 82.4091 88.0583 82.0899 87.8555C81.8724 87.7287 81.6871 87.5535 81.5483 87.3435C81.4095 87.1335 81.3209 86.8943 81.2894 86.6446L77.8793 60.7386C77.8452 60.4888 77.8692 60.2345 77.9493 59.9955C78.0295 59.7564 78.1637 59.5391 78.3416 59.3604C78.6615 59.012 79.0951 58.7888 79.5645 58.7308L85.6793 57.9268C86.4232 57.8281 86.9962 57.9268 87.4295 58.2337C87.6492 58.3835 87.8614 58.5442 88.065 58.7152L88.1132 58.7621L97.7885 69.1055L96.3669 58.3023C96.3329 58.0526 96.3567 57.7984 96.4366 57.5594C96.5166 57.3204 96.6505 57.103 96.828 56.9241C97.1475 56.5772 97.5794 56.3546 98.0473 56.2958L104.989 55.3821C105.471 55.3072 105.964 55.4145 106.372 55.6831C106.579 55.8155 106.755 55.992 106.886 56.2001C107.018 56.4081 107.101 56.6426 107.132 56.8868L110.543 82.7928C110.577 83.0362 110.556 83.2841 110.483 83.5188C110.41 83.7534 110.286 83.9691 110.12 84.1505C109.796 84.5156 109.348 84.7473 108.863 84.8005L102.793 85.5986C102.016 85.7021 101.428 85.5986 100.995 85.2964C100.775 85.1474 100.563 84.9867 100.361 84.815L100.328 84.7837L90.724 75.0819L92.0601 85.229C92.0941 85.4725 92.0739 85.7205 92.0009 85.9552C91.9278 86.19 91.8038 86.4056 91.6376 86.5868C91.3133 86.9516 90.865 87.1828 90.3797 87.2356L83.438 88.1492C83.3451 88.162 83.2514 88.168 83.1576 88.1673ZM86.1849 59.3351C86.0761 59.3356 85.9676 59.3433 85.8599 59.358L79.7451 60.1632C79.6056 60.1791 79.477 60.246 79.384 60.351C79.2973 60.4425 79.2961 60.493 79.3033 60.5496L82.7134 86.4568C82.7218 86.5122 82.7351 86.5615 82.8422 86.6265C82.9579 86.7038 83.098 86.7359 83.2358 86.7168L90.1775 85.802C90.3158 85.7932 90.4453 85.7311 90.5386 85.6287C90.5671 85.6017 90.5886 85.5682 90.6012 85.5311C90.6137 85.494 90.6171 85.4543 90.6109 85.4156L88.7259 71.0182L101.331 83.7485C101.39 83.8003 101.526 83.9086 101.822 84.1168C101.855 84.1397 102.034 84.2372 102.598 84.1686L108.668 83.3693C108.806 83.3605 108.936 83.2978 109.029 83.1948C109.058 83.1684 109.079 83.1352 109.092 83.0981C109.105 83.0611 109.108 83.0215 109.101 82.9829L105.693 57.0769C105.69 57.0383 105.678 57.001 105.657 56.9684C105.636 56.9359 105.607 56.909 105.573 56.8904C105.455 56.8145 105.313 56.7877 105.176 56.8157L98.2327 57.7306C98.093 57.7456 97.9641 57.8126 97.8716 57.9183C97.7849 58.0098 97.7837 58.0604 97.7909 58.1169L99.8011 73.381L87.0756 59.7793C87.0142 59.7275 86.8794 59.6204 86.5941 59.4181C86.4689 59.3508 86.3265 59.3219 86.1849 59.3351Z" fill="#7E0DB5"/>
</g>
<defs>
<clipPath id="clip0_17_788">
<rect width="119" height="119" fill="white"/>
</clipPath>
</defs>
</svg>
