<svg width="1112" height="216" viewBox="0 0 1112 216" fill="none" xmlns="http://www.w3.org/2000/svg">
<g clip-path="url(#clip0_226_566)">
<mask id="mask0_226_566" style="mask-type:luminance" maskUnits="userSpaceOnUse" x="0" y="0" width="1112" height="1112">
<path d="M0 0H1112V1112H0V0Z" fill="white"/>
</mask>
<g mask="url(#mask0_226_566)">
<mask id="mask1_226_566" style="mask-type:luminance" maskUnits="userSpaceOnUse" x="-213" y="-213" width="1538" height="1538">
<path d="M391.415 -212.521L1324.54 391.522L720.498 1324.64L-212.628 720.605L391.415 -212.521Z" fill="white"/>
</mask>
<g mask="url(#mask1_226_566)">
<mask id="mask2_226_566" style="mask-type:luminance" maskUnits="userSpaceOnUse" x="-213" y="-213" width="1538" height="1538">
<path d="M391.415 -212.521L1324.54 391.522L720.498 1324.64L-212.628 720.605L391.415 -212.521Z" fill="white"/>
</mask>
<g mask="url(#mask2_226_566)">
<mask id="mask3_226_566" style="mask-type:luminance" maskUnits="userSpaceOnUse" x="-213" y="-213" width="1538" height="1538">
<path d="M391.415 -212.521L1324.54 391.522L720.498 1324.64L-212.628 720.605L391.415 -212.521Z" fill="white"/>
</mask>
<g mask="url(#mask3_226_566)">
<path d="M1022.57 858.126C855.753 1115.83 511.608 1189.5 253.908 1022.68C-3.81235 855.853 -77.488 511.709 89.3362 254.009C256.16 -3.71167 600.305 -77.3873 858.019 89.4436C1115.73 256.261 1189.4 600.406 1022.57 858.126Z" fill="#30E0F2"/>
<path d="M1090.63 404.614C1105.99 500.822 1087.89 602.578 1031.78 689.251C911.112 875.656 654.864 930.504 468.46 809.84C282.062 689.177 227.207 432.943 347.877 246.531C465.481 64.8537 711.817 8.21683 896.816 117.147C884.343 107.478 871.5 98.1714 858.019 89.4436C600.305 -77.3873 256.16 -3.71167 89.3362 254.009C-77.488 511.709 -3.81235 855.853 253.908 1022.68C511.608 1189.5 855.752 1115.83 1022.57 858.126C1113.06 718.332 1132.64 553.162 1090.63 404.614Z" fill="#00A9BA"/>
</g>
</g>
</g>
</g>
<mask id="mask4_226_566" style="mask-type:luminance" maskUnits="userSpaceOnUse" x="105" y="0" width="453" height="863">
<path d="M105.003 0H557.721V862.402H105.003V0Z" fill="white"/>
</mask>
<g mask="url(#mask4_226_566)">
<mask id="mask5_226_566" style="mask-type:luminance" maskUnits="userSpaceOnUse" x="-213" y="-213" width="1538" height="1538">
<path d="M391.415 -212.521L1324.54 391.522L720.497 1324.64L-212.629 720.605L391.415 -212.521Z" fill="white"/>
</mask>
<g mask="url(#mask5_226_566)">
<mask id="mask6_226_566" style="mask-type:luminance" maskUnits="userSpaceOnUse" x="-213" y="-213" width="1538" height="1538">
<path d="M391.415 -212.521L1324.54 391.522L720.497 1324.64L-212.629 720.605L391.415 -212.521Z" fill="white"/>
</mask>
<g mask="url(#mask6_226_566)">
<mask id="mask7_226_566" style="mask-type:luminance" maskUnits="userSpaceOnUse" x="-213" y="-213" width="1538" height="1538">
<path d="M391.415 -212.521L1324.54 391.522L720.497 1324.64L-212.629 720.605L391.415 -212.521Z" fill="white"/>
</mask>
<g mask="url(#mask7_226_566)">
<mask id="mask8_226_566" style="mask-type:luminance" maskUnits="userSpaceOnUse" x="-181" y="-65" width="923" height="1021">
<path d="M291.367 -64.5376L741.14 226.615L269.473 955.242L-180.3 664.089L291.367 -64.5376Z" fill="white"/>
</mask>
<g mask="url(#mask8_226_566)">
<mask id="mask9_226_566" style="mask-type:luminance" maskUnits="userSpaceOnUse" x="-181" y="-65" width="923" height="1021">
<path d="M291.367 -64.5376L741.14 226.615L269.473 955.242L-180.3 664.089L291.367 -64.5376Z" fill="white"/>
</mask>
<g mask="url(#mask9_226_566)">
<mask id="mask10_226_566" style="mask-type:luminance" maskUnits="userSpaceOnUse" x="-218" y="-218" width="1547" height="1547">
<path d="M390.358 -217.463L1328.88 390.077L721.344 1328.6L-217.175 721.062L390.358 -217.463Z" fill="white"/>
</mask>
<g mask="url(#mask10_226_566)">
<mask id="mask11_226_566" style="mask-type:luminance" maskUnits="userSpaceOnUse" x="0" y="0" width="1112" height="1112">
<path d="M1022.57 858.126C855.752 1115.83 511.607 1189.5 253.907 1022.68C-3.81333 855.853 -77.489 511.709 89.3352 254.009C256.159 -3.71167 600.304 -77.3873 858.018 89.4436C1115.72 256.261 1189.4 600.406 1022.57 858.126Z" fill="white"/>
</mask>
<g mask="url(#mask11_226_566)">
<path d="M124.085 860.99C124.085 860.99 164.362 785.345 232.1 781.398C299.866 777.444 358.816 719.966 358.816 719.966C358.816 719.966 411.606 732.413 419.184 693.843C419.184 693.843 442.799 693.184 443.586 676.307C444.373 659.436 410.914 630.543 412.783 594.078C414.652 557.627 383.426 518.56 383.426 518.56C383.426 518.56 358.903 501.609 355.709 489.748C352.508 477.907 345.078 470.92 333.499 475.372C321.914 479.843 310.073 483.044 307.955 476.219C305.837 469.434 291.642 467.841 300.565 454.056C309.481 440.279 315.923 430.32 296.517 416.664C277.098 403.007 321.302 396.855 321.483 391.536C321.672 386.224 258.23 410.357 273.238 360.309C288.24 310.249 325.276 335.303 328.16 342.605C331.038 349.9 333.526 327.617 343.068 341.388C352.616 355.179 348.568 373.199 350.995 384.563C353.43 395.913 364.692 386.896 371.719 364.29C378.766 341.67 381.59 345.678 401.54 343.385C421.511 341.085 425.108 345.597 434.986 326.992C444.85 308.393 478.053 312.508 488.409 330.078C498.777 347.641 506.597 346.189 518.492 327.812C530.387 309.435 486.048 299.564 516.986 292.067C547.937 284.563 546.545 306.86 554.97 280.421C563.382 254.002 541.704 247.204 552.28 230.864C562.851 214.531 525.841 222.459 533.043 206.839C540.251 191.212 515.802 179.741 507.337 177.152C498.871 174.564 477.724 231.88 471.303 230.615C464.868 229.358 450.458 235.954 446.861 194.5C443.256 153.053 417.369 137.097 449.261 137.05C481.16 137.016 490.95 137.554 494.205 152.71C497.432 167.853 516.959 139.921 517.571 134.508C518.169 129.095 539.061 128.147 542.685 120.334C546.289 112.534 495.94 107.478 491.394 94.3791C486.822 81.2806 455.393 78.322 440.399 65.7076C425.377 53.0933 388.489 69.7824 378.954 37.5338C369.399 5.27169 361.774 -9.80367 336.976 -22.9694C312.164 -36.1217 288.751 -29.0681 262.661 -71.5508C236.552 -114.047 190.485 -103.315 178.402 -98.0907C166.326 -92.8594 171.073 -91.2322 160.677 -86.3639C150.289 -81.5159 180.924 -61.6866 166.796 -57.7866C152.689 -53.8665 157.557 -68.1215 151.062 -49.1193C144.58 -30.1507 147.686 -23.783 155.621 -11.4174C163.549 0.961567 156.408 -3.66459 136.155 -3.72511C115.915 -3.79235 144.082 33.2707 230.238 -8.02851C230.238 -8.02851 224.63 2.83758 230.823 11.2023C237.016 19.5469 250.76 38.5827 250.76 38.5827C250.76 38.5827 255.984 50.6592 255.5 64.8402C255.023 79.0079 238.421 100.155 242.691 115.95C246.954 131.758 265.566 161.189 250.861 170.502C236.128 179.802 213.293 212.817 227.172 240.648C241.05 268.485 225.665 278.8 222.888 298.744C220.125 318.681 239.947 337.306 237.782 351.85C235.617 366.388 241.602 368.795 246.55 382.156C251.526 395.517 269.19 404.056 269.19 404.056C269.19 404.056 275.975 407.001 273.87 425.916C271.766 444.831 281.011 455.173 281.011 455.173C281.011 455.173 277.454 491.98 297.774 496.445C318.068 500.883 292.846 506.282 274.509 523.415C256.186 540.528 245.616 532.237 247.297 556.498C248.971 580.765 251.856 594.233 240.378 618.668C228.886 643.124 247.223 650.635 247.223 650.635C247.223 650.635 211.646 714.533 179.142 731.155C146.637 747.811 133.485 788.263 112.452 814.056C91.4194 839.843 124.085 860.99 124.085 860.99Z" fill="#B2DE59"/>
</g>
</g>
</g>
</g>
</g>
</g>
</g>
</g>
</g>
<defs>
<clipPath id="clip0_226_566">
<rect width="1112" height="216" fill="white"/>
</clipPath>
</defs>
</svg>
