<svg width="25" height="24" viewBox="0 0 25 24" fill="none" xmlns="http://www.w3.org/2000/svg">
<path fill-rule="evenodd" clip-rule="evenodd" d="M12.6667 1C6.59175 1 1.66675 5.925 1.66675 12C1.66675 18.075 6.59175 23 12.6667 23C18.7417 23 23.6667 18.075 23.6667 12C23.6667 5.925 18.7417 1 12.6667 1ZM16.3737 9.707C16.5559 9.5184 16.6567 9.2658 16.6544 9.0036C16.6521 8.7414 16.547 8.49059 16.3616 8.30518C16.1762 8.11977 15.9253 8.0146 15.6631 8.01233C15.401 8.01005 15.1484 8.11084 14.9597 8.293L12.6667 10.586L10.3737 8.293C10.2815 8.19749 10.1712 8.12131 10.0492 8.0689C9.92715 8.01649 9.79593 7.9889 9.66315 7.98775C9.53037 7.9866 9.39869 8.0119 9.27579 8.06218C9.1529 8.11246 9.04125 8.18671 8.94735 8.28061C8.85346 8.3745 8.77921 8.48615 8.72893 8.60905C8.67865 8.73194 8.65334 8.86362 8.6545 8.9964C8.65565 9.12918 8.68324 9.2604 8.73565 9.3824C8.78806 9.50441 8.86424 9.61475 8.95975 9.707L11.2527 12L8.95975 14.293C8.86424 14.3852 8.78806 14.4956 8.73565 14.6176C8.68324 14.7396 8.65565 14.8708 8.6545 15.0036C8.65334 15.1364 8.67865 15.2681 8.72893 15.391C8.77921 15.5139 8.85346 15.6255 8.94735 15.7194C9.04125 15.8133 9.1529 15.8875 9.27579 15.9378C9.39869 15.9881 9.53037 16.0134 9.66315 16.0123C9.79593 16.0111 9.92715 15.9835 10.0492 15.9311C10.1712 15.8787 10.2815 15.8025 10.3737 15.707L12.6667 13.414L14.9597 15.707C15.1484 15.8892 15.401 15.99 15.6631 15.9877C15.9253 15.9854 16.1762 15.8802 16.3616 15.6948C16.547 15.5094 16.6521 15.2586 16.6544 14.9964C16.6567 14.7342 16.5559 14.4816 16.3737 14.293L14.0807 12L16.3737 9.707Z" fill="#E3E3E3"/>
</svg>
