<svg width="1512" height="723" viewBox="0 0 1512 723" fill="none" xmlns="http://www.w3.org/2000/svg">
<path d="M213.321 163.88C59.7305 131.115 19.8689 -19.6577 19.1369 -90.9483L56.2081 -329.586L1940.39 -71.2956L1826.26 663.392C1692.19 688.273 1384.32 704.44 1225.47 570.062C1026.9 402.09 991.033 154.146 753.58 112.705C516.127 71.2641 405.31 204.836 213.321 163.88Z" fill="#30E0F2"/>
<path d="M231.5 184.878C75.6783 165.299 23.1343 18.4641 16.3399 -52.5058L32.9747 -293.432L1932.3 -196.374L1881.09 545.36C1749.62 581.557 1444.24 623.856 1274.53 503.48C1062.39 353.01 1005.56 109.017 765.446 87.9269C525.328 66.8373 426.277 209.353 231.5 184.878Z" fill="#FFE56A"/>
<path d="M251.806 194.544C94.8049 190.74 27.7558 49.9358 13.8563 -19.9905L6.16938 -261.368L1905.62 -355.876L1929.29 387.248C1802.13 436.487 1502.56 509.292 1321.6 406.6C1095.4 278.235 1014.31 41.196 773.29 44.3693C532.269 47.5426 448.056 199.3 251.806 194.544Z" fill="#FF3C67"/>
<path d="M268.206 172.889C111.713 186.07 29.8434 53.3351 8.46989 -14.6801L-25.2524 -253.814L1852.87 -553L1956.69 183.216C1835.59 245.907 1545.64 350.653 1354.65 268.115C1115.9 164.942 1009.68 -61.9486 770.411 -32.7521C531.144 -3.55554 463.822 156.412 268.206 172.889Z" fill="#7E0CB4"/>
</svg>
