<svg width="1512" height="414" viewBox="0 0 1512 414" fill="none" xmlns="http://www.w3.org/2000/svg">
<g clip-path="url(#clip0_147_1438)">
<path d="M70.781 346.012C-75.1139 390.123 -179.633 280.649 -213.655 220.399L-293.951 0.201076L1428.52 -663.024L1675.72 14.8936C1573.42 98.8562 1319.33 256.834 1121.35 217.046C873.882 167.31 727.235 -26.6265 505.997 49.3998C284.759 125.426 253.15 290.875 70.781 346.012Z" fill="#30E0F2"/>
<path d="M96.0701 355.343C-45.5432 411.705 -158.996 311.521 -198.021 254.383L-296.759 41.815L1363.04 -765.544L1667.02 -111.115C1572.24 -18.7536 1332.5 160.269 1131.86 137.467C881.057 108.965 718.442 -71.7923 504.474 22.7801C290.506 117.353 273.087 284.89 96.0701 355.343Z" fill="#FFE56A"/>
<path d="M117.857 354.045C-17.3676 424.368 -140.324 336.105 -184.899 283.183L-304.52 81.6264L1265.64 -888.614L1633.91 -268.085C1548.9 -166.657 1328.39 35.5746 1126.47 33.0735C874.076 29.947 694.102 -133.534 490.733 -17.9163C287.365 97.7017 286.888 266.142 117.857 354.045Z" fill="#FF3C67"/>
<path d="M121.651 327.955C-5.18404 412.477 -136.957 338.016 -186.989 290.221L-327.688 102.768L1128.45 -1031.44L1561.61 -454.339C1488.06 -344.319 1290.69 -119.446 1089.68 -100.116C838.425 -75.9531 641.84 -219.031 452.154 -82.1168C262.469 54.7978 280.195 222.303 121.651 327.955Z" fill="white"/>
</g>
<defs>
<clipPath id="clip0_147_1438">
<rect width="1512" height="414" fill="white"/>
</clipPath>
</defs>
</svg>
