<svg width="1512" height="784" viewBox="0 0 1512 784" fill="none" xmlns="http://www.w3.org/2000/svg">
<g clip-path="url(#clip0_70_519)">
<path d="M80.0897 213.456C-58.5182 178.253 -89.4994 39.6611 -87.6641 -25.2344L-45.5586 -241.078L1659.86 60.0597L1530.23 724.573C1407.36 742.508 1126.66 746.417 986.824 618.568C812.033 458.758 788.098 231.887 573.485 185.846C358.873 139.806 253.35 257.46 80.0897 213.456Z" fill="#30E0F2"/>
<path d="M95.8945 233.201C-45.2057 209.918 -87.8653 74.4641 -91.5576 9.64781L-67.9676 -208.996L1656.89 -54.0375L1584.26 619.095C1463.36 647.418 1184.01 675.194 1033.81 559.705C846.053 415.344 802.904 191.332 585.152 163.716C367.401 136.101 272.27 262.306 95.8945 233.201Z" fill="#FFE56A"/>
<path d="M114.032 242.709C-28.6948 233.738 -84.7647 103.263 -94.9587 39.1471L-93.4841 -180.76L1638.21 -200.11L1633.67 476.914C1516.23 517.257 1241.09 572.994 1080.03 473.202C878.708 348.461 813.242 129.926 593.818 124.357C374.393 118.787 292.44 253.922 114.032 242.709Z" fill="#FF3C67"/>
<path d="M129.716 223.579C-13.1449 230.083 -82.984 106.43 -100.046 43.7906L-122.34 -174.989L1597.13 -381.33L1665.76 292.22C1553.37 345.016 1285.86 430.155 1114.96 348.349C901.342 246.091 812.647 35.909 593.905 54.0807C375.163 72.2524 308.291 215.45 129.716 223.579Z" fill="#7E0CB4"/>
<path d="M136.429 218.446C-5.41402 236.728 -85.7388 117.202 -108.171 55.154L-149.34 -242.078L1546.79 -591.839L1673.53 162.22C1566.07 224.896 1306.79 333.03 1129.35 264.162C907.548 178.077 800.935 -27.5471 584.462 8.76573C367.99 45.0786 313.732 195.593 136.429 218.446Z" fill="white"/>
</g>
<defs>
<clipPath id="clip0_70_519">
<rect width="1512" height="784" fill="white"/>
</clipPath>
</defs>
</svg>
